%TF.GenerationSoftware,KiCad,Pcbnew,(5.1.10)-1*%
%TF.CreationDate,2021-09-03T10:18:15+02:00*%
%TF.ProjectId,Rpi_Adapter,5270695f-4164-4617-9074-65722e6b6963,2L_3*%
%TF.SameCoordinates,Original*%
%TF.FileFunction,Copper,L2,Bot*%
%TF.FilePolarity,Positive*%
%FSLAX46Y46*%
G04 Gerber Fmt 4.6, Leading zero omitted, Abs format (unit mm)*
G04 Created by KiCad (PCBNEW (5.1.10)-1) date 2021-09-03 10:18:15*
%MOMM*%
%LPD*%
G01*
G04 APERTURE LIST*
%TA.AperFunction,ComponentPad*%
%ADD10C,1.524000*%
%TD*%
%TA.AperFunction,ComponentPad*%
%ADD11O,1.700000X1.700000*%
%TD*%
%TA.AperFunction,ComponentPad*%
%ADD12R,1.700000X1.700000*%
%TD*%
%TA.AperFunction,ViaPad*%
%ADD13C,0.685800*%
%TD*%
%TA.AperFunction,Conductor*%
%ADD14C,0.304800*%
%TD*%
%TA.AperFunction,Conductor*%
%ADD15C,0.152400*%
%TD*%
%TA.AperFunction,Conductor*%
%ADD16C,0.254000*%
%TD*%
%TA.AperFunction,Conductor*%
%ADD17C,0.076200*%
%TD*%
G04 APERTURE END LIST*
D10*
%TO.P,H1,20*%
%TO.N,N/C*%
X175750000Y-56748200D03*
%TO.P,H1,19*%
X173743400Y-56748200D03*
%TO.P,H1,18*%
X171736800Y-56748200D03*
%TO.P,H1,17*%
X169730200Y-56748200D03*
%TO.P,H1,16*%
X167723600Y-56748200D03*
%TO.P,H1,15*%
%TO.N,Net-(H1-Pad15)*%
X165717000Y-56748200D03*
%TO.P,H1,14*%
%TO.N,N/C*%
X163710400Y-56748200D03*
%TO.P,H1,13*%
%TO.N,Net-(H1-Pad13)*%
X161703800Y-56748200D03*
%TO.P,H1,12*%
%TO.N,N/C*%
X159697200Y-56748200D03*
%TO.P,H1,11*%
X157690600Y-56748200D03*
%TO.P,H1,10*%
%TO.N,GND*%
X157690600Y-34751800D03*
%TO.P,H1,9*%
%TO.N,N/C*%
X159697200Y-34751800D03*
%TO.P,H1,8*%
X161703800Y-34751800D03*
%TO.P,H1,7*%
X163710400Y-34751800D03*
%TO.P,H1,6*%
X165717000Y-34751800D03*
%TO.P,H1,5*%
%TO.N,/~RESET*%
X167723600Y-34751800D03*
%TO.P,H1,4*%
%TO.N,N/C*%
X169730200Y-34751800D03*
%TO.P,H1,3*%
%TO.N,/UART0_Tx*%
X171736800Y-34751800D03*
%TO.P,H1,2*%
%TO.N,/UART0_Rx*%
X173743400Y-34751800D03*
%TO.P,H1,1*%
%TO.N,/3V3*%
X175750000Y-34751800D03*
%TD*%
D11*
%TO.P,SW1,2*%
%TO.N,/GPIO_18*%
X151892000Y-38100000D03*
D12*
%TO.P,SW1,1*%
%TO.N,Net-(R1-Pad1)*%
X151892000Y-35560000D03*
%TD*%
%TO.P,P1,1*%
%TO.N,/3V3*%
X170180000Y-61214000D03*
D11*
%TO.P,P1,2*%
%TO.N,/5V*%
X170180000Y-63754000D03*
%TO.P,P1,3*%
%TO.N,N/C*%
X167640000Y-61214000D03*
%TO.P,P1,4*%
%TO.N,/5V*%
X167640000Y-63754000D03*
%TO.P,P1,5*%
%TO.N,N/C*%
X165100000Y-61214000D03*
%TO.P,P1,6*%
%TO.N,GND*%
X165100000Y-63754000D03*
%TO.P,P1,7*%
%TO.N,N/C*%
X162560000Y-61214000D03*
%TO.P,P1,8*%
%TO.N,/UART0_Tx*%
X162560000Y-63754000D03*
%TO.P,P1,9*%
%TO.N,GND*%
X160020000Y-61214000D03*
%TO.P,P1,10*%
%TO.N,/UART0_Rx*%
X160020000Y-63754000D03*
%TO.P,P1,11*%
%TO.N,N/C*%
X157480000Y-61214000D03*
%TO.P,P1,12*%
%TO.N,/GPIO_18*%
X157480000Y-63754000D03*
%TD*%
D13*
%TO.N,/3V3*%
X169463720Y-40535860D03*
%TD*%
D14*
%TO.N,/3V3*%
X170180000Y-61214000D02*
X176240440Y-61214000D01*
X176240440Y-61214000D02*
X178953160Y-58501280D01*
X178953160Y-37954960D02*
X175750000Y-34751800D01*
X178953160Y-58501280D02*
X178953160Y-37954960D01*
X169965940Y-40535860D02*
X169463720Y-40535860D01*
X175750000Y-34751800D02*
X169965940Y-40535860D01*
D15*
%TO.N,/UART0_Rx*%
X164726399Y-43768801D02*
X173743400Y-34751800D01*
X164726399Y-57198291D02*
X164726399Y-43768801D01*
X161098601Y-60826089D02*
X164726399Y-57198291D01*
X161098601Y-62675399D02*
X161098601Y-60826089D01*
X160020000Y-63754000D02*
X161098601Y-62675399D01*
%TO.N,/GPIO_18*%
X157480000Y-63754000D02*
X157368240Y-63754000D01*
X158558601Y-59082291D02*
X149915880Y-50439570D01*
X158558601Y-62563639D02*
X158558601Y-59082291D01*
X157368240Y-63754000D02*
X158558601Y-62563639D01*
X149915880Y-40076120D02*
X151892000Y-38100000D01*
X149915880Y-50439570D02*
X149915880Y-40076120D01*
%TD*%
D16*
%TO.N,GND*%
X180036400Y-65736400D02*
X156513600Y-65736400D01*
X156513600Y-64340548D01*
X156602737Y-64473951D01*
X156760049Y-64631263D01*
X156945028Y-64754862D01*
X157150566Y-64839998D01*
X157368764Y-64883400D01*
X157591236Y-64883400D01*
X157809434Y-64839998D01*
X158014972Y-64754862D01*
X158199951Y-64631263D01*
X158357263Y-64473951D01*
X158480862Y-64288972D01*
X158565998Y-64083434D01*
X158609400Y-63865236D01*
X158609400Y-63642764D01*
X158565998Y-63424566D01*
X158480862Y-63219028D01*
X158450919Y-63174215D01*
X158797705Y-62827429D01*
X158811263Y-62816302D01*
X158822391Y-62802743D01*
X158822396Y-62802738D01*
X158855702Y-62762155D01*
X158888721Y-62700380D01*
X158888722Y-62700379D01*
X158909055Y-62633349D01*
X158914201Y-62581102D01*
X158914201Y-62581094D01*
X158915920Y-62563639D01*
X158914201Y-62546184D01*
X158914201Y-61506994D01*
X158981950Y-61506994D01*
X159059056Y-61703878D01*
X159173091Y-61881936D01*
X159319672Y-62034326D01*
X159493166Y-62155191D01*
X159686906Y-62239886D01*
X159727007Y-62252043D01*
X159893000Y-62227524D01*
X159893000Y-61341000D01*
X159006046Y-61341000D01*
X158981950Y-61506994D01*
X158914201Y-61506994D01*
X158914201Y-60921006D01*
X158981950Y-60921006D01*
X159006046Y-61087000D01*
X159893000Y-61087000D01*
X159893000Y-60200476D01*
X159727007Y-60175957D01*
X159686906Y-60188114D01*
X159493166Y-60272809D01*
X159319672Y-60393674D01*
X159173091Y-60546064D01*
X159059056Y-60724122D01*
X158981950Y-60921006D01*
X158914201Y-60921006D01*
X158914201Y-59099743D01*
X158915920Y-59082290D01*
X158914201Y-59064837D01*
X158914201Y-59064828D01*
X158909055Y-59012581D01*
X158888722Y-58945551D01*
X158855702Y-58883775D01*
X158850445Y-58877369D01*
X158822396Y-58843191D01*
X158822391Y-58843186D01*
X158811264Y-58829628D01*
X158797706Y-58818501D01*
X157768805Y-57789600D01*
X157793169Y-57789600D01*
X157994365Y-57749580D01*
X158183888Y-57671077D01*
X158354454Y-57557108D01*
X158499508Y-57412054D01*
X158613477Y-57241488D01*
X158691980Y-57051965D01*
X158693900Y-57042312D01*
X158695820Y-57051965D01*
X158774323Y-57241488D01*
X158888292Y-57412054D01*
X159033346Y-57557108D01*
X159203912Y-57671077D01*
X159393435Y-57749580D01*
X159594631Y-57789600D01*
X159799769Y-57789600D01*
X160000965Y-57749580D01*
X160190488Y-57671077D01*
X160361054Y-57557108D01*
X160506108Y-57412054D01*
X160620077Y-57241488D01*
X160698580Y-57051965D01*
X160700500Y-57042312D01*
X160702420Y-57051965D01*
X160780923Y-57241488D01*
X160894892Y-57412054D01*
X161039946Y-57557108D01*
X161210512Y-57671077D01*
X161400035Y-57749580D01*
X161601231Y-57789600D01*
X161806369Y-57789600D01*
X162007565Y-57749580D01*
X162197088Y-57671077D01*
X162367654Y-57557108D01*
X162512708Y-57412054D01*
X162626677Y-57241488D01*
X162705180Y-57051965D01*
X162707100Y-57042312D01*
X162709020Y-57051965D01*
X162787523Y-57241488D01*
X162901492Y-57412054D01*
X163046546Y-57557108D01*
X163217112Y-57671077D01*
X163406635Y-57749580D01*
X163607831Y-57789600D01*
X163632195Y-57789600D01*
X160870354Y-60551443D01*
X160866909Y-60546064D01*
X160720328Y-60393674D01*
X160546834Y-60272809D01*
X160353094Y-60188114D01*
X160312993Y-60175957D01*
X160147000Y-60200476D01*
X160147000Y-61087000D01*
X160167000Y-61087000D01*
X160167000Y-61341000D01*
X160147000Y-61341000D01*
X160147000Y-62227524D01*
X160312993Y-62252043D01*
X160353094Y-62239886D01*
X160546834Y-62155191D01*
X160720328Y-62034326D01*
X160743001Y-62010754D01*
X160743001Y-62528104D01*
X160528806Y-62742300D01*
X160349434Y-62668002D01*
X160131236Y-62624600D01*
X159908764Y-62624600D01*
X159690566Y-62668002D01*
X159485028Y-62753138D01*
X159300049Y-62876737D01*
X159142737Y-63034049D01*
X159019138Y-63219028D01*
X158934002Y-63424566D01*
X158890600Y-63642764D01*
X158890600Y-63865236D01*
X158934002Y-64083434D01*
X159019138Y-64288972D01*
X159142737Y-64473951D01*
X159300049Y-64631263D01*
X159485028Y-64754862D01*
X159690566Y-64839998D01*
X159908764Y-64883400D01*
X160131236Y-64883400D01*
X160349434Y-64839998D01*
X160554972Y-64754862D01*
X160739951Y-64631263D01*
X160897263Y-64473951D01*
X161020862Y-64288972D01*
X161105998Y-64083434D01*
X161149400Y-63865236D01*
X161149400Y-63642764D01*
X161430600Y-63642764D01*
X161430600Y-63865236D01*
X161474002Y-64083434D01*
X161559138Y-64288972D01*
X161682737Y-64473951D01*
X161840049Y-64631263D01*
X162025028Y-64754862D01*
X162230566Y-64839998D01*
X162448764Y-64883400D01*
X162671236Y-64883400D01*
X162889434Y-64839998D01*
X163094972Y-64754862D01*
X163279951Y-64631263D01*
X163437263Y-64473951D01*
X163560862Y-64288972D01*
X163645998Y-64083434D01*
X163653246Y-64046994D01*
X164061950Y-64046994D01*
X164139056Y-64243878D01*
X164253091Y-64421936D01*
X164399672Y-64574326D01*
X164573166Y-64695191D01*
X164766906Y-64779886D01*
X164807007Y-64792043D01*
X164973000Y-64767524D01*
X164973000Y-63881000D01*
X165227000Y-63881000D01*
X165227000Y-64767524D01*
X165392993Y-64792043D01*
X165433094Y-64779886D01*
X165626834Y-64695191D01*
X165800328Y-64574326D01*
X165946909Y-64421936D01*
X166060944Y-64243878D01*
X166138050Y-64046994D01*
X166113954Y-63881000D01*
X165227000Y-63881000D01*
X164973000Y-63881000D01*
X164086046Y-63881000D01*
X164061950Y-64046994D01*
X163653246Y-64046994D01*
X163689400Y-63865236D01*
X163689400Y-63642764D01*
X166510600Y-63642764D01*
X166510600Y-63865236D01*
X166554002Y-64083434D01*
X166639138Y-64288972D01*
X166762737Y-64473951D01*
X166920049Y-64631263D01*
X167105028Y-64754862D01*
X167310566Y-64839998D01*
X167528764Y-64883400D01*
X167751236Y-64883400D01*
X167969434Y-64839998D01*
X168174972Y-64754862D01*
X168359951Y-64631263D01*
X168517263Y-64473951D01*
X168640862Y-64288972D01*
X168725998Y-64083434D01*
X168769400Y-63865236D01*
X168769400Y-63642764D01*
X169050600Y-63642764D01*
X169050600Y-63865236D01*
X169094002Y-64083434D01*
X169179138Y-64288972D01*
X169302737Y-64473951D01*
X169460049Y-64631263D01*
X169645028Y-64754862D01*
X169850566Y-64839998D01*
X170068764Y-64883400D01*
X170291236Y-64883400D01*
X170509434Y-64839998D01*
X170714972Y-64754862D01*
X170899951Y-64631263D01*
X171057263Y-64473951D01*
X171180862Y-64288972D01*
X171265998Y-64083434D01*
X171309400Y-63865236D01*
X171309400Y-63642764D01*
X171265998Y-63424566D01*
X171180862Y-63219028D01*
X171057263Y-63034049D01*
X170899951Y-62876737D01*
X170714972Y-62753138D01*
X170509434Y-62668002D01*
X170291236Y-62624600D01*
X170068764Y-62624600D01*
X169850566Y-62668002D01*
X169645028Y-62753138D01*
X169460049Y-62876737D01*
X169302737Y-63034049D01*
X169179138Y-63219028D01*
X169094002Y-63424566D01*
X169050600Y-63642764D01*
X168769400Y-63642764D01*
X168725998Y-63424566D01*
X168640862Y-63219028D01*
X168517263Y-63034049D01*
X168359951Y-62876737D01*
X168174972Y-62753138D01*
X167969434Y-62668002D01*
X167751236Y-62624600D01*
X167528764Y-62624600D01*
X167310566Y-62668002D01*
X167105028Y-62753138D01*
X166920049Y-62876737D01*
X166762737Y-63034049D01*
X166639138Y-63219028D01*
X166554002Y-63424566D01*
X166510600Y-63642764D01*
X163689400Y-63642764D01*
X163653247Y-63461006D01*
X164061950Y-63461006D01*
X164086046Y-63627000D01*
X164973000Y-63627000D01*
X164973000Y-62740476D01*
X165227000Y-62740476D01*
X165227000Y-63627000D01*
X166113954Y-63627000D01*
X166138050Y-63461006D01*
X166060944Y-63264122D01*
X165946909Y-63086064D01*
X165800328Y-62933674D01*
X165626834Y-62812809D01*
X165433094Y-62728114D01*
X165392993Y-62715957D01*
X165227000Y-62740476D01*
X164973000Y-62740476D01*
X164807007Y-62715957D01*
X164766906Y-62728114D01*
X164573166Y-62812809D01*
X164399672Y-62933674D01*
X164253091Y-63086064D01*
X164139056Y-63264122D01*
X164061950Y-63461006D01*
X163653247Y-63461006D01*
X163645998Y-63424566D01*
X163560862Y-63219028D01*
X163437263Y-63034049D01*
X163279951Y-62876737D01*
X163094972Y-62753138D01*
X162889434Y-62668002D01*
X162671236Y-62624600D01*
X162448764Y-62624600D01*
X162230566Y-62668002D01*
X162025028Y-62753138D01*
X161840049Y-62876737D01*
X161682737Y-63034049D01*
X161559138Y-63219028D01*
X161474002Y-63424566D01*
X161430600Y-63642764D01*
X161149400Y-63642764D01*
X161105998Y-63424566D01*
X161031700Y-63245194D01*
X161337711Y-62939184D01*
X161351263Y-62928062D01*
X161362386Y-62914509D01*
X161362396Y-62914499D01*
X161395701Y-62873916D01*
X161395703Y-62873914D01*
X161428722Y-62812139D01*
X161443885Y-62762154D01*
X161449055Y-62745110D01*
X161451926Y-62715957D01*
X161454201Y-62692862D01*
X161454201Y-62692855D01*
X161455920Y-62675400D01*
X161454201Y-62657944D01*
X161454201Y-61443887D01*
X161474002Y-61543434D01*
X161559138Y-61748972D01*
X161682737Y-61933951D01*
X161840049Y-62091263D01*
X162025028Y-62214862D01*
X162230566Y-62299998D01*
X162448764Y-62343400D01*
X162671236Y-62343400D01*
X162889434Y-62299998D01*
X163094972Y-62214862D01*
X163279951Y-62091263D01*
X163437263Y-61933951D01*
X163560862Y-61748972D01*
X163645998Y-61543434D01*
X163689400Y-61325236D01*
X163689400Y-61102764D01*
X163970600Y-61102764D01*
X163970600Y-61325236D01*
X164014002Y-61543434D01*
X164099138Y-61748972D01*
X164222737Y-61933951D01*
X164380049Y-62091263D01*
X164565028Y-62214862D01*
X164770566Y-62299998D01*
X164988764Y-62343400D01*
X165211236Y-62343400D01*
X165429434Y-62299998D01*
X165634972Y-62214862D01*
X165819951Y-62091263D01*
X165977263Y-61933951D01*
X166100862Y-61748972D01*
X166185998Y-61543434D01*
X166229400Y-61325236D01*
X166229400Y-61102764D01*
X166510600Y-61102764D01*
X166510600Y-61325236D01*
X166554002Y-61543434D01*
X166639138Y-61748972D01*
X166762737Y-61933951D01*
X166920049Y-62091263D01*
X167105028Y-62214862D01*
X167310566Y-62299998D01*
X167528764Y-62343400D01*
X167751236Y-62343400D01*
X167969434Y-62299998D01*
X168174972Y-62214862D01*
X168359951Y-62091263D01*
X168517263Y-61933951D01*
X168640862Y-61748972D01*
X168725998Y-61543434D01*
X168769400Y-61325236D01*
X168769400Y-61102764D01*
X168725998Y-60884566D01*
X168640862Y-60679028D01*
X168517263Y-60494049D01*
X168359951Y-60336737D01*
X168174972Y-60213138D01*
X167969434Y-60128002D01*
X167751236Y-60084600D01*
X167528764Y-60084600D01*
X167310566Y-60128002D01*
X167105028Y-60213138D01*
X166920049Y-60336737D01*
X166762737Y-60494049D01*
X166639138Y-60679028D01*
X166554002Y-60884566D01*
X166510600Y-61102764D01*
X166229400Y-61102764D01*
X166185998Y-60884566D01*
X166100862Y-60679028D01*
X165977263Y-60494049D01*
X165819951Y-60336737D01*
X165634972Y-60213138D01*
X165429434Y-60128002D01*
X165211236Y-60084600D01*
X164988764Y-60084600D01*
X164770566Y-60128002D01*
X164565028Y-60213138D01*
X164380049Y-60336737D01*
X164222737Y-60494049D01*
X164099138Y-60679028D01*
X164014002Y-60884566D01*
X163970600Y-61102764D01*
X163689400Y-61102764D01*
X163645998Y-60884566D01*
X163560862Y-60679028D01*
X163437263Y-60494049D01*
X163279951Y-60336737D01*
X163094972Y-60213138D01*
X162889434Y-60128002D01*
X162671236Y-60084600D01*
X162448764Y-60084600D01*
X162316718Y-60110865D01*
X164961811Y-57465773D01*
X165053146Y-57557108D01*
X165223712Y-57671077D01*
X165413235Y-57749580D01*
X165614431Y-57789600D01*
X165819569Y-57789600D01*
X166020765Y-57749580D01*
X166210288Y-57671077D01*
X166380854Y-57557108D01*
X166525908Y-57412054D01*
X166639877Y-57241488D01*
X166718380Y-57051965D01*
X166720300Y-57042312D01*
X166722220Y-57051965D01*
X166800723Y-57241488D01*
X166914692Y-57412054D01*
X167059746Y-57557108D01*
X167230312Y-57671077D01*
X167419835Y-57749580D01*
X167621031Y-57789600D01*
X167826169Y-57789600D01*
X168027365Y-57749580D01*
X168216888Y-57671077D01*
X168387454Y-57557108D01*
X168532508Y-57412054D01*
X168646477Y-57241488D01*
X168724980Y-57051965D01*
X168726900Y-57042312D01*
X168728820Y-57051965D01*
X168807323Y-57241488D01*
X168921292Y-57412054D01*
X169066346Y-57557108D01*
X169236912Y-57671077D01*
X169426435Y-57749580D01*
X169627631Y-57789600D01*
X169832769Y-57789600D01*
X170033965Y-57749580D01*
X170223488Y-57671077D01*
X170394054Y-57557108D01*
X170539108Y-57412054D01*
X170653077Y-57241488D01*
X170731580Y-57051965D01*
X170733500Y-57042312D01*
X170735420Y-57051965D01*
X170813923Y-57241488D01*
X170927892Y-57412054D01*
X171072946Y-57557108D01*
X171243512Y-57671077D01*
X171433035Y-57749580D01*
X171634231Y-57789600D01*
X171839369Y-57789600D01*
X172040565Y-57749580D01*
X172230088Y-57671077D01*
X172400654Y-57557108D01*
X172545708Y-57412054D01*
X172659677Y-57241488D01*
X172738180Y-57051965D01*
X172740100Y-57042312D01*
X172742020Y-57051965D01*
X172820523Y-57241488D01*
X172934492Y-57412054D01*
X173079546Y-57557108D01*
X173250112Y-57671077D01*
X173439635Y-57749580D01*
X173640831Y-57789600D01*
X173845969Y-57789600D01*
X174047165Y-57749580D01*
X174236688Y-57671077D01*
X174407254Y-57557108D01*
X174552308Y-57412054D01*
X174666277Y-57241488D01*
X174744780Y-57051965D01*
X174746700Y-57042312D01*
X174748620Y-57051965D01*
X174827123Y-57241488D01*
X174941092Y-57412054D01*
X175086146Y-57557108D01*
X175256712Y-57671077D01*
X175446235Y-57749580D01*
X175647431Y-57789600D01*
X175852569Y-57789600D01*
X176053765Y-57749580D01*
X176243288Y-57671077D01*
X176413854Y-57557108D01*
X176558908Y-57412054D01*
X176672877Y-57241488D01*
X176751380Y-57051965D01*
X176791400Y-56850769D01*
X176791400Y-56645631D01*
X176751380Y-56444435D01*
X176672877Y-56254912D01*
X176558908Y-56084346D01*
X176413854Y-55939292D01*
X176243288Y-55825323D01*
X176053765Y-55746820D01*
X175852569Y-55706800D01*
X175647431Y-55706800D01*
X175446235Y-55746820D01*
X175256712Y-55825323D01*
X175086146Y-55939292D01*
X174941092Y-56084346D01*
X174827123Y-56254912D01*
X174748620Y-56444435D01*
X174746700Y-56454088D01*
X174744780Y-56444435D01*
X174666277Y-56254912D01*
X174552308Y-56084346D01*
X174407254Y-55939292D01*
X174236688Y-55825323D01*
X174047165Y-55746820D01*
X173845969Y-55706800D01*
X173640831Y-55706800D01*
X173439635Y-55746820D01*
X173250112Y-55825323D01*
X173079546Y-55939292D01*
X172934492Y-56084346D01*
X172820523Y-56254912D01*
X172742020Y-56444435D01*
X172740100Y-56454088D01*
X172738180Y-56444435D01*
X172659677Y-56254912D01*
X172545708Y-56084346D01*
X172400654Y-55939292D01*
X172230088Y-55825323D01*
X172040565Y-55746820D01*
X171839369Y-55706800D01*
X171634231Y-55706800D01*
X171433035Y-55746820D01*
X171243512Y-55825323D01*
X171072946Y-55939292D01*
X170927892Y-56084346D01*
X170813923Y-56254912D01*
X170735420Y-56444435D01*
X170733500Y-56454088D01*
X170731580Y-56444435D01*
X170653077Y-56254912D01*
X170539108Y-56084346D01*
X170394054Y-55939292D01*
X170223488Y-55825323D01*
X170033965Y-55746820D01*
X169832769Y-55706800D01*
X169627631Y-55706800D01*
X169426435Y-55746820D01*
X169236912Y-55825323D01*
X169066346Y-55939292D01*
X168921292Y-56084346D01*
X168807323Y-56254912D01*
X168728820Y-56444435D01*
X168726900Y-56454088D01*
X168724980Y-56444435D01*
X168646477Y-56254912D01*
X168532508Y-56084346D01*
X168387454Y-55939292D01*
X168216888Y-55825323D01*
X168027365Y-55746820D01*
X167826169Y-55706800D01*
X167621031Y-55706800D01*
X167419835Y-55746820D01*
X167230312Y-55825323D01*
X167059746Y-55939292D01*
X166914692Y-56084346D01*
X166800723Y-56254912D01*
X166722220Y-56444435D01*
X166720300Y-56454088D01*
X166718380Y-56444435D01*
X166639877Y-56254912D01*
X166525908Y-56084346D01*
X166380854Y-55939292D01*
X166210288Y-55825323D01*
X166020765Y-55746820D01*
X165819569Y-55706800D01*
X165614431Y-55706800D01*
X165413235Y-55746820D01*
X165223712Y-55825323D01*
X165081999Y-55920013D01*
X165081999Y-43916094D01*
X173301947Y-35696148D01*
X173439635Y-35753180D01*
X173640831Y-35793200D01*
X173845969Y-35793200D01*
X174047165Y-35753180D01*
X174202166Y-35688977D01*
X169847371Y-40043773D01*
X169758490Y-39984385D01*
X169645238Y-39937475D01*
X169525011Y-39913560D01*
X169402429Y-39913560D01*
X169282202Y-39937475D01*
X169168950Y-39984385D01*
X169067027Y-40052488D01*
X168980348Y-40139167D01*
X168912245Y-40241090D01*
X168865335Y-40354342D01*
X168841420Y-40474569D01*
X168841420Y-40597151D01*
X168865335Y-40717378D01*
X168912245Y-40830630D01*
X168980348Y-40932553D01*
X169067027Y-41019232D01*
X169168950Y-41087335D01*
X169282202Y-41134245D01*
X169402429Y-41158160D01*
X169525011Y-41158160D01*
X169645238Y-41134245D01*
X169758490Y-41087335D01*
X169860413Y-41019232D01*
X169911985Y-40967660D01*
X169944730Y-40967660D01*
X169965940Y-40969749D01*
X169987150Y-40967660D01*
X170050588Y-40961412D01*
X170131982Y-40936721D01*
X170206996Y-40896626D01*
X170272746Y-40842666D01*
X170286275Y-40826181D01*
X175384747Y-35727711D01*
X175446235Y-35753180D01*
X175647431Y-35793200D01*
X175852569Y-35793200D01*
X176053765Y-35753180D01*
X176115254Y-35727710D01*
X178521361Y-38133819D01*
X178521360Y-58322422D01*
X176061584Y-60782200D01*
X171310751Y-60782200D01*
X171310751Y-60364000D01*
X171305356Y-60309228D01*
X171289380Y-60256561D01*
X171263436Y-60208023D01*
X171228521Y-60165479D01*
X171185977Y-60130564D01*
X171137439Y-60104620D01*
X171084772Y-60088644D01*
X171030000Y-60083249D01*
X169330000Y-60083249D01*
X169275228Y-60088644D01*
X169222561Y-60104620D01*
X169174023Y-60130564D01*
X169131479Y-60165479D01*
X169096564Y-60208023D01*
X169070620Y-60256561D01*
X169054644Y-60309228D01*
X169049249Y-60364000D01*
X169049249Y-62064000D01*
X169054644Y-62118772D01*
X169070620Y-62171439D01*
X169096564Y-62219977D01*
X169131479Y-62262521D01*
X169174023Y-62297436D01*
X169222561Y-62323380D01*
X169275228Y-62339356D01*
X169330000Y-62344751D01*
X171030000Y-62344751D01*
X171084772Y-62339356D01*
X171137439Y-62323380D01*
X171185977Y-62297436D01*
X171228521Y-62262521D01*
X171263436Y-62219977D01*
X171289380Y-62171439D01*
X171305356Y-62118772D01*
X171310751Y-62064000D01*
X171310751Y-61645800D01*
X176219230Y-61645800D01*
X176240440Y-61647889D01*
X176261650Y-61645800D01*
X176325088Y-61639552D01*
X176406482Y-61614861D01*
X176481496Y-61574766D01*
X176547246Y-61520806D01*
X176560775Y-61504321D01*
X179243493Y-58821605D01*
X179259966Y-58808086D01*
X179313926Y-58742336D01*
X179354021Y-58667322D01*
X179378712Y-58585928D01*
X179384960Y-58522490D01*
X179384960Y-58522484D01*
X179387048Y-58501281D01*
X179384960Y-58480078D01*
X179384960Y-37976162D01*
X179387048Y-37954959D01*
X179384960Y-37933757D01*
X179384960Y-37933750D01*
X179378712Y-37870312D01*
X179354021Y-37788918D01*
X179313926Y-37713904D01*
X179259966Y-37648154D01*
X179243492Y-37634634D01*
X176725910Y-35117054D01*
X176751380Y-35055565D01*
X176791400Y-34854369D01*
X176791400Y-34649231D01*
X176751380Y-34448035D01*
X176672877Y-34258512D01*
X176558908Y-34087946D01*
X176413854Y-33942892D01*
X176243288Y-33828923D01*
X176053765Y-33750420D01*
X175852569Y-33710400D01*
X175647431Y-33710400D01*
X175446235Y-33750420D01*
X175256712Y-33828923D01*
X175086146Y-33942892D01*
X174941092Y-34087946D01*
X174827123Y-34258512D01*
X174748620Y-34448035D01*
X174746700Y-34457688D01*
X174744780Y-34448035D01*
X174666277Y-34258512D01*
X174552308Y-34087946D01*
X174407254Y-33942892D01*
X174236688Y-33828923D01*
X174047165Y-33750420D01*
X173845969Y-33710400D01*
X173640831Y-33710400D01*
X173439635Y-33750420D01*
X173250112Y-33828923D01*
X173079546Y-33942892D01*
X172934492Y-34087946D01*
X172820523Y-34258512D01*
X172742020Y-34448035D01*
X172740100Y-34457688D01*
X172738180Y-34448035D01*
X172659677Y-34258512D01*
X172545708Y-34087946D01*
X172400654Y-33942892D01*
X172230088Y-33828923D01*
X172040565Y-33750420D01*
X171839369Y-33710400D01*
X171634231Y-33710400D01*
X171433035Y-33750420D01*
X171243512Y-33828923D01*
X171072946Y-33942892D01*
X170927892Y-34087946D01*
X170813923Y-34258512D01*
X170735420Y-34448035D01*
X170733500Y-34457688D01*
X170731580Y-34448035D01*
X170653077Y-34258512D01*
X170539108Y-34087946D01*
X170394054Y-33942892D01*
X170223488Y-33828923D01*
X170033965Y-33750420D01*
X169832769Y-33710400D01*
X169627631Y-33710400D01*
X169426435Y-33750420D01*
X169236912Y-33828923D01*
X169066346Y-33942892D01*
X168921292Y-34087946D01*
X168807323Y-34258512D01*
X168728820Y-34448035D01*
X168726900Y-34457688D01*
X168724980Y-34448035D01*
X168646477Y-34258512D01*
X168532508Y-34087946D01*
X168387454Y-33942892D01*
X168216888Y-33828923D01*
X168027365Y-33750420D01*
X167826169Y-33710400D01*
X167621031Y-33710400D01*
X167419835Y-33750420D01*
X167230312Y-33828923D01*
X167059746Y-33942892D01*
X166914692Y-34087946D01*
X166800723Y-34258512D01*
X166722220Y-34448035D01*
X166720300Y-34457688D01*
X166718380Y-34448035D01*
X166639877Y-34258512D01*
X166525908Y-34087946D01*
X166380854Y-33942892D01*
X166210288Y-33828923D01*
X166020765Y-33750420D01*
X165819569Y-33710400D01*
X165614431Y-33710400D01*
X165413235Y-33750420D01*
X165223712Y-33828923D01*
X165053146Y-33942892D01*
X164908092Y-34087946D01*
X164794123Y-34258512D01*
X164715620Y-34448035D01*
X164713700Y-34457688D01*
X164711780Y-34448035D01*
X164633277Y-34258512D01*
X164519308Y-34087946D01*
X164374254Y-33942892D01*
X164203688Y-33828923D01*
X164014165Y-33750420D01*
X163812969Y-33710400D01*
X163607831Y-33710400D01*
X163406635Y-33750420D01*
X163217112Y-33828923D01*
X163046546Y-33942892D01*
X162901492Y-34087946D01*
X162787523Y-34258512D01*
X162709020Y-34448035D01*
X162707100Y-34457688D01*
X162705180Y-34448035D01*
X162626677Y-34258512D01*
X162512708Y-34087946D01*
X162367654Y-33942892D01*
X162197088Y-33828923D01*
X162007565Y-33750420D01*
X161806369Y-33710400D01*
X161601231Y-33710400D01*
X161400035Y-33750420D01*
X161210512Y-33828923D01*
X161039946Y-33942892D01*
X160894892Y-34087946D01*
X160780923Y-34258512D01*
X160702420Y-34448035D01*
X160700500Y-34457688D01*
X160698580Y-34448035D01*
X160620077Y-34258512D01*
X160506108Y-34087946D01*
X160361054Y-33942892D01*
X160190488Y-33828923D01*
X160000965Y-33750420D01*
X159799769Y-33710400D01*
X159594631Y-33710400D01*
X159393435Y-33750420D01*
X159203912Y-33828923D01*
X159033346Y-33942892D01*
X158888292Y-34087946D01*
X158774323Y-34258512D01*
X158695820Y-34448035D01*
X158667877Y-34588513D01*
X158645836Y-34471921D01*
X158572879Y-34290941D01*
X158563957Y-34274250D01*
X158437735Y-34184270D01*
X157870205Y-34751800D01*
X158437735Y-35319330D01*
X158563957Y-35229350D01*
X158640342Y-35049790D01*
X158668167Y-34916540D01*
X158695820Y-35055565D01*
X158774323Y-35245088D01*
X158888292Y-35415654D01*
X159033346Y-35560708D01*
X159203912Y-35674677D01*
X159393435Y-35753180D01*
X159594631Y-35793200D01*
X159799769Y-35793200D01*
X160000965Y-35753180D01*
X160190488Y-35674677D01*
X160361054Y-35560708D01*
X160506108Y-35415654D01*
X160620077Y-35245088D01*
X160698580Y-35055565D01*
X160700500Y-35045912D01*
X160702420Y-35055565D01*
X160780923Y-35245088D01*
X160894892Y-35415654D01*
X161039946Y-35560708D01*
X161210512Y-35674677D01*
X161400035Y-35753180D01*
X161601231Y-35793200D01*
X161806369Y-35793200D01*
X162007565Y-35753180D01*
X162197088Y-35674677D01*
X162367654Y-35560708D01*
X162512708Y-35415654D01*
X162626677Y-35245088D01*
X162705180Y-35055565D01*
X162707100Y-35045912D01*
X162709020Y-35055565D01*
X162787523Y-35245088D01*
X162901492Y-35415654D01*
X163046546Y-35560708D01*
X163217112Y-35674677D01*
X163406635Y-35753180D01*
X163607831Y-35793200D01*
X163812969Y-35793200D01*
X164014165Y-35753180D01*
X164203688Y-35674677D01*
X164374254Y-35560708D01*
X164519308Y-35415654D01*
X164633277Y-35245088D01*
X164711780Y-35055565D01*
X164713700Y-35045912D01*
X164715620Y-35055565D01*
X164794123Y-35245088D01*
X164908092Y-35415654D01*
X165053146Y-35560708D01*
X165223712Y-35674677D01*
X165413235Y-35753180D01*
X165614431Y-35793200D01*
X165819569Y-35793200D01*
X166020765Y-35753180D01*
X166210288Y-35674677D01*
X166380854Y-35560708D01*
X166525908Y-35415654D01*
X166639877Y-35245088D01*
X166718380Y-35055565D01*
X166720300Y-35045912D01*
X166722220Y-35055565D01*
X166800723Y-35245088D01*
X166914692Y-35415654D01*
X167059746Y-35560708D01*
X167230312Y-35674677D01*
X167419835Y-35753180D01*
X167621031Y-35793200D01*
X167826169Y-35793200D01*
X168027365Y-35753180D01*
X168216888Y-35674677D01*
X168387454Y-35560708D01*
X168532508Y-35415654D01*
X168646477Y-35245088D01*
X168724980Y-35055565D01*
X168726900Y-35045912D01*
X168728820Y-35055565D01*
X168807323Y-35245088D01*
X168921292Y-35415654D01*
X169066346Y-35560708D01*
X169236912Y-35674677D01*
X169426435Y-35753180D01*
X169627631Y-35793200D01*
X169832769Y-35793200D01*
X170033965Y-35753180D01*
X170223488Y-35674677D01*
X170394054Y-35560708D01*
X170539108Y-35415654D01*
X170653077Y-35245088D01*
X170731580Y-35055565D01*
X170733500Y-35045912D01*
X170735420Y-35055565D01*
X170813923Y-35245088D01*
X170927892Y-35415654D01*
X171072946Y-35560708D01*
X171243512Y-35674677D01*
X171433035Y-35753180D01*
X171634231Y-35793200D01*
X171839369Y-35793200D01*
X172040565Y-35753180D01*
X172230088Y-35674677D01*
X172400654Y-35560708D01*
X172545708Y-35415654D01*
X172659677Y-35245088D01*
X172738180Y-35055565D01*
X172740100Y-35045912D01*
X172742020Y-35055565D01*
X172799052Y-35193253D01*
X164487300Y-43505007D01*
X164473737Y-43516138D01*
X164429299Y-43570285D01*
X164412789Y-43601173D01*
X164396279Y-43632060D01*
X164375945Y-43699091D01*
X164369080Y-43768801D01*
X164370800Y-43786267D01*
X164370799Y-55936983D01*
X164203688Y-55825323D01*
X164014165Y-55746820D01*
X163812969Y-55706800D01*
X163607831Y-55706800D01*
X163406635Y-55746820D01*
X163217112Y-55825323D01*
X163046546Y-55939292D01*
X162901492Y-56084346D01*
X162787523Y-56254912D01*
X162709020Y-56444435D01*
X162707100Y-56454088D01*
X162705180Y-56444435D01*
X162626677Y-56254912D01*
X162512708Y-56084346D01*
X162367654Y-55939292D01*
X162197088Y-55825323D01*
X162007565Y-55746820D01*
X161806369Y-55706800D01*
X161601231Y-55706800D01*
X161400035Y-55746820D01*
X161210512Y-55825323D01*
X161039946Y-55939292D01*
X160894892Y-56084346D01*
X160780923Y-56254912D01*
X160702420Y-56444435D01*
X160700500Y-56454088D01*
X160698580Y-56444435D01*
X160620077Y-56254912D01*
X160506108Y-56084346D01*
X160361054Y-55939292D01*
X160190488Y-55825323D01*
X160000965Y-55746820D01*
X159799769Y-55706800D01*
X159594631Y-55706800D01*
X159393435Y-55746820D01*
X159203912Y-55825323D01*
X159033346Y-55939292D01*
X158888292Y-56084346D01*
X158774323Y-56254912D01*
X158695820Y-56444435D01*
X158693900Y-56454088D01*
X158691980Y-56444435D01*
X158613477Y-56254912D01*
X158499508Y-56084346D01*
X158354454Y-55939292D01*
X158183888Y-55825323D01*
X157994365Y-55746820D01*
X157793169Y-55706800D01*
X157588031Y-55706800D01*
X157386835Y-55746820D01*
X157197312Y-55825323D01*
X157026746Y-55939292D01*
X156881692Y-56084346D01*
X156767723Y-56254912D01*
X156689220Y-56444435D01*
X156649200Y-56645631D01*
X156649200Y-56669996D01*
X150271480Y-50292277D01*
X150271480Y-40223413D01*
X151383194Y-39111700D01*
X151562566Y-39185998D01*
X151780764Y-39229400D01*
X152003236Y-39229400D01*
X152221434Y-39185998D01*
X152426972Y-39100862D01*
X152611951Y-38977263D01*
X152769263Y-38819951D01*
X152892862Y-38634972D01*
X152977998Y-38429434D01*
X153021400Y-38211236D01*
X153021400Y-37988764D01*
X152977998Y-37770566D01*
X152892862Y-37565028D01*
X152769263Y-37380049D01*
X152611951Y-37222737D01*
X152426972Y-37099138D01*
X152221434Y-37014002D01*
X152003236Y-36970600D01*
X151780764Y-36970600D01*
X151562566Y-37014002D01*
X151357028Y-37099138D01*
X151172049Y-37222737D01*
X151014737Y-37380049D01*
X150891138Y-37565028D01*
X150806002Y-37770566D01*
X150762600Y-37988764D01*
X150762600Y-38211236D01*
X150806002Y-38429434D01*
X150880300Y-38608806D01*
X149676781Y-39812326D01*
X149663218Y-39823457D01*
X149618780Y-39877604D01*
X149602270Y-39908492D01*
X149585760Y-39939379D01*
X149565426Y-40006410D01*
X149558561Y-40076120D01*
X149560281Y-40093586D01*
X149560280Y-50422115D01*
X149558561Y-50439570D01*
X149560280Y-50457025D01*
X149560280Y-50457032D01*
X149565426Y-50509279D01*
X149585759Y-50576309D01*
X149618779Y-50638085D01*
X149663217Y-50692232D01*
X149676782Y-50703365D01*
X158203002Y-59229587D01*
X158203002Y-60339788D01*
X158199951Y-60336737D01*
X158014972Y-60213138D01*
X157809434Y-60128002D01*
X157591236Y-60084600D01*
X157368764Y-60084600D01*
X157150566Y-60128002D01*
X156945028Y-60213138D01*
X156760049Y-60336737D01*
X156602737Y-60494049D01*
X156513600Y-60627452D01*
X156513600Y-59958904D01*
X156515068Y-59944000D01*
X156509206Y-59884484D01*
X156491846Y-59827256D01*
X156463655Y-59774513D01*
X156425716Y-59728284D01*
X156379487Y-59690345D01*
X156326744Y-59662154D01*
X156269516Y-59644794D01*
X156224904Y-59640400D01*
X156210000Y-59638932D01*
X156195096Y-59640400D01*
X145553600Y-59640400D01*
X145553600Y-34710000D01*
X150761249Y-34710000D01*
X150761249Y-36410000D01*
X150766644Y-36464772D01*
X150782620Y-36517439D01*
X150808564Y-36565977D01*
X150843479Y-36608521D01*
X150886023Y-36643436D01*
X150934561Y-36669380D01*
X150987228Y-36685356D01*
X151042000Y-36690751D01*
X152742000Y-36690751D01*
X152796772Y-36685356D01*
X152849439Y-36669380D01*
X152897977Y-36643436D01*
X152940521Y-36608521D01*
X152975436Y-36565977D01*
X153001380Y-36517439D01*
X153017356Y-36464772D01*
X153022751Y-36410000D01*
X153022751Y-35498935D01*
X157123070Y-35498935D01*
X157213050Y-35625157D01*
X157392610Y-35701542D01*
X157583621Y-35741428D01*
X157778744Y-35743283D01*
X157970479Y-35707036D01*
X158151459Y-35634079D01*
X158168150Y-35625157D01*
X158258130Y-35498935D01*
X157690600Y-34931405D01*
X157123070Y-35498935D01*
X153022751Y-35498935D01*
X153022751Y-34839944D01*
X156699117Y-34839944D01*
X156735364Y-35031679D01*
X156808321Y-35212659D01*
X156817243Y-35229350D01*
X156943465Y-35319330D01*
X157510995Y-34751800D01*
X156943465Y-34184270D01*
X156817243Y-34274250D01*
X156740858Y-34453810D01*
X156700972Y-34644821D01*
X156699117Y-34839944D01*
X153022751Y-34839944D01*
X153022751Y-34710000D01*
X153017356Y-34655228D01*
X153001380Y-34602561D01*
X152975436Y-34554023D01*
X152940521Y-34511479D01*
X152897977Y-34476564D01*
X152849439Y-34450620D01*
X152796772Y-34434644D01*
X152742000Y-34429249D01*
X151042000Y-34429249D01*
X150987228Y-34434644D01*
X150934561Y-34450620D01*
X150886023Y-34476564D01*
X150843479Y-34511479D01*
X150808564Y-34554023D01*
X150782620Y-34602561D01*
X150766644Y-34655228D01*
X150761249Y-34710000D01*
X145553600Y-34710000D01*
X145553600Y-34004665D01*
X157123070Y-34004665D01*
X157690600Y-34572195D01*
X158258130Y-34004665D01*
X158168150Y-33878443D01*
X157988590Y-33802058D01*
X157797579Y-33762172D01*
X157602456Y-33760317D01*
X157410721Y-33796564D01*
X157229741Y-33869521D01*
X157213050Y-33878443D01*
X157123070Y-34004665D01*
X145553600Y-34004665D01*
X145553600Y-30783600D01*
X180036401Y-30783600D01*
X180036400Y-65736400D01*
%TA.AperFunction,Conductor*%
D17*
G36*
X180036400Y-65736400D02*
G01*
X156513600Y-65736400D01*
X156513600Y-64340548D01*
X156602737Y-64473951D01*
X156760049Y-64631263D01*
X156945028Y-64754862D01*
X157150566Y-64839998D01*
X157368764Y-64883400D01*
X157591236Y-64883400D01*
X157809434Y-64839998D01*
X158014972Y-64754862D01*
X158199951Y-64631263D01*
X158357263Y-64473951D01*
X158480862Y-64288972D01*
X158565998Y-64083434D01*
X158609400Y-63865236D01*
X158609400Y-63642764D01*
X158565998Y-63424566D01*
X158480862Y-63219028D01*
X158450919Y-63174215D01*
X158797705Y-62827429D01*
X158811263Y-62816302D01*
X158822391Y-62802743D01*
X158822396Y-62802738D01*
X158855702Y-62762155D01*
X158888721Y-62700380D01*
X158888722Y-62700379D01*
X158909055Y-62633349D01*
X158914201Y-62581102D01*
X158914201Y-62581094D01*
X158915920Y-62563639D01*
X158914201Y-62546184D01*
X158914201Y-61506994D01*
X158981950Y-61506994D01*
X159059056Y-61703878D01*
X159173091Y-61881936D01*
X159319672Y-62034326D01*
X159493166Y-62155191D01*
X159686906Y-62239886D01*
X159727007Y-62252043D01*
X159893000Y-62227524D01*
X159893000Y-61341000D01*
X159006046Y-61341000D01*
X158981950Y-61506994D01*
X158914201Y-61506994D01*
X158914201Y-60921006D01*
X158981950Y-60921006D01*
X159006046Y-61087000D01*
X159893000Y-61087000D01*
X159893000Y-60200476D01*
X159727007Y-60175957D01*
X159686906Y-60188114D01*
X159493166Y-60272809D01*
X159319672Y-60393674D01*
X159173091Y-60546064D01*
X159059056Y-60724122D01*
X158981950Y-60921006D01*
X158914201Y-60921006D01*
X158914201Y-59099743D01*
X158915920Y-59082290D01*
X158914201Y-59064837D01*
X158914201Y-59064828D01*
X158909055Y-59012581D01*
X158888722Y-58945551D01*
X158855702Y-58883775D01*
X158850445Y-58877369D01*
X158822396Y-58843191D01*
X158822391Y-58843186D01*
X158811264Y-58829628D01*
X158797706Y-58818501D01*
X157768805Y-57789600D01*
X157793169Y-57789600D01*
X157994365Y-57749580D01*
X158183888Y-57671077D01*
X158354454Y-57557108D01*
X158499508Y-57412054D01*
X158613477Y-57241488D01*
X158691980Y-57051965D01*
X158693900Y-57042312D01*
X158695820Y-57051965D01*
X158774323Y-57241488D01*
X158888292Y-57412054D01*
X159033346Y-57557108D01*
X159203912Y-57671077D01*
X159393435Y-57749580D01*
X159594631Y-57789600D01*
X159799769Y-57789600D01*
X160000965Y-57749580D01*
X160190488Y-57671077D01*
X160361054Y-57557108D01*
X160506108Y-57412054D01*
X160620077Y-57241488D01*
X160698580Y-57051965D01*
X160700500Y-57042312D01*
X160702420Y-57051965D01*
X160780923Y-57241488D01*
X160894892Y-57412054D01*
X161039946Y-57557108D01*
X161210512Y-57671077D01*
X161400035Y-57749580D01*
X161601231Y-57789600D01*
X161806369Y-57789600D01*
X162007565Y-57749580D01*
X162197088Y-57671077D01*
X162367654Y-57557108D01*
X162512708Y-57412054D01*
X162626677Y-57241488D01*
X162705180Y-57051965D01*
X162707100Y-57042312D01*
X162709020Y-57051965D01*
X162787523Y-57241488D01*
X162901492Y-57412054D01*
X163046546Y-57557108D01*
X163217112Y-57671077D01*
X163406635Y-57749580D01*
X163607831Y-57789600D01*
X163632195Y-57789600D01*
X160870354Y-60551443D01*
X160866909Y-60546064D01*
X160720328Y-60393674D01*
X160546834Y-60272809D01*
X160353094Y-60188114D01*
X160312993Y-60175957D01*
X160147000Y-60200476D01*
X160147000Y-61087000D01*
X160167000Y-61087000D01*
X160167000Y-61341000D01*
X160147000Y-61341000D01*
X160147000Y-62227524D01*
X160312993Y-62252043D01*
X160353094Y-62239886D01*
X160546834Y-62155191D01*
X160720328Y-62034326D01*
X160743001Y-62010754D01*
X160743001Y-62528104D01*
X160528806Y-62742300D01*
X160349434Y-62668002D01*
X160131236Y-62624600D01*
X159908764Y-62624600D01*
X159690566Y-62668002D01*
X159485028Y-62753138D01*
X159300049Y-62876737D01*
X159142737Y-63034049D01*
X159019138Y-63219028D01*
X158934002Y-63424566D01*
X158890600Y-63642764D01*
X158890600Y-63865236D01*
X158934002Y-64083434D01*
X159019138Y-64288972D01*
X159142737Y-64473951D01*
X159300049Y-64631263D01*
X159485028Y-64754862D01*
X159690566Y-64839998D01*
X159908764Y-64883400D01*
X160131236Y-64883400D01*
X160349434Y-64839998D01*
X160554972Y-64754862D01*
X160739951Y-64631263D01*
X160897263Y-64473951D01*
X161020862Y-64288972D01*
X161105998Y-64083434D01*
X161149400Y-63865236D01*
X161149400Y-63642764D01*
X161430600Y-63642764D01*
X161430600Y-63865236D01*
X161474002Y-64083434D01*
X161559138Y-64288972D01*
X161682737Y-64473951D01*
X161840049Y-64631263D01*
X162025028Y-64754862D01*
X162230566Y-64839998D01*
X162448764Y-64883400D01*
X162671236Y-64883400D01*
X162889434Y-64839998D01*
X163094972Y-64754862D01*
X163279951Y-64631263D01*
X163437263Y-64473951D01*
X163560862Y-64288972D01*
X163645998Y-64083434D01*
X163653246Y-64046994D01*
X164061950Y-64046994D01*
X164139056Y-64243878D01*
X164253091Y-64421936D01*
X164399672Y-64574326D01*
X164573166Y-64695191D01*
X164766906Y-64779886D01*
X164807007Y-64792043D01*
X164973000Y-64767524D01*
X164973000Y-63881000D01*
X165227000Y-63881000D01*
X165227000Y-64767524D01*
X165392993Y-64792043D01*
X165433094Y-64779886D01*
X165626834Y-64695191D01*
X165800328Y-64574326D01*
X165946909Y-64421936D01*
X166060944Y-64243878D01*
X166138050Y-64046994D01*
X166113954Y-63881000D01*
X165227000Y-63881000D01*
X164973000Y-63881000D01*
X164086046Y-63881000D01*
X164061950Y-64046994D01*
X163653246Y-64046994D01*
X163689400Y-63865236D01*
X163689400Y-63642764D01*
X166510600Y-63642764D01*
X166510600Y-63865236D01*
X166554002Y-64083434D01*
X166639138Y-64288972D01*
X166762737Y-64473951D01*
X166920049Y-64631263D01*
X167105028Y-64754862D01*
X167310566Y-64839998D01*
X167528764Y-64883400D01*
X167751236Y-64883400D01*
X167969434Y-64839998D01*
X168174972Y-64754862D01*
X168359951Y-64631263D01*
X168517263Y-64473951D01*
X168640862Y-64288972D01*
X168725998Y-64083434D01*
X168769400Y-63865236D01*
X168769400Y-63642764D01*
X169050600Y-63642764D01*
X169050600Y-63865236D01*
X169094002Y-64083434D01*
X169179138Y-64288972D01*
X169302737Y-64473951D01*
X169460049Y-64631263D01*
X169645028Y-64754862D01*
X169850566Y-64839998D01*
X170068764Y-64883400D01*
X170291236Y-64883400D01*
X170509434Y-64839998D01*
X170714972Y-64754862D01*
X170899951Y-64631263D01*
X171057263Y-64473951D01*
X171180862Y-64288972D01*
X171265998Y-64083434D01*
X171309400Y-63865236D01*
X171309400Y-63642764D01*
X171265998Y-63424566D01*
X171180862Y-63219028D01*
X171057263Y-63034049D01*
X170899951Y-62876737D01*
X170714972Y-62753138D01*
X170509434Y-62668002D01*
X170291236Y-62624600D01*
X170068764Y-62624600D01*
X169850566Y-62668002D01*
X169645028Y-62753138D01*
X169460049Y-62876737D01*
X169302737Y-63034049D01*
X169179138Y-63219028D01*
X169094002Y-63424566D01*
X169050600Y-63642764D01*
X168769400Y-63642764D01*
X168725998Y-63424566D01*
X168640862Y-63219028D01*
X168517263Y-63034049D01*
X168359951Y-62876737D01*
X168174972Y-62753138D01*
X167969434Y-62668002D01*
X167751236Y-62624600D01*
X167528764Y-62624600D01*
X167310566Y-62668002D01*
X167105028Y-62753138D01*
X166920049Y-62876737D01*
X166762737Y-63034049D01*
X166639138Y-63219028D01*
X166554002Y-63424566D01*
X166510600Y-63642764D01*
X163689400Y-63642764D01*
X163653247Y-63461006D01*
X164061950Y-63461006D01*
X164086046Y-63627000D01*
X164973000Y-63627000D01*
X164973000Y-62740476D01*
X165227000Y-62740476D01*
X165227000Y-63627000D01*
X166113954Y-63627000D01*
X166138050Y-63461006D01*
X166060944Y-63264122D01*
X165946909Y-63086064D01*
X165800328Y-62933674D01*
X165626834Y-62812809D01*
X165433094Y-62728114D01*
X165392993Y-62715957D01*
X165227000Y-62740476D01*
X164973000Y-62740476D01*
X164807007Y-62715957D01*
X164766906Y-62728114D01*
X164573166Y-62812809D01*
X164399672Y-62933674D01*
X164253091Y-63086064D01*
X164139056Y-63264122D01*
X164061950Y-63461006D01*
X163653247Y-63461006D01*
X163645998Y-63424566D01*
X163560862Y-63219028D01*
X163437263Y-63034049D01*
X163279951Y-62876737D01*
X163094972Y-62753138D01*
X162889434Y-62668002D01*
X162671236Y-62624600D01*
X162448764Y-62624600D01*
X162230566Y-62668002D01*
X162025028Y-62753138D01*
X161840049Y-62876737D01*
X161682737Y-63034049D01*
X161559138Y-63219028D01*
X161474002Y-63424566D01*
X161430600Y-63642764D01*
X161149400Y-63642764D01*
X161105998Y-63424566D01*
X161031700Y-63245194D01*
X161337711Y-62939184D01*
X161351263Y-62928062D01*
X161362386Y-62914509D01*
X161362396Y-62914499D01*
X161395701Y-62873916D01*
X161395703Y-62873914D01*
X161428722Y-62812139D01*
X161443885Y-62762154D01*
X161449055Y-62745110D01*
X161451926Y-62715957D01*
X161454201Y-62692862D01*
X161454201Y-62692855D01*
X161455920Y-62675400D01*
X161454201Y-62657944D01*
X161454201Y-61443887D01*
X161474002Y-61543434D01*
X161559138Y-61748972D01*
X161682737Y-61933951D01*
X161840049Y-62091263D01*
X162025028Y-62214862D01*
X162230566Y-62299998D01*
X162448764Y-62343400D01*
X162671236Y-62343400D01*
X162889434Y-62299998D01*
X163094972Y-62214862D01*
X163279951Y-62091263D01*
X163437263Y-61933951D01*
X163560862Y-61748972D01*
X163645998Y-61543434D01*
X163689400Y-61325236D01*
X163689400Y-61102764D01*
X163970600Y-61102764D01*
X163970600Y-61325236D01*
X164014002Y-61543434D01*
X164099138Y-61748972D01*
X164222737Y-61933951D01*
X164380049Y-62091263D01*
X164565028Y-62214862D01*
X164770566Y-62299998D01*
X164988764Y-62343400D01*
X165211236Y-62343400D01*
X165429434Y-62299998D01*
X165634972Y-62214862D01*
X165819951Y-62091263D01*
X165977263Y-61933951D01*
X166100862Y-61748972D01*
X166185998Y-61543434D01*
X166229400Y-61325236D01*
X166229400Y-61102764D01*
X166510600Y-61102764D01*
X166510600Y-61325236D01*
X166554002Y-61543434D01*
X166639138Y-61748972D01*
X166762737Y-61933951D01*
X166920049Y-62091263D01*
X167105028Y-62214862D01*
X167310566Y-62299998D01*
X167528764Y-62343400D01*
X167751236Y-62343400D01*
X167969434Y-62299998D01*
X168174972Y-62214862D01*
X168359951Y-62091263D01*
X168517263Y-61933951D01*
X168640862Y-61748972D01*
X168725998Y-61543434D01*
X168769400Y-61325236D01*
X168769400Y-61102764D01*
X168725998Y-60884566D01*
X168640862Y-60679028D01*
X168517263Y-60494049D01*
X168359951Y-60336737D01*
X168174972Y-60213138D01*
X167969434Y-60128002D01*
X167751236Y-60084600D01*
X167528764Y-60084600D01*
X167310566Y-60128002D01*
X167105028Y-60213138D01*
X166920049Y-60336737D01*
X166762737Y-60494049D01*
X166639138Y-60679028D01*
X166554002Y-60884566D01*
X166510600Y-61102764D01*
X166229400Y-61102764D01*
X166185998Y-60884566D01*
X166100862Y-60679028D01*
X165977263Y-60494049D01*
X165819951Y-60336737D01*
X165634972Y-60213138D01*
X165429434Y-60128002D01*
X165211236Y-60084600D01*
X164988764Y-60084600D01*
X164770566Y-60128002D01*
X164565028Y-60213138D01*
X164380049Y-60336737D01*
X164222737Y-60494049D01*
X164099138Y-60679028D01*
X164014002Y-60884566D01*
X163970600Y-61102764D01*
X163689400Y-61102764D01*
X163645998Y-60884566D01*
X163560862Y-60679028D01*
X163437263Y-60494049D01*
X163279951Y-60336737D01*
X163094972Y-60213138D01*
X162889434Y-60128002D01*
X162671236Y-60084600D01*
X162448764Y-60084600D01*
X162316718Y-60110865D01*
X164961811Y-57465773D01*
X165053146Y-57557108D01*
X165223712Y-57671077D01*
X165413235Y-57749580D01*
X165614431Y-57789600D01*
X165819569Y-57789600D01*
X166020765Y-57749580D01*
X166210288Y-57671077D01*
X166380854Y-57557108D01*
X166525908Y-57412054D01*
X166639877Y-57241488D01*
X166718380Y-57051965D01*
X166720300Y-57042312D01*
X166722220Y-57051965D01*
X166800723Y-57241488D01*
X166914692Y-57412054D01*
X167059746Y-57557108D01*
X167230312Y-57671077D01*
X167419835Y-57749580D01*
X167621031Y-57789600D01*
X167826169Y-57789600D01*
X168027365Y-57749580D01*
X168216888Y-57671077D01*
X168387454Y-57557108D01*
X168532508Y-57412054D01*
X168646477Y-57241488D01*
X168724980Y-57051965D01*
X168726900Y-57042312D01*
X168728820Y-57051965D01*
X168807323Y-57241488D01*
X168921292Y-57412054D01*
X169066346Y-57557108D01*
X169236912Y-57671077D01*
X169426435Y-57749580D01*
X169627631Y-57789600D01*
X169832769Y-57789600D01*
X170033965Y-57749580D01*
X170223488Y-57671077D01*
X170394054Y-57557108D01*
X170539108Y-57412054D01*
X170653077Y-57241488D01*
X170731580Y-57051965D01*
X170733500Y-57042312D01*
X170735420Y-57051965D01*
X170813923Y-57241488D01*
X170927892Y-57412054D01*
X171072946Y-57557108D01*
X171243512Y-57671077D01*
X171433035Y-57749580D01*
X171634231Y-57789600D01*
X171839369Y-57789600D01*
X172040565Y-57749580D01*
X172230088Y-57671077D01*
X172400654Y-57557108D01*
X172545708Y-57412054D01*
X172659677Y-57241488D01*
X172738180Y-57051965D01*
X172740100Y-57042312D01*
X172742020Y-57051965D01*
X172820523Y-57241488D01*
X172934492Y-57412054D01*
X173079546Y-57557108D01*
X173250112Y-57671077D01*
X173439635Y-57749580D01*
X173640831Y-57789600D01*
X173845969Y-57789600D01*
X174047165Y-57749580D01*
X174236688Y-57671077D01*
X174407254Y-57557108D01*
X174552308Y-57412054D01*
X174666277Y-57241488D01*
X174744780Y-57051965D01*
X174746700Y-57042312D01*
X174748620Y-57051965D01*
X174827123Y-57241488D01*
X174941092Y-57412054D01*
X175086146Y-57557108D01*
X175256712Y-57671077D01*
X175446235Y-57749580D01*
X175647431Y-57789600D01*
X175852569Y-57789600D01*
X176053765Y-57749580D01*
X176243288Y-57671077D01*
X176413854Y-57557108D01*
X176558908Y-57412054D01*
X176672877Y-57241488D01*
X176751380Y-57051965D01*
X176791400Y-56850769D01*
X176791400Y-56645631D01*
X176751380Y-56444435D01*
X176672877Y-56254912D01*
X176558908Y-56084346D01*
X176413854Y-55939292D01*
X176243288Y-55825323D01*
X176053765Y-55746820D01*
X175852569Y-55706800D01*
X175647431Y-55706800D01*
X175446235Y-55746820D01*
X175256712Y-55825323D01*
X175086146Y-55939292D01*
X174941092Y-56084346D01*
X174827123Y-56254912D01*
X174748620Y-56444435D01*
X174746700Y-56454088D01*
X174744780Y-56444435D01*
X174666277Y-56254912D01*
X174552308Y-56084346D01*
X174407254Y-55939292D01*
X174236688Y-55825323D01*
X174047165Y-55746820D01*
X173845969Y-55706800D01*
X173640831Y-55706800D01*
X173439635Y-55746820D01*
X173250112Y-55825323D01*
X173079546Y-55939292D01*
X172934492Y-56084346D01*
X172820523Y-56254912D01*
X172742020Y-56444435D01*
X172740100Y-56454088D01*
X172738180Y-56444435D01*
X172659677Y-56254912D01*
X172545708Y-56084346D01*
X172400654Y-55939292D01*
X172230088Y-55825323D01*
X172040565Y-55746820D01*
X171839369Y-55706800D01*
X171634231Y-55706800D01*
X171433035Y-55746820D01*
X171243512Y-55825323D01*
X171072946Y-55939292D01*
X170927892Y-56084346D01*
X170813923Y-56254912D01*
X170735420Y-56444435D01*
X170733500Y-56454088D01*
X170731580Y-56444435D01*
X170653077Y-56254912D01*
X170539108Y-56084346D01*
X170394054Y-55939292D01*
X170223488Y-55825323D01*
X170033965Y-55746820D01*
X169832769Y-55706800D01*
X169627631Y-55706800D01*
X169426435Y-55746820D01*
X169236912Y-55825323D01*
X169066346Y-55939292D01*
X168921292Y-56084346D01*
X168807323Y-56254912D01*
X168728820Y-56444435D01*
X168726900Y-56454088D01*
X168724980Y-56444435D01*
X168646477Y-56254912D01*
X168532508Y-56084346D01*
X168387454Y-55939292D01*
X168216888Y-55825323D01*
X168027365Y-55746820D01*
X167826169Y-55706800D01*
X167621031Y-55706800D01*
X167419835Y-55746820D01*
X167230312Y-55825323D01*
X167059746Y-55939292D01*
X166914692Y-56084346D01*
X166800723Y-56254912D01*
X166722220Y-56444435D01*
X166720300Y-56454088D01*
X166718380Y-56444435D01*
X166639877Y-56254912D01*
X166525908Y-56084346D01*
X166380854Y-55939292D01*
X166210288Y-55825323D01*
X166020765Y-55746820D01*
X165819569Y-55706800D01*
X165614431Y-55706800D01*
X165413235Y-55746820D01*
X165223712Y-55825323D01*
X165081999Y-55920013D01*
X165081999Y-43916094D01*
X173301947Y-35696148D01*
X173439635Y-35753180D01*
X173640831Y-35793200D01*
X173845969Y-35793200D01*
X174047165Y-35753180D01*
X174202166Y-35688977D01*
X169847371Y-40043773D01*
X169758490Y-39984385D01*
X169645238Y-39937475D01*
X169525011Y-39913560D01*
X169402429Y-39913560D01*
X169282202Y-39937475D01*
X169168950Y-39984385D01*
X169067027Y-40052488D01*
X168980348Y-40139167D01*
X168912245Y-40241090D01*
X168865335Y-40354342D01*
X168841420Y-40474569D01*
X168841420Y-40597151D01*
X168865335Y-40717378D01*
X168912245Y-40830630D01*
X168980348Y-40932553D01*
X169067027Y-41019232D01*
X169168950Y-41087335D01*
X169282202Y-41134245D01*
X169402429Y-41158160D01*
X169525011Y-41158160D01*
X169645238Y-41134245D01*
X169758490Y-41087335D01*
X169860413Y-41019232D01*
X169911985Y-40967660D01*
X169944730Y-40967660D01*
X169965940Y-40969749D01*
X169987150Y-40967660D01*
X170050588Y-40961412D01*
X170131982Y-40936721D01*
X170206996Y-40896626D01*
X170272746Y-40842666D01*
X170286275Y-40826181D01*
X175384747Y-35727711D01*
X175446235Y-35753180D01*
X175647431Y-35793200D01*
X175852569Y-35793200D01*
X176053765Y-35753180D01*
X176115254Y-35727710D01*
X178521361Y-38133819D01*
X178521360Y-58322422D01*
X176061584Y-60782200D01*
X171310751Y-60782200D01*
X171310751Y-60364000D01*
X171305356Y-60309228D01*
X171289380Y-60256561D01*
X171263436Y-60208023D01*
X171228521Y-60165479D01*
X171185977Y-60130564D01*
X171137439Y-60104620D01*
X171084772Y-60088644D01*
X171030000Y-60083249D01*
X169330000Y-60083249D01*
X169275228Y-60088644D01*
X169222561Y-60104620D01*
X169174023Y-60130564D01*
X169131479Y-60165479D01*
X169096564Y-60208023D01*
X169070620Y-60256561D01*
X169054644Y-60309228D01*
X169049249Y-60364000D01*
X169049249Y-62064000D01*
X169054644Y-62118772D01*
X169070620Y-62171439D01*
X169096564Y-62219977D01*
X169131479Y-62262521D01*
X169174023Y-62297436D01*
X169222561Y-62323380D01*
X169275228Y-62339356D01*
X169330000Y-62344751D01*
X171030000Y-62344751D01*
X171084772Y-62339356D01*
X171137439Y-62323380D01*
X171185977Y-62297436D01*
X171228521Y-62262521D01*
X171263436Y-62219977D01*
X171289380Y-62171439D01*
X171305356Y-62118772D01*
X171310751Y-62064000D01*
X171310751Y-61645800D01*
X176219230Y-61645800D01*
X176240440Y-61647889D01*
X176261650Y-61645800D01*
X176325088Y-61639552D01*
X176406482Y-61614861D01*
X176481496Y-61574766D01*
X176547246Y-61520806D01*
X176560775Y-61504321D01*
X179243493Y-58821605D01*
X179259966Y-58808086D01*
X179313926Y-58742336D01*
X179354021Y-58667322D01*
X179378712Y-58585928D01*
X179384960Y-58522490D01*
X179384960Y-58522484D01*
X179387048Y-58501281D01*
X179384960Y-58480078D01*
X179384960Y-37976162D01*
X179387048Y-37954959D01*
X179384960Y-37933757D01*
X179384960Y-37933750D01*
X179378712Y-37870312D01*
X179354021Y-37788918D01*
X179313926Y-37713904D01*
X179259966Y-37648154D01*
X179243492Y-37634634D01*
X176725910Y-35117054D01*
X176751380Y-35055565D01*
X176791400Y-34854369D01*
X176791400Y-34649231D01*
X176751380Y-34448035D01*
X176672877Y-34258512D01*
X176558908Y-34087946D01*
X176413854Y-33942892D01*
X176243288Y-33828923D01*
X176053765Y-33750420D01*
X175852569Y-33710400D01*
X175647431Y-33710400D01*
X175446235Y-33750420D01*
X175256712Y-33828923D01*
X175086146Y-33942892D01*
X174941092Y-34087946D01*
X174827123Y-34258512D01*
X174748620Y-34448035D01*
X174746700Y-34457688D01*
X174744780Y-34448035D01*
X174666277Y-34258512D01*
X174552308Y-34087946D01*
X174407254Y-33942892D01*
X174236688Y-33828923D01*
X174047165Y-33750420D01*
X173845969Y-33710400D01*
X173640831Y-33710400D01*
X173439635Y-33750420D01*
X173250112Y-33828923D01*
X173079546Y-33942892D01*
X172934492Y-34087946D01*
X172820523Y-34258512D01*
X172742020Y-34448035D01*
X172740100Y-34457688D01*
X172738180Y-34448035D01*
X172659677Y-34258512D01*
X172545708Y-34087946D01*
X172400654Y-33942892D01*
X172230088Y-33828923D01*
X172040565Y-33750420D01*
X171839369Y-33710400D01*
X171634231Y-33710400D01*
X171433035Y-33750420D01*
X171243512Y-33828923D01*
X171072946Y-33942892D01*
X170927892Y-34087946D01*
X170813923Y-34258512D01*
X170735420Y-34448035D01*
X170733500Y-34457688D01*
X170731580Y-34448035D01*
X170653077Y-34258512D01*
X170539108Y-34087946D01*
X170394054Y-33942892D01*
X170223488Y-33828923D01*
X170033965Y-33750420D01*
X169832769Y-33710400D01*
X169627631Y-33710400D01*
X169426435Y-33750420D01*
X169236912Y-33828923D01*
X169066346Y-33942892D01*
X168921292Y-34087946D01*
X168807323Y-34258512D01*
X168728820Y-34448035D01*
X168726900Y-34457688D01*
X168724980Y-34448035D01*
X168646477Y-34258512D01*
X168532508Y-34087946D01*
X168387454Y-33942892D01*
X168216888Y-33828923D01*
X168027365Y-33750420D01*
X167826169Y-33710400D01*
X167621031Y-33710400D01*
X167419835Y-33750420D01*
X167230312Y-33828923D01*
X167059746Y-33942892D01*
X166914692Y-34087946D01*
X166800723Y-34258512D01*
X166722220Y-34448035D01*
X166720300Y-34457688D01*
X166718380Y-34448035D01*
X166639877Y-34258512D01*
X166525908Y-34087946D01*
X166380854Y-33942892D01*
X166210288Y-33828923D01*
X166020765Y-33750420D01*
X165819569Y-33710400D01*
X165614431Y-33710400D01*
X165413235Y-33750420D01*
X165223712Y-33828923D01*
X165053146Y-33942892D01*
X164908092Y-34087946D01*
X164794123Y-34258512D01*
X164715620Y-34448035D01*
X164713700Y-34457688D01*
X164711780Y-34448035D01*
X164633277Y-34258512D01*
X164519308Y-34087946D01*
X164374254Y-33942892D01*
X164203688Y-33828923D01*
X164014165Y-33750420D01*
X163812969Y-33710400D01*
X163607831Y-33710400D01*
X163406635Y-33750420D01*
X163217112Y-33828923D01*
X163046546Y-33942892D01*
X162901492Y-34087946D01*
X162787523Y-34258512D01*
X162709020Y-34448035D01*
X162707100Y-34457688D01*
X162705180Y-34448035D01*
X162626677Y-34258512D01*
X162512708Y-34087946D01*
X162367654Y-33942892D01*
X162197088Y-33828923D01*
X162007565Y-33750420D01*
X161806369Y-33710400D01*
X161601231Y-33710400D01*
X161400035Y-33750420D01*
X161210512Y-33828923D01*
X161039946Y-33942892D01*
X160894892Y-34087946D01*
X160780923Y-34258512D01*
X160702420Y-34448035D01*
X160700500Y-34457688D01*
X160698580Y-34448035D01*
X160620077Y-34258512D01*
X160506108Y-34087946D01*
X160361054Y-33942892D01*
X160190488Y-33828923D01*
X160000965Y-33750420D01*
X159799769Y-33710400D01*
X159594631Y-33710400D01*
X159393435Y-33750420D01*
X159203912Y-33828923D01*
X159033346Y-33942892D01*
X158888292Y-34087946D01*
X158774323Y-34258512D01*
X158695820Y-34448035D01*
X158667877Y-34588513D01*
X158645836Y-34471921D01*
X158572879Y-34290941D01*
X158563957Y-34274250D01*
X158437735Y-34184270D01*
X157870205Y-34751800D01*
X158437735Y-35319330D01*
X158563957Y-35229350D01*
X158640342Y-35049790D01*
X158668167Y-34916540D01*
X158695820Y-35055565D01*
X158774323Y-35245088D01*
X158888292Y-35415654D01*
X159033346Y-35560708D01*
X159203912Y-35674677D01*
X159393435Y-35753180D01*
X159594631Y-35793200D01*
X159799769Y-35793200D01*
X160000965Y-35753180D01*
X160190488Y-35674677D01*
X160361054Y-35560708D01*
X160506108Y-35415654D01*
X160620077Y-35245088D01*
X160698580Y-35055565D01*
X160700500Y-35045912D01*
X160702420Y-35055565D01*
X160780923Y-35245088D01*
X160894892Y-35415654D01*
X161039946Y-35560708D01*
X161210512Y-35674677D01*
X161400035Y-35753180D01*
X161601231Y-35793200D01*
X161806369Y-35793200D01*
X162007565Y-35753180D01*
X162197088Y-35674677D01*
X162367654Y-35560708D01*
X162512708Y-35415654D01*
X162626677Y-35245088D01*
X162705180Y-35055565D01*
X162707100Y-35045912D01*
X162709020Y-35055565D01*
X162787523Y-35245088D01*
X162901492Y-35415654D01*
X163046546Y-35560708D01*
X163217112Y-35674677D01*
X163406635Y-35753180D01*
X163607831Y-35793200D01*
X163812969Y-35793200D01*
X164014165Y-35753180D01*
X164203688Y-35674677D01*
X164374254Y-35560708D01*
X164519308Y-35415654D01*
X164633277Y-35245088D01*
X164711780Y-35055565D01*
X164713700Y-35045912D01*
X164715620Y-35055565D01*
X164794123Y-35245088D01*
X164908092Y-35415654D01*
X165053146Y-35560708D01*
X165223712Y-35674677D01*
X165413235Y-35753180D01*
X165614431Y-35793200D01*
X165819569Y-35793200D01*
X166020765Y-35753180D01*
X166210288Y-35674677D01*
X166380854Y-35560708D01*
X166525908Y-35415654D01*
X166639877Y-35245088D01*
X166718380Y-35055565D01*
X166720300Y-35045912D01*
X166722220Y-35055565D01*
X166800723Y-35245088D01*
X166914692Y-35415654D01*
X167059746Y-35560708D01*
X167230312Y-35674677D01*
X167419835Y-35753180D01*
X167621031Y-35793200D01*
X167826169Y-35793200D01*
X168027365Y-35753180D01*
X168216888Y-35674677D01*
X168387454Y-35560708D01*
X168532508Y-35415654D01*
X168646477Y-35245088D01*
X168724980Y-35055565D01*
X168726900Y-35045912D01*
X168728820Y-35055565D01*
X168807323Y-35245088D01*
X168921292Y-35415654D01*
X169066346Y-35560708D01*
X169236912Y-35674677D01*
X169426435Y-35753180D01*
X169627631Y-35793200D01*
X169832769Y-35793200D01*
X170033965Y-35753180D01*
X170223488Y-35674677D01*
X170394054Y-35560708D01*
X170539108Y-35415654D01*
X170653077Y-35245088D01*
X170731580Y-35055565D01*
X170733500Y-35045912D01*
X170735420Y-35055565D01*
X170813923Y-35245088D01*
X170927892Y-35415654D01*
X171072946Y-35560708D01*
X171243512Y-35674677D01*
X171433035Y-35753180D01*
X171634231Y-35793200D01*
X171839369Y-35793200D01*
X172040565Y-35753180D01*
X172230088Y-35674677D01*
X172400654Y-35560708D01*
X172545708Y-35415654D01*
X172659677Y-35245088D01*
X172738180Y-35055565D01*
X172740100Y-35045912D01*
X172742020Y-35055565D01*
X172799052Y-35193253D01*
X164487300Y-43505007D01*
X164473737Y-43516138D01*
X164429299Y-43570285D01*
X164412789Y-43601173D01*
X164396279Y-43632060D01*
X164375945Y-43699091D01*
X164369080Y-43768801D01*
X164370800Y-43786267D01*
X164370799Y-55936983D01*
X164203688Y-55825323D01*
X164014165Y-55746820D01*
X163812969Y-55706800D01*
X163607831Y-55706800D01*
X163406635Y-55746820D01*
X163217112Y-55825323D01*
X163046546Y-55939292D01*
X162901492Y-56084346D01*
X162787523Y-56254912D01*
X162709020Y-56444435D01*
X162707100Y-56454088D01*
X162705180Y-56444435D01*
X162626677Y-56254912D01*
X162512708Y-56084346D01*
X162367654Y-55939292D01*
X162197088Y-55825323D01*
X162007565Y-55746820D01*
X161806369Y-55706800D01*
X161601231Y-55706800D01*
X161400035Y-55746820D01*
X161210512Y-55825323D01*
X161039946Y-55939292D01*
X160894892Y-56084346D01*
X160780923Y-56254912D01*
X160702420Y-56444435D01*
X160700500Y-56454088D01*
X160698580Y-56444435D01*
X160620077Y-56254912D01*
X160506108Y-56084346D01*
X160361054Y-55939292D01*
X160190488Y-55825323D01*
X160000965Y-55746820D01*
X159799769Y-55706800D01*
X159594631Y-55706800D01*
X159393435Y-55746820D01*
X159203912Y-55825323D01*
X159033346Y-55939292D01*
X158888292Y-56084346D01*
X158774323Y-56254912D01*
X158695820Y-56444435D01*
X158693900Y-56454088D01*
X158691980Y-56444435D01*
X158613477Y-56254912D01*
X158499508Y-56084346D01*
X158354454Y-55939292D01*
X158183888Y-55825323D01*
X157994365Y-55746820D01*
X157793169Y-55706800D01*
X157588031Y-55706800D01*
X157386835Y-55746820D01*
X157197312Y-55825323D01*
X157026746Y-55939292D01*
X156881692Y-56084346D01*
X156767723Y-56254912D01*
X156689220Y-56444435D01*
X156649200Y-56645631D01*
X156649200Y-56669996D01*
X150271480Y-50292277D01*
X150271480Y-40223413D01*
X151383194Y-39111700D01*
X151562566Y-39185998D01*
X151780764Y-39229400D01*
X152003236Y-39229400D01*
X152221434Y-39185998D01*
X152426972Y-39100862D01*
X152611951Y-38977263D01*
X152769263Y-38819951D01*
X152892862Y-38634972D01*
X152977998Y-38429434D01*
X153021400Y-38211236D01*
X153021400Y-37988764D01*
X152977998Y-37770566D01*
X152892862Y-37565028D01*
X152769263Y-37380049D01*
X152611951Y-37222737D01*
X152426972Y-37099138D01*
X152221434Y-37014002D01*
X152003236Y-36970600D01*
X151780764Y-36970600D01*
X151562566Y-37014002D01*
X151357028Y-37099138D01*
X151172049Y-37222737D01*
X151014737Y-37380049D01*
X150891138Y-37565028D01*
X150806002Y-37770566D01*
X150762600Y-37988764D01*
X150762600Y-38211236D01*
X150806002Y-38429434D01*
X150880300Y-38608806D01*
X149676781Y-39812326D01*
X149663218Y-39823457D01*
X149618780Y-39877604D01*
X149602270Y-39908492D01*
X149585760Y-39939379D01*
X149565426Y-40006410D01*
X149558561Y-40076120D01*
X149560281Y-40093586D01*
X149560280Y-50422115D01*
X149558561Y-50439570D01*
X149560280Y-50457025D01*
X149560280Y-50457032D01*
X149565426Y-50509279D01*
X149585759Y-50576309D01*
X149618779Y-50638085D01*
X149663217Y-50692232D01*
X149676782Y-50703365D01*
X158203002Y-59229587D01*
X158203002Y-60339788D01*
X158199951Y-60336737D01*
X158014972Y-60213138D01*
X157809434Y-60128002D01*
X157591236Y-60084600D01*
X157368764Y-60084600D01*
X157150566Y-60128002D01*
X156945028Y-60213138D01*
X156760049Y-60336737D01*
X156602737Y-60494049D01*
X156513600Y-60627452D01*
X156513600Y-59958904D01*
X156515068Y-59944000D01*
X156509206Y-59884484D01*
X156491846Y-59827256D01*
X156463655Y-59774513D01*
X156425716Y-59728284D01*
X156379487Y-59690345D01*
X156326744Y-59662154D01*
X156269516Y-59644794D01*
X156224904Y-59640400D01*
X156210000Y-59638932D01*
X156195096Y-59640400D01*
X145553600Y-59640400D01*
X145553600Y-34710000D01*
X150761249Y-34710000D01*
X150761249Y-36410000D01*
X150766644Y-36464772D01*
X150782620Y-36517439D01*
X150808564Y-36565977D01*
X150843479Y-36608521D01*
X150886023Y-36643436D01*
X150934561Y-36669380D01*
X150987228Y-36685356D01*
X151042000Y-36690751D01*
X152742000Y-36690751D01*
X152796772Y-36685356D01*
X152849439Y-36669380D01*
X152897977Y-36643436D01*
X152940521Y-36608521D01*
X152975436Y-36565977D01*
X153001380Y-36517439D01*
X153017356Y-36464772D01*
X153022751Y-36410000D01*
X153022751Y-35498935D01*
X157123070Y-35498935D01*
X157213050Y-35625157D01*
X157392610Y-35701542D01*
X157583621Y-35741428D01*
X157778744Y-35743283D01*
X157970479Y-35707036D01*
X158151459Y-35634079D01*
X158168150Y-35625157D01*
X158258130Y-35498935D01*
X157690600Y-34931405D01*
X157123070Y-35498935D01*
X153022751Y-35498935D01*
X153022751Y-34839944D01*
X156699117Y-34839944D01*
X156735364Y-35031679D01*
X156808321Y-35212659D01*
X156817243Y-35229350D01*
X156943465Y-35319330D01*
X157510995Y-34751800D01*
X156943465Y-34184270D01*
X156817243Y-34274250D01*
X156740858Y-34453810D01*
X156700972Y-34644821D01*
X156699117Y-34839944D01*
X153022751Y-34839944D01*
X153022751Y-34710000D01*
X153017356Y-34655228D01*
X153001380Y-34602561D01*
X152975436Y-34554023D01*
X152940521Y-34511479D01*
X152897977Y-34476564D01*
X152849439Y-34450620D01*
X152796772Y-34434644D01*
X152742000Y-34429249D01*
X151042000Y-34429249D01*
X150987228Y-34434644D01*
X150934561Y-34450620D01*
X150886023Y-34476564D01*
X150843479Y-34511479D01*
X150808564Y-34554023D01*
X150782620Y-34602561D01*
X150766644Y-34655228D01*
X150761249Y-34710000D01*
X145553600Y-34710000D01*
X145553600Y-34004665D01*
X157123070Y-34004665D01*
X157690600Y-34572195D01*
X158258130Y-34004665D01*
X158168150Y-33878443D01*
X157988590Y-33802058D01*
X157797579Y-33762172D01*
X157602456Y-33760317D01*
X157410721Y-33796564D01*
X157229741Y-33869521D01*
X157213050Y-33878443D01*
X157123070Y-34004665D01*
X145553600Y-34004665D01*
X145553600Y-30783600D01*
X180036401Y-30783600D01*
X180036400Y-65736400D01*
G37*
%TD.AperFunction*%
%TD*%
M02*
