M48
;DRILL file {KiCad 4.0.0-rc1-stable} date 15/08/2017 21:28:00
;FORMAT={2:4/ absolute / inch / suppress leading zeros}
FMAT,2
INCH,TZ
T1C0.013
T2C0.030
T3C0.039
%
G90
G05
M72
T1
X65984Y-16339
X66024Y-17047
X66181Y-15669
X66732Y-15039
X66732Y-15984
X66772Y-16693
X67165Y-15394
X67402Y-14409
X67795Y-14803
T2
X62181Y-13682
X62181Y-22342
X62971Y-13682
X62971Y-22342
X63761Y-13682
X63761Y-22342
X64551Y-13682
X64551Y-22342
X65341Y-13682
X65341Y-22342
X66131Y-13682
X66131Y-22342
X66921Y-13682
X66921Y-22342
X67711Y-13682
X67711Y-22342
X68501Y-13682
X68501Y-22342
X69291Y-13682
X69291Y-22342
T3
X62500Y-17600
X62500Y-18600
X63500Y-17600
X63500Y-18600
X64500Y-17600
X64500Y-18600
X65500Y-17600
X65500Y-18600
X66500Y-17600
X66500Y-18600
X67500Y-17600
X67500Y-18600
T0
M30
