G04 #@! TF.FileFunction,Legend,Top*
%FSLAX46Y46*%
G04 Gerber Fmt 4.6, Leading zero omitted, Abs format (unit mm)*
G04 Created by KiCad (PCBNEW 4.0.0-rc1-stable) date 15/08/2017 21:27:56*
%MOMM*%
G01*
G04 APERTURE LIST*
%ADD10C,0.076200*%
%ADD11C,0.150000*%
%ADD12C,0.762000*%
G04 APERTURE END LIST*
D10*
D11*
X175009400Y-33558000D02*
X175009400Y-35818600D01*
X175009400Y-35818600D02*
X177066800Y-35818600D01*
X177066800Y-35818600D02*
X177066800Y-33964400D01*
X176685800Y-33558000D02*
X155730800Y-33558000D01*
X155730800Y-33558000D02*
X155730800Y-57942000D01*
X155730800Y-57942000D02*
X176685800Y-57942000D01*
X158202381Y-54511905D02*
X157202381Y-54511905D01*
X157678571Y-54511905D02*
X157678571Y-53940476D01*
X158202381Y-53940476D02*
X157202381Y-53940476D01*
X158202381Y-52940476D02*
X158202381Y-53511905D01*
X158202381Y-53226191D02*
X157202381Y-53226191D01*
X157345238Y-53321429D01*
X157440476Y-53416667D01*
X157488095Y-53511905D01*
D12*
X163999105Y-55118668D02*
X169587105Y-52091835D01*
X163999105Y-51393335D02*
X169587105Y-55817168D01*
X166660057Y-47734525D02*
X166926152Y-46969501D01*
X167192248Y-46736668D01*
X167724438Y-46537097D01*
X168522724Y-46636882D01*
X169054914Y-46969501D01*
X169321010Y-47268858D01*
X169587105Y-47834311D01*
X169587105Y-49963073D01*
X163999105Y-49264573D01*
X163999105Y-47401906D01*
X164265200Y-46902978D01*
X164531295Y-46670144D01*
X165063486Y-46470573D01*
X165595676Y-46537096D01*
X166127867Y-46869715D01*
X166393962Y-47169073D01*
X166660057Y-47734525D01*
X166660057Y-49597192D01*
X169321010Y-42213049D02*
X169587105Y-42778501D01*
X169587105Y-43842882D01*
X169321010Y-44341811D01*
X168788819Y-44541382D01*
X166660057Y-44275287D01*
X166127867Y-43942668D01*
X165861771Y-43377215D01*
X165861771Y-42312834D01*
X166127867Y-41813906D01*
X166660057Y-41614335D01*
X167192248Y-41680859D01*
X167724438Y-44408335D01*
X169321010Y-37423335D02*
X169587105Y-37988787D01*
X169587105Y-39053168D01*
X169321010Y-39552097D01*
X168788819Y-39751668D01*
X166660057Y-39485573D01*
X166127867Y-39152954D01*
X165861771Y-38587501D01*
X165861771Y-37523120D01*
X166127867Y-37024192D01*
X166660057Y-36824621D01*
X167192248Y-36891145D01*
X167724438Y-39618621D01*
M02*
