%TF.GenerationSoftware,KiCad,Pcbnew,(5.1.10)-1*%
%TF.CreationDate,2021-09-03T10:18:15+02:00*%
%TF.ProjectId,Rpi_Adapter,5270695f-4164-4617-9074-65722e6b6963,2L_3*%
%TF.SameCoordinates,Original*%
%TF.FileFunction,Paste,Top*%
%TF.FilePolarity,Positive*%
%FSLAX46Y46*%
G04 Gerber Fmt 4.6, Leading zero omitted, Abs format (unit mm)*
G04 Created by KiCad (PCBNEW (5.1.10)-1) date 2021-09-03 10:18:15*
%MOMM*%
%LPD*%
G01*
G04 APERTURE LIST*
%ADD10R,0.550000X1.000000*%
%ADD11R,0.950000X1.000000*%
G04 APERTURE END LIST*
D10*
%TO.C,U1*%
X167830540Y-40497240D03*
X165930540Y-40497240D03*
X165930540Y-38297240D03*
D11*
X167630540Y-38297240D03*
%TD*%
%TO.C,C1*%
G36*
G01*
X174302000Y-31783000D02*
X174302000Y-32733000D01*
G75*
G02*
X174052000Y-32983000I-250000J0D01*
G01*
X173552000Y-32983000D01*
G75*
G02*
X173302000Y-32733000I0J250000D01*
G01*
X173302000Y-31783000D01*
G75*
G02*
X173552000Y-31533000I250000J0D01*
G01*
X174052000Y-31533000D01*
G75*
G02*
X174302000Y-31783000I0J-250000D01*
G01*
G37*
G36*
G01*
X176202000Y-31783000D02*
X176202000Y-32733000D01*
G75*
G02*
X175952000Y-32983000I-250000J0D01*
G01*
X175452000Y-32983000D01*
G75*
G02*
X175202000Y-32733000I0J250000D01*
G01*
X175202000Y-31783000D01*
G75*
G02*
X175452000Y-31533000I250000J0D01*
G01*
X175952000Y-31533000D01*
G75*
G02*
X176202000Y-31783000I0J-250000D01*
G01*
G37*
%TD*%
%TO.C,R4*%
G36*
G01*
X158858000Y-43999998D02*
X158858000Y-44900002D01*
G75*
G02*
X158608002Y-45150000I-249998J0D01*
G01*
X158082998Y-45150000D01*
G75*
G02*
X157833000Y-44900002I0J249998D01*
G01*
X157833000Y-43999998D01*
G75*
G02*
X158082998Y-43750000I249998J0D01*
G01*
X158608002Y-43750000D01*
G75*
G02*
X158858000Y-43999998I0J-249998D01*
G01*
G37*
G36*
G01*
X160683000Y-43999998D02*
X160683000Y-44900002D01*
G75*
G02*
X160433002Y-45150000I-249998J0D01*
G01*
X159907998Y-45150000D01*
G75*
G02*
X159658000Y-44900002I0J249998D01*
G01*
X159658000Y-43999998D01*
G75*
G02*
X159907998Y-43750000I249998J0D01*
G01*
X160433002Y-43750000D01*
G75*
G02*
X160683000Y-43999998I0J-249998D01*
G01*
G37*
%TD*%
%TO.C,R3*%
G36*
G01*
X158858000Y-50095998D02*
X158858000Y-50996002D01*
G75*
G02*
X158608002Y-51246000I-249998J0D01*
G01*
X158082998Y-51246000D01*
G75*
G02*
X157833000Y-50996002I0J249998D01*
G01*
X157833000Y-50095998D01*
G75*
G02*
X158082998Y-49846000I249998J0D01*
G01*
X158608002Y-49846000D01*
G75*
G02*
X158858000Y-50095998I0J-249998D01*
G01*
G37*
G36*
G01*
X160683000Y-50095998D02*
X160683000Y-50996002D01*
G75*
G02*
X160433002Y-51246000I-249998J0D01*
G01*
X159907998Y-51246000D01*
G75*
G02*
X159658000Y-50996002I0J249998D01*
G01*
X159658000Y-50095998D01*
G75*
G02*
X159907998Y-49846000I249998J0D01*
G01*
X160433002Y-49846000D01*
G75*
G02*
X160683000Y-50095998I0J-249998D01*
G01*
G37*
%TD*%
%TO.C,R2*%
G36*
G01*
X162825480Y-37769378D02*
X162825480Y-38669382D01*
G75*
G02*
X162575482Y-38919380I-249998J0D01*
G01*
X162050478Y-38919380D01*
G75*
G02*
X161800480Y-38669382I0J249998D01*
G01*
X161800480Y-37769378D01*
G75*
G02*
X162050478Y-37519380I249998J0D01*
G01*
X162575482Y-37519380D01*
G75*
G02*
X162825480Y-37769378I0J-249998D01*
G01*
G37*
G36*
G01*
X164650480Y-37769378D02*
X164650480Y-38669382D01*
G75*
G02*
X164400482Y-38919380I-249998J0D01*
G01*
X163875478Y-38919380D01*
G75*
G02*
X163625480Y-38669382I0J249998D01*
G01*
X163625480Y-37769378D01*
G75*
G02*
X163875478Y-37519380I249998J0D01*
G01*
X164400482Y-37519380D01*
G75*
G02*
X164650480Y-37769378I0J-249998D01*
G01*
G37*
%TD*%
%TO.C,R1*%
G36*
G01*
X158375300Y-37584802D02*
X158375300Y-36684798D01*
G75*
G02*
X158625298Y-36434800I249998J0D01*
G01*
X159150302Y-36434800D01*
G75*
G02*
X159400300Y-36684798I0J-249998D01*
G01*
X159400300Y-37584802D01*
G75*
G02*
X159150302Y-37834800I-249998J0D01*
G01*
X158625298Y-37834800D01*
G75*
G02*
X158375300Y-37584802I0J249998D01*
G01*
G37*
G36*
G01*
X156550300Y-37584802D02*
X156550300Y-36684798D01*
G75*
G02*
X156800298Y-36434800I249998J0D01*
G01*
X157325302Y-36434800D01*
G75*
G02*
X157575300Y-36684798I0J-249998D01*
G01*
X157575300Y-37584802D01*
G75*
G02*
X157325302Y-37834800I-249998J0D01*
G01*
X156800298Y-37834800D01*
G75*
G02*
X156550300Y-37584802I0J249998D01*
G01*
G37*
%TD*%
%TO.C,D2*%
G36*
G01*
X153358000Y-44906250D02*
X153358000Y-43993750D01*
G75*
G02*
X153601750Y-43750000I243750J0D01*
G01*
X154089250Y-43750000D01*
G75*
G02*
X154333000Y-43993750I0J-243750D01*
G01*
X154333000Y-44906250D01*
G75*
G02*
X154089250Y-45150000I-243750J0D01*
G01*
X153601750Y-45150000D01*
G75*
G02*
X153358000Y-44906250I0J243750D01*
G01*
G37*
G36*
G01*
X151483000Y-44906250D02*
X151483000Y-43993750D01*
G75*
G02*
X151726750Y-43750000I243750J0D01*
G01*
X152214250Y-43750000D01*
G75*
G02*
X152458000Y-43993750I0J-243750D01*
G01*
X152458000Y-44906250D01*
G75*
G02*
X152214250Y-45150000I-243750J0D01*
G01*
X151726750Y-45150000D01*
G75*
G02*
X151483000Y-44906250I0J243750D01*
G01*
G37*
%TD*%
%TO.C,D1*%
G36*
G01*
X153358000Y-51002250D02*
X153358000Y-50089750D01*
G75*
G02*
X153601750Y-49846000I243750J0D01*
G01*
X154089250Y-49846000D01*
G75*
G02*
X154333000Y-50089750I0J-243750D01*
G01*
X154333000Y-51002250D01*
G75*
G02*
X154089250Y-51246000I-243750J0D01*
G01*
X153601750Y-51246000D01*
G75*
G02*
X153358000Y-51002250I0J243750D01*
G01*
G37*
G36*
G01*
X151483000Y-51002250D02*
X151483000Y-50089750D01*
G75*
G02*
X151726750Y-49846000I243750J0D01*
G01*
X152214250Y-49846000D01*
G75*
G02*
X152458000Y-50089750I0J-243750D01*
G01*
X152458000Y-51002250D01*
G75*
G02*
X152214250Y-51246000I-243750J0D01*
G01*
X151726750Y-51246000D01*
G75*
G02*
X151483000Y-51002250I0J243750D01*
G01*
G37*
%TD*%
M02*
