%TF.GenerationSoftware,KiCad,Pcbnew,(5.1.10)-1*%
%TF.CreationDate,2021-09-03T10:18:15+02:00*%
%TF.ProjectId,Rpi_Adapter,5270695f-4164-4617-9074-65722e6b6963,2L_3*%
%TF.SameCoordinates,Original*%
%TF.FileFunction,Copper,L1,Top*%
%TF.FilePolarity,Positive*%
%FSLAX46Y46*%
G04 Gerber Fmt 4.6, Leading zero omitted, Abs format (unit mm)*
G04 Created by KiCad (PCBNEW (5.1.10)-1) date 2021-09-03 10:18:15*
%MOMM*%
%LPD*%
G01*
G04 APERTURE LIST*
%TA.AperFunction,EtchedComponent*%
%ADD10C,0.076200*%
%TD*%
%TA.AperFunction,SMDPad,CuDef*%
%ADD11R,0.550000X1.000000*%
%TD*%
%TA.AperFunction,SMDPad,CuDef*%
%ADD12R,0.950000X1.000000*%
%TD*%
%TA.AperFunction,ComponentPad*%
%ADD13C,1.524000*%
%TD*%
%TA.AperFunction,ComponentPad*%
%ADD14O,1.700000X1.700000*%
%TD*%
%TA.AperFunction,ComponentPad*%
%ADD15R,1.700000X1.700000*%
%TD*%
%TA.AperFunction,SMDPad,CuDef*%
%ADD16C,0.076200*%
%TD*%
%TA.AperFunction,ViaPad*%
%ADD17C,0.685800*%
%TD*%
%TA.AperFunction,Conductor*%
%ADD18C,0.304800*%
%TD*%
%TA.AperFunction,Conductor*%
%ADD19C,0.152400*%
%TD*%
%TA.AperFunction,Conductor*%
%ADD20C,0.254000*%
%TD*%
%TA.AperFunction,Conductor*%
%ADD21C,0.076200*%
%TD*%
G04 APERTURE END LIST*
D10*
%TO.C,JP2*%
G36*
X159008000Y-47544000D02*
G01*
X159508000Y-47544000D01*
X159508000Y-46944000D01*
X159008000Y-46944000D01*
X159008000Y-47544000D01*
G37*
%TO.C,JP1*%
G36*
X159008000Y-41702000D02*
G01*
X159508000Y-41702000D01*
X159508000Y-41102000D01*
X159008000Y-41102000D01*
X159008000Y-41702000D01*
G37*
%TD*%
D11*
%TO.P,U1,4*%
%TO.N,/3V3*%
X167830540Y-40497240D03*
%TO.P,U1,3*%
%TO.N,/GPIO_18*%
X165930540Y-40497240D03*
%TO.P,U1,2*%
%TO.N,/~RESET*%
X165930540Y-38297240D03*
D12*
%TO.P,U1,1*%
%TO.N,GND*%
X167630540Y-38297240D03*
%TD*%
D13*
%TO.P,H1,20*%
%TO.N,N/C*%
X175750000Y-56748200D03*
%TO.P,H1,19*%
X173743400Y-56748200D03*
%TO.P,H1,18*%
X171736800Y-56748200D03*
%TO.P,H1,17*%
X169730200Y-56748200D03*
%TO.P,H1,16*%
X167723600Y-56748200D03*
%TO.P,H1,15*%
%TO.N,Net-(H1-Pad15)*%
X165717000Y-56748200D03*
%TO.P,H1,14*%
%TO.N,N/C*%
X163710400Y-56748200D03*
%TO.P,H1,13*%
%TO.N,Net-(H1-Pad13)*%
X161703800Y-56748200D03*
%TO.P,H1,12*%
%TO.N,N/C*%
X159697200Y-56748200D03*
%TO.P,H1,11*%
X157690600Y-56748200D03*
%TO.P,H1,10*%
%TO.N,GND*%
X157690600Y-34751800D03*
%TO.P,H1,9*%
%TO.N,N/C*%
X159697200Y-34751800D03*
%TO.P,H1,8*%
X161703800Y-34751800D03*
%TO.P,H1,7*%
X163710400Y-34751800D03*
%TO.P,H1,6*%
X165717000Y-34751800D03*
%TO.P,H1,5*%
%TO.N,/~RESET*%
X167723600Y-34751800D03*
%TO.P,H1,4*%
%TO.N,N/C*%
X169730200Y-34751800D03*
%TO.P,H1,3*%
%TO.N,/UART0_Tx*%
X171736800Y-34751800D03*
%TO.P,H1,2*%
%TO.N,/UART0_Rx*%
X173743400Y-34751800D03*
%TO.P,H1,1*%
%TO.N,/3V3*%
X175750000Y-34751800D03*
%TD*%
D14*
%TO.P,SW1,2*%
%TO.N,/GPIO_18*%
X151892000Y-38100000D03*
D15*
%TO.P,SW1,1*%
%TO.N,Net-(R1-Pad1)*%
X151892000Y-35560000D03*
%TD*%
%TO.P,C1,2*%
%TO.N,GND*%
%TA.AperFunction,SMDPad,CuDef*%
G36*
G01*
X174302000Y-31783000D02*
X174302000Y-32733000D01*
G75*
G02*
X174052000Y-32983000I-250000J0D01*
G01*
X173552000Y-32983000D01*
G75*
G02*
X173302000Y-32733000I0J250000D01*
G01*
X173302000Y-31783000D01*
G75*
G02*
X173552000Y-31533000I250000J0D01*
G01*
X174052000Y-31533000D01*
G75*
G02*
X174302000Y-31783000I0J-250000D01*
G01*
G37*
%TD.AperFunction*%
%TO.P,C1,1*%
%TO.N,/3V3*%
%TA.AperFunction,SMDPad,CuDef*%
G36*
G01*
X176202000Y-31783000D02*
X176202000Y-32733000D01*
G75*
G02*
X175952000Y-32983000I-250000J0D01*
G01*
X175452000Y-32983000D01*
G75*
G02*
X175202000Y-32733000I0J250000D01*
G01*
X175202000Y-31783000D01*
G75*
G02*
X175452000Y-31533000I250000J0D01*
G01*
X175952000Y-31533000D01*
G75*
G02*
X176202000Y-31783000I0J-250000D01*
G01*
G37*
%TD.AperFunction*%
%TD*%
%TO.P,R4,2*%
%TO.N,Net-(D2-Pad2)*%
%TA.AperFunction,SMDPad,CuDef*%
G36*
G01*
X158858000Y-43999998D02*
X158858000Y-44900002D01*
G75*
G02*
X158608002Y-45150000I-249998J0D01*
G01*
X158082998Y-45150000D01*
G75*
G02*
X157833000Y-44900002I0J249998D01*
G01*
X157833000Y-43999998D01*
G75*
G02*
X158082998Y-43750000I249998J0D01*
G01*
X158608002Y-43750000D01*
G75*
G02*
X158858000Y-43999998I0J-249998D01*
G01*
G37*
%TD.AperFunction*%
%TO.P,R4,1*%
%TO.N,Net-(JP1-Pad2)*%
%TA.AperFunction,SMDPad,CuDef*%
G36*
G01*
X160683000Y-43999998D02*
X160683000Y-44900002D01*
G75*
G02*
X160433002Y-45150000I-249998J0D01*
G01*
X159907998Y-45150000D01*
G75*
G02*
X159658000Y-44900002I0J249998D01*
G01*
X159658000Y-43999998D01*
G75*
G02*
X159907998Y-43750000I249998J0D01*
G01*
X160433002Y-43750000D01*
G75*
G02*
X160683000Y-43999998I0J-249998D01*
G01*
G37*
%TD.AperFunction*%
%TD*%
%TO.P,R3,2*%
%TO.N,Net-(D1-Pad2)*%
%TA.AperFunction,SMDPad,CuDef*%
G36*
G01*
X158858000Y-50095998D02*
X158858000Y-50996002D01*
G75*
G02*
X158608002Y-51246000I-249998J0D01*
G01*
X158082998Y-51246000D01*
G75*
G02*
X157833000Y-50996002I0J249998D01*
G01*
X157833000Y-50095998D01*
G75*
G02*
X158082998Y-49846000I249998J0D01*
G01*
X158608002Y-49846000D01*
G75*
G02*
X158858000Y-50095998I0J-249998D01*
G01*
G37*
%TD.AperFunction*%
%TO.P,R3,1*%
%TO.N,Net-(JP2-Pad2)*%
%TA.AperFunction,SMDPad,CuDef*%
G36*
G01*
X160683000Y-50095998D02*
X160683000Y-50996002D01*
G75*
G02*
X160433002Y-51246000I-249998J0D01*
G01*
X159907998Y-51246000D01*
G75*
G02*
X159658000Y-50996002I0J249998D01*
G01*
X159658000Y-50095998D01*
G75*
G02*
X159907998Y-49846000I249998J0D01*
G01*
X160433002Y-49846000D01*
G75*
G02*
X160683000Y-50095998I0J-249998D01*
G01*
G37*
%TD.AperFunction*%
%TD*%
%TO.P,R2,2*%
%TO.N,GND*%
%TA.AperFunction,SMDPad,CuDef*%
G36*
G01*
X162825480Y-37769378D02*
X162825480Y-38669382D01*
G75*
G02*
X162575482Y-38919380I-249998J0D01*
G01*
X162050478Y-38919380D01*
G75*
G02*
X161800480Y-38669382I0J249998D01*
G01*
X161800480Y-37769378D01*
G75*
G02*
X162050478Y-37519380I249998J0D01*
G01*
X162575482Y-37519380D01*
G75*
G02*
X162825480Y-37769378I0J-249998D01*
G01*
G37*
%TD.AperFunction*%
%TO.P,R2,1*%
%TO.N,/~RESET*%
%TA.AperFunction,SMDPad,CuDef*%
G36*
G01*
X164650480Y-37769378D02*
X164650480Y-38669382D01*
G75*
G02*
X164400482Y-38919380I-249998J0D01*
G01*
X163875478Y-38919380D01*
G75*
G02*
X163625480Y-38669382I0J249998D01*
G01*
X163625480Y-37769378D01*
G75*
G02*
X163875478Y-37519380I249998J0D01*
G01*
X164400482Y-37519380D01*
G75*
G02*
X164650480Y-37769378I0J-249998D01*
G01*
G37*
%TD.AperFunction*%
%TD*%
%TO.P,R1,2*%
%TO.N,GND*%
%TA.AperFunction,SMDPad,CuDef*%
G36*
G01*
X158375300Y-37584802D02*
X158375300Y-36684798D01*
G75*
G02*
X158625298Y-36434800I249998J0D01*
G01*
X159150302Y-36434800D01*
G75*
G02*
X159400300Y-36684798I0J-249998D01*
G01*
X159400300Y-37584802D01*
G75*
G02*
X159150302Y-37834800I-249998J0D01*
G01*
X158625298Y-37834800D01*
G75*
G02*
X158375300Y-37584802I0J249998D01*
G01*
G37*
%TD.AperFunction*%
%TO.P,R1,1*%
%TO.N,Net-(R1-Pad1)*%
%TA.AperFunction,SMDPad,CuDef*%
G36*
G01*
X156550300Y-37584802D02*
X156550300Y-36684798D01*
G75*
G02*
X156800298Y-36434800I249998J0D01*
G01*
X157325302Y-36434800D01*
G75*
G02*
X157575300Y-36684798I0J-249998D01*
G01*
X157575300Y-37584802D01*
G75*
G02*
X157325302Y-37834800I-249998J0D01*
G01*
X156800298Y-37834800D01*
G75*
G02*
X156550300Y-37584802I0J249998D01*
G01*
G37*
%TD.AperFunction*%
%TD*%
%TA.AperFunction,SMDPad,CuDef*%
D16*
%TO.P,JP2,1*%
%TO.N,Net-(H1-Pad13)*%
G36*
X159408000Y-46494000D02*
G01*
X159908000Y-46494000D01*
X159908000Y-46494602D01*
X159932534Y-46494602D01*
X159981365Y-46499412D01*
X160029490Y-46508984D01*
X160076445Y-46523228D01*
X160121778Y-46542005D01*
X160165051Y-46565136D01*
X160205850Y-46592396D01*
X160243779Y-46623524D01*
X160278476Y-46658221D01*
X160309604Y-46696150D01*
X160336864Y-46736949D01*
X160359995Y-46780222D01*
X160378772Y-46825555D01*
X160393016Y-46872510D01*
X160402588Y-46920635D01*
X160407398Y-46969466D01*
X160407398Y-46994000D01*
X160408000Y-46994000D01*
X160408000Y-47494000D01*
X160407398Y-47494000D01*
X160407398Y-47518534D01*
X160402588Y-47567365D01*
X160393016Y-47615490D01*
X160378772Y-47662445D01*
X160359995Y-47707778D01*
X160336864Y-47751051D01*
X160309604Y-47791850D01*
X160278476Y-47829779D01*
X160243779Y-47864476D01*
X160205850Y-47895604D01*
X160165051Y-47922864D01*
X160121778Y-47945995D01*
X160076445Y-47964772D01*
X160029490Y-47979016D01*
X159981365Y-47988588D01*
X159932534Y-47993398D01*
X159908000Y-47993398D01*
X159908000Y-47994000D01*
X159408000Y-47994000D01*
X159408000Y-46494000D01*
G37*
%TD.AperFunction*%
%TA.AperFunction,SMDPad,CuDef*%
%TO.P,JP2,2*%
%TO.N,Net-(JP2-Pad2)*%
G36*
X158608000Y-47993398D02*
G01*
X158583466Y-47993398D01*
X158534635Y-47988588D01*
X158486510Y-47979016D01*
X158439555Y-47964772D01*
X158394222Y-47945995D01*
X158350949Y-47922864D01*
X158310150Y-47895604D01*
X158272221Y-47864476D01*
X158237524Y-47829779D01*
X158206396Y-47791850D01*
X158179136Y-47751051D01*
X158156005Y-47707778D01*
X158137228Y-47662445D01*
X158122984Y-47615490D01*
X158113412Y-47567365D01*
X158108602Y-47518534D01*
X158108602Y-47494000D01*
X158108000Y-47494000D01*
X158108000Y-46994000D01*
X158108602Y-46994000D01*
X158108602Y-46969466D01*
X158113412Y-46920635D01*
X158122984Y-46872510D01*
X158137228Y-46825555D01*
X158156005Y-46780222D01*
X158179136Y-46736949D01*
X158206396Y-46696150D01*
X158237524Y-46658221D01*
X158272221Y-46623524D01*
X158310150Y-46592396D01*
X158350949Y-46565136D01*
X158394222Y-46542005D01*
X158439555Y-46523228D01*
X158486510Y-46508984D01*
X158534635Y-46499412D01*
X158583466Y-46494602D01*
X158608000Y-46494602D01*
X158608000Y-46494000D01*
X159108000Y-46494000D01*
X159108000Y-47994000D01*
X158608000Y-47994000D01*
X158608000Y-47993398D01*
G37*
%TD.AperFunction*%
%TD*%
%TA.AperFunction,SMDPad,CuDef*%
%TO.P,JP1,1*%
%TO.N,Net-(H1-Pad15)*%
G36*
X159408000Y-40652000D02*
G01*
X159908000Y-40652000D01*
X159908000Y-40652602D01*
X159932534Y-40652602D01*
X159981365Y-40657412D01*
X160029490Y-40666984D01*
X160076445Y-40681228D01*
X160121778Y-40700005D01*
X160165051Y-40723136D01*
X160205850Y-40750396D01*
X160243779Y-40781524D01*
X160278476Y-40816221D01*
X160309604Y-40854150D01*
X160336864Y-40894949D01*
X160359995Y-40938222D01*
X160378772Y-40983555D01*
X160393016Y-41030510D01*
X160402588Y-41078635D01*
X160407398Y-41127466D01*
X160407398Y-41152000D01*
X160408000Y-41152000D01*
X160408000Y-41652000D01*
X160407398Y-41652000D01*
X160407398Y-41676534D01*
X160402588Y-41725365D01*
X160393016Y-41773490D01*
X160378772Y-41820445D01*
X160359995Y-41865778D01*
X160336864Y-41909051D01*
X160309604Y-41949850D01*
X160278476Y-41987779D01*
X160243779Y-42022476D01*
X160205850Y-42053604D01*
X160165051Y-42080864D01*
X160121778Y-42103995D01*
X160076445Y-42122772D01*
X160029490Y-42137016D01*
X159981365Y-42146588D01*
X159932534Y-42151398D01*
X159908000Y-42151398D01*
X159908000Y-42152000D01*
X159408000Y-42152000D01*
X159408000Y-40652000D01*
G37*
%TD.AperFunction*%
%TA.AperFunction,SMDPad,CuDef*%
%TO.P,JP1,2*%
%TO.N,Net-(JP1-Pad2)*%
G36*
X158608000Y-42151398D02*
G01*
X158583466Y-42151398D01*
X158534635Y-42146588D01*
X158486510Y-42137016D01*
X158439555Y-42122772D01*
X158394222Y-42103995D01*
X158350949Y-42080864D01*
X158310150Y-42053604D01*
X158272221Y-42022476D01*
X158237524Y-41987779D01*
X158206396Y-41949850D01*
X158179136Y-41909051D01*
X158156005Y-41865778D01*
X158137228Y-41820445D01*
X158122984Y-41773490D01*
X158113412Y-41725365D01*
X158108602Y-41676534D01*
X158108602Y-41652000D01*
X158108000Y-41652000D01*
X158108000Y-41152000D01*
X158108602Y-41152000D01*
X158108602Y-41127466D01*
X158113412Y-41078635D01*
X158122984Y-41030510D01*
X158137228Y-40983555D01*
X158156005Y-40938222D01*
X158179136Y-40894949D01*
X158206396Y-40854150D01*
X158237524Y-40816221D01*
X158272221Y-40781524D01*
X158310150Y-40750396D01*
X158350949Y-40723136D01*
X158394222Y-40700005D01*
X158439555Y-40681228D01*
X158486510Y-40666984D01*
X158534635Y-40657412D01*
X158583466Y-40652602D01*
X158608000Y-40652602D01*
X158608000Y-40652000D01*
X159108000Y-40652000D01*
X159108000Y-42152000D01*
X158608000Y-42152000D01*
X158608000Y-42151398D01*
G37*
%TD.AperFunction*%
%TD*%
%TO.P,D2,2*%
%TO.N,Net-(D2-Pad2)*%
%TA.AperFunction,SMDPad,CuDef*%
G36*
G01*
X153358000Y-44906250D02*
X153358000Y-43993750D01*
G75*
G02*
X153601750Y-43750000I243750J0D01*
G01*
X154089250Y-43750000D01*
G75*
G02*
X154333000Y-43993750I0J-243750D01*
G01*
X154333000Y-44906250D01*
G75*
G02*
X154089250Y-45150000I-243750J0D01*
G01*
X153601750Y-45150000D01*
G75*
G02*
X153358000Y-44906250I0J243750D01*
G01*
G37*
%TD.AperFunction*%
%TO.P,D2,1*%
%TO.N,GND*%
%TA.AperFunction,SMDPad,CuDef*%
G36*
G01*
X151483000Y-44906250D02*
X151483000Y-43993750D01*
G75*
G02*
X151726750Y-43750000I243750J0D01*
G01*
X152214250Y-43750000D01*
G75*
G02*
X152458000Y-43993750I0J-243750D01*
G01*
X152458000Y-44906250D01*
G75*
G02*
X152214250Y-45150000I-243750J0D01*
G01*
X151726750Y-45150000D01*
G75*
G02*
X151483000Y-44906250I0J243750D01*
G01*
G37*
%TD.AperFunction*%
%TD*%
%TO.P,D1,2*%
%TO.N,Net-(D1-Pad2)*%
%TA.AperFunction,SMDPad,CuDef*%
G36*
G01*
X153358000Y-51002250D02*
X153358000Y-50089750D01*
G75*
G02*
X153601750Y-49846000I243750J0D01*
G01*
X154089250Y-49846000D01*
G75*
G02*
X154333000Y-50089750I0J-243750D01*
G01*
X154333000Y-51002250D01*
G75*
G02*
X154089250Y-51246000I-243750J0D01*
G01*
X153601750Y-51246000D01*
G75*
G02*
X153358000Y-51002250I0J243750D01*
G01*
G37*
%TD.AperFunction*%
%TO.P,D1,1*%
%TO.N,GND*%
%TA.AperFunction,SMDPad,CuDef*%
G36*
G01*
X151483000Y-51002250D02*
X151483000Y-50089750D01*
G75*
G02*
X151726750Y-49846000I243750J0D01*
G01*
X152214250Y-49846000D01*
G75*
G02*
X152458000Y-50089750I0J-243750D01*
G01*
X152458000Y-51002250D01*
G75*
G02*
X152214250Y-51246000I-243750J0D01*
G01*
X151726750Y-51246000D01*
G75*
G02*
X151483000Y-51002250I0J243750D01*
G01*
G37*
%TD.AperFunction*%
%TD*%
D15*
%TO.P,P1,1*%
%TO.N,/3V3*%
X170180000Y-61214000D03*
D14*
%TO.P,P1,2*%
%TO.N,/5V*%
X170180000Y-63754000D03*
%TO.P,P1,3*%
%TO.N,N/C*%
X167640000Y-61214000D03*
%TO.P,P1,4*%
%TO.N,/5V*%
X167640000Y-63754000D03*
%TO.P,P1,5*%
%TO.N,N/C*%
X165100000Y-61214000D03*
%TO.P,P1,6*%
%TO.N,GND*%
X165100000Y-63754000D03*
%TO.P,P1,7*%
%TO.N,N/C*%
X162560000Y-61214000D03*
%TO.P,P1,8*%
%TO.N,/UART0_Tx*%
X162560000Y-63754000D03*
%TO.P,P1,9*%
%TO.N,GND*%
X160020000Y-61214000D03*
%TO.P,P1,10*%
%TO.N,/UART0_Rx*%
X160020000Y-63754000D03*
%TO.P,P1,11*%
%TO.N,N/C*%
X157480000Y-61214000D03*
%TO.P,P1,12*%
%TO.N,/GPIO_18*%
X157480000Y-63754000D03*
%TD*%
D17*
%TO.N,/3V3*%
X169463720Y-40535860D03*
%TD*%
D18*
%TO.N,/3V3*%
X175702000Y-34703800D02*
X175750000Y-34751800D01*
X175702000Y-32258000D02*
X175702000Y-34703800D01*
X167869160Y-40535860D02*
X167830540Y-40497240D01*
X169463720Y-40535860D02*
X167869160Y-40535860D01*
D19*
%TO.N,/UART0_Tx*%
X166732999Y-57198291D02*
X166732999Y-45722761D01*
X164021399Y-59909891D02*
X166732999Y-57198291D01*
X164021399Y-62292601D02*
X164021399Y-59909891D01*
X162560000Y-63754000D02*
X164021399Y-62292601D01*
X171736800Y-40718960D02*
X171736800Y-34751800D01*
X166732999Y-45722761D02*
X171736800Y-40718960D01*
%TO.N,/5V*%
X170180000Y-63754000D02*
X167640000Y-63754000D01*
%TO.N,Net-(D1-Pad2)*%
X158345500Y-50546000D02*
X153845500Y-50546000D01*
%TO.N,Net-(D2-Pad2)*%
X158345500Y-44450000D02*
X153845500Y-44450000D01*
%TO.N,Net-(H1-Pad15)*%
X165717000Y-47211000D02*
X159908000Y-41402000D01*
X165717000Y-56748200D02*
X165717000Y-47211000D01*
%TO.N,Net-(H1-Pad13)*%
X161703800Y-49039800D02*
X159908000Y-47244000D01*
X161703800Y-56748200D02*
X161703800Y-49039800D01*
%TO.N,/~RESET*%
X165852680Y-38219380D02*
X165930540Y-38297240D01*
X164137980Y-38219380D02*
X165852680Y-38219380D01*
X165930540Y-36544860D02*
X167723600Y-34751800D01*
X165930540Y-38297240D02*
X165930540Y-36544860D01*
%TO.N,Net-(JP1-Pad2)*%
X158608000Y-42887500D02*
X160170500Y-44450000D01*
X158608000Y-41402000D02*
X158608000Y-42887500D01*
%TO.N,Net-(JP2-Pad2)*%
X158608000Y-48983500D02*
X160170500Y-50546000D01*
X158608000Y-47244000D02*
X158608000Y-48983500D01*
%TO.N,/GPIO_18*%
X151892000Y-38100000D02*
X153393140Y-39601140D01*
X165034440Y-39601140D02*
X165930540Y-40497240D01*
X153393140Y-39601140D02*
X165034440Y-39601140D01*
%TO.N,Net-(R1-Pad1)*%
X155488000Y-35560000D02*
X157062800Y-37134800D01*
X151892000Y-35560000D02*
X155488000Y-35560000D01*
%TD*%
D20*
%TO.N,GND*%
X180036400Y-65736400D02*
X156513600Y-65736400D01*
X156513600Y-64340548D01*
X156602737Y-64473951D01*
X156760049Y-64631263D01*
X156945028Y-64754862D01*
X157150566Y-64839998D01*
X157368764Y-64883400D01*
X157591236Y-64883400D01*
X157809434Y-64839998D01*
X158014972Y-64754862D01*
X158199951Y-64631263D01*
X158357263Y-64473951D01*
X158480862Y-64288972D01*
X158565998Y-64083434D01*
X158609400Y-63865236D01*
X158609400Y-63642764D01*
X158890600Y-63642764D01*
X158890600Y-63865236D01*
X158934002Y-64083434D01*
X159019138Y-64288972D01*
X159142737Y-64473951D01*
X159300049Y-64631263D01*
X159485028Y-64754862D01*
X159690566Y-64839998D01*
X159908764Y-64883400D01*
X160131236Y-64883400D01*
X160349434Y-64839998D01*
X160554972Y-64754862D01*
X160739951Y-64631263D01*
X160897263Y-64473951D01*
X161020862Y-64288972D01*
X161105998Y-64083434D01*
X161149400Y-63865236D01*
X161149400Y-63642764D01*
X161105998Y-63424566D01*
X161020862Y-63219028D01*
X160897263Y-63034049D01*
X160739951Y-62876737D01*
X160554972Y-62753138D01*
X160349434Y-62668002D01*
X160131236Y-62624600D01*
X159908764Y-62624600D01*
X159690566Y-62668002D01*
X159485028Y-62753138D01*
X159300049Y-62876737D01*
X159142737Y-63034049D01*
X159019138Y-63219028D01*
X158934002Y-63424566D01*
X158890600Y-63642764D01*
X158609400Y-63642764D01*
X158565998Y-63424566D01*
X158480862Y-63219028D01*
X158357263Y-63034049D01*
X158199951Y-62876737D01*
X158014972Y-62753138D01*
X157809434Y-62668002D01*
X157591236Y-62624600D01*
X157368764Y-62624600D01*
X157150566Y-62668002D01*
X156945028Y-62753138D01*
X156760049Y-62876737D01*
X156602737Y-63034049D01*
X156513600Y-63167452D01*
X156513600Y-61800548D01*
X156602737Y-61933951D01*
X156760049Y-62091263D01*
X156945028Y-62214862D01*
X157150566Y-62299998D01*
X157368764Y-62343400D01*
X157591236Y-62343400D01*
X157809434Y-62299998D01*
X158014972Y-62214862D01*
X158199951Y-62091263D01*
X158357263Y-61933951D01*
X158480862Y-61748972D01*
X158565998Y-61543434D01*
X158573246Y-61506994D01*
X158981950Y-61506994D01*
X159059056Y-61703878D01*
X159173091Y-61881936D01*
X159319672Y-62034326D01*
X159493166Y-62155191D01*
X159686906Y-62239886D01*
X159727007Y-62252043D01*
X159893000Y-62227524D01*
X159893000Y-61341000D01*
X160147000Y-61341000D01*
X160147000Y-62227524D01*
X160312993Y-62252043D01*
X160353094Y-62239886D01*
X160546834Y-62155191D01*
X160720328Y-62034326D01*
X160866909Y-61881936D01*
X160980944Y-61703878D01*
X161058050Y-61506994D01*
X161033954Y-61341000D01*
X160147000Y-61341000D01*
X159893000Y-61341000D01*
X159006046Y-61341000D01*
X158981950Y-61506994D01*
X158573246Y-61506994D01*
X158609400Y-61325236D01*
X158609400Y-61102764D01*
X158573247Y-60921006D01*
X158981950Y-60921006D01*
X159006046Y-61087000D01*
X159893000Y-61087000D01*
X159893000Y-60200476D01*
X160147000Y-60200476D01*
X160147000Y-61087000D01*
X161033954Y-61087000D01*
X161058050Y-60921006D01*
X160980944Y-60724122D01*
X160866909Y-60546064D01*
X160720328Y-60393674D01*
X160546834Y-60272809D01*
X160353094Y-60188114D01*
X160312993Y-60175957D01*
X160147000Y-60200476D01*
X159893000Y-60200476D01*
X159727007Y-60175957D01*
X159686906Y-60188114D01*
X159493166Y-60272809D01*
X159319672Y-60393674D01*
X159173091Y-60546064D01*
X159059056Y-60724122D01*
X158981950Y-60921006D01*
X158573247Y-60921006D01*
X158565998Y-60884566D01*
X158480862Y-60679028D01*
X158357263Y-60494049D01*
X158199951Y-60336737D01*
X158014972Y-60213138D01*
X157809434Y-60128002D01*
X157591236Y-60084600D01*
X157368764Y-60084600D01*
X157150566Y-60128002D01*
X156945028Y-60213138D01*
X156760049Y-60336737D01*
X156602737Y-60494049D01*
X156513600Y-60627452D01*
X156513600Y-59958904D01*
X156515068Y-59944000D01*
X156509206Y-59884484D01*
X156491846Y-59827256D01*
X156463655Y-59774513D01*
X156425716Y-59728284D01*
X156379487Y-59690345D01*
X156326744Y-59662154D01*
X156269516Y-59644794D01*
X156224904Y-59640400D01*
X156210000Y-59638932D01*
X156195096Y-59640400D01*
X145553600Y-59640400D01*
X145553600Y-51246000D01*
X151253294Y-51246000D01*
X151257708Y-51290813D01*
X151270779Y-51333905D01*
X151292006Y-51373618D01*
X151320573Y-51408427D01*
X151355382Y-51436994D01*
X151395095Y-51458221D01*
X151438187Y-51471292D01*
X151483000Y-51475706D01*
X151786350Y-51474600D01*
X151843500Y-51417450D01*
X151843500Y-50673000D01*
X152097500Y-50673000D01*
X152097500Y-51417450D01*
X152154650Y-51474600D01*
X152458000Y-51475706D01*
X152502813Y-51471292D01*
X152545905Y-51458221D01*
X152585618Y-51436994D01*
X152620427Y-51408427D01*
X152648994Y-51373618D01*
X152670221Y-51333905D01*
X152683292Y-51290813D01*
X152687706Y-51246000D01*
X152686600Y-50730150D01*
X152629450Y-50673000D01*
X152097500Y-50673000D01*
X151843500Y-50673000D01*
X151311550Y-50673000D01*
X151254400Y-50730150D01*
X151253294Y-51246000D01*
X145553600Y-51246000D01*
X145553600Y-49846000D01*
X151253294Y-49846000D01*
X151254400Y-50361850D01*
X151311550Y-50419000D01*
X151843500Y-50419000D01*
X151843500Y-49674550D01*
X152097500Y-49674550D01*
X152097500Y-50419000D01*
X152629450Y-50419000D01*
X152686600Y-50361850D01*
X152687706Y-49846000D01*
X152683292Y-49801187D01*
X152670221Y-49758095D01*
X152648994Y-49718382D01*
X152620427Y-49683573D01*
X152585618Y-49655006D01*
X152545905Y-49633779D01*
X152502813Y-49620708D01*
X152458000Y-49616294D01*
X152154650Y-49617400D01*
X152097500Y-49674550D01*
X151843500Y-49674550D01*
X151786350Y-49617400D01*
X151483000Y-49616294D01*
X151438187Y-49620708D01*
X151395095Y-49633779D01*
X151355382Y-49655006D01*
X151320573Y-49683573D01*
X151292006Y-49718382D01*
X151270779Y-49758095D01*
X151257708Y-49801187D01*
X151253294Y-49846000D01*
X145553600Y-49846000D01*
X145553600Y-45150000D01*
X151253294Y-45150000D01*
X151257708Y-45194813D01*
X151270779Y-45237905D01*
X151292006Y-45277618D01*
X151320573Y-45312427D01*
X151355382Y-45340994D01*
X151395095Y-45362221D01*
X151438187Y-45375292D01*
X151483000Y-45379706D01*
X151786350Y-45378600D01*
X151843500Y-45321450D01*
X151843500Y-44577000D01*
X152097500Y-44577000D01*
X152097500Y-45321450D01*
X152154650Y-45378600D01*
X152458000Y-45379706D01*
X152502813Y-45375292D01*
X152545905Y-45362221D01*
X152585618Y-45340994D01*
X152620427Y-45312427D01*
X152648994Y-45277618D01*
X152670221Y-45237905D01*
X152683292Y-45194813D01*
X152687706Y-45150000D01*
X152686600Y-44634150D01*
X152629450Y-44577000D01*
X152097500Y-44577000D01*
X151843500Y-44577000D01*
X151311550Y-44577000D01*
X151254400Y-44634150D01*
X151253294Y-45150000D01*
X145553600Y-45150000D01*
X145553600Y-43750000D01*
X151253294Y-43750000D01*
X151254400Y-44265850D01*
X151311550Y-44323000D01*
X151843500Y-44323000D01*
X151843500Y-43578550D01*
X152097500Y-43578550D01*
X152097500Y-44323000D01*
X152629450Y-44323000D01*
X152686600Y-44265850D01*
X152687183Y-43993750D01*
X153077249Y-43993750D01*
X153077249Y-44906250D01*
X153087327Y-45008575D01*
X153117174Y-45106968D01*
X153165643Y-45197647D01*
X153230872Y-45277128D01*
X153310353Y-45342357D01*
X153401032Y-45390826D01*
X153499425Y-45420673D01*
X153601750Y-45430751D01*
X154089250Y-45430751D01*
X154191575Y-45420673D01*
X154289968Y-45390826D01*
X154380647Y-45342357D01*
X154460128Y-45277128D01*
X154525357Y-45197647D01*
X154573826Y-45106968D01*
X154603673Y-45008575D01*
X154613751Y-44906250D01*
X154613751Y-44805600D01*
X157552249Y-44805600D01*
X157552249Y-44900002D01*
X157562447Y-45003546D01*
X157592650Y-45103111D01*
X157641696Y-45194870D01*
X157707702Y-45275298D01*
X157788130Y-45341304D01*
X157879889Y-45390350D01*
X157979454Y-45420553D01*
X158082998Y-45430751D01*
X158608002Y-45430751D01*
X158711546Y-45420553D01*
X158811111Y-45390350D01*
X158902870Y-45341304D01*
X158983298Y-45275298D01*
X159049304Y-45194870D01*
X159098350Y-45103111D01*
X159128553Y-45003546D01*
X159138751Y-44900002D01*
X159138751Y-43999998D01*
X159130136Y-43912530D01*
X159377249Y-44159643D01*
X159377249Y-44900002D01*
X159387447Y-45003546D01*
X159417650Y-45103111D01*
X159466696Y-45194870D01*
X159532702Y-45275298D01*
X159613130Y-45341304D01*
X159704889Y-45390350D01*
X159804454Y-45420553D01*
X159907998Y-45430751D01*
X160433002Y-45430751D01*
X160536546Y-45420553D01*
X160636111Y-45390350D01*
X160727870Y-45341304D01*
X160808298Y-45275298D01*
X160874304Y-45194870D01*
X160923350Y-45103111D01*
X160953553Y-45003546D01*
X160963751Y-44900002D01*
X160963751Y-43999998D01*
X160953553Y-43896454D01*
X160923350Y-43796889D01*
X160874304Y-43705130D01*
X160808298Y-43624702D01*
X160727870Y-43558696D01*
X160636111Y-43509650D01*
X160536546Y-43479447D01*
X160433002Y-43469249D01*
X159907998Y-43469249D01*
X159804454Y-43479447D01*
X159726491Y-43503097D01*
X158963600Y-42740207D01*
X158963600Y-42432752D01*
X159108000Y-42432752D01*
X159162772Y-42427357D01*
X159215439Y-42411381D01*
X159258000Y-42388632D01*
X159300561Y-42411381D01*
X159353228Y-42427357D01*
X159408000Y-42432752D01*
X159908000Y-42432752D01*
X159932447Y-42430344D01*
X159957009Y-42430344D01*
X160011781Y-42424949D01*
X160107914Y-42405827D01*
X160160580Y-42389852D01*
X160251136Y-42352343D01*
X160299676Y-42326398D01*
X160317557Y-42314450D01*
X165361401Y-47358295D01*
X165361400Y-55768291D01*
X165223712Y-55825323D01*
X165053146Y-55939292D01*
X164908092Y-56084346D01*
X164794123Y-56254912D01*
X164715620Y-56444435D01*
X164713700Y-56454088D01*
X164711780Y-56444435D01*
X164633277Y-56254912D01*
X164519308Y-56084346D01*
X164374254Y-55939292D01*
X164203688Y-55825323D01*
X164014165Y-55746820D01*
X163812969Y-55706800D01*
X163607831Y-55706800D01*
X163406635Y-55746820D01*
X163217112Y-55825323D01*
X163046546Y-55939292D01*
X162901492Y-56084346D01*
X162787523Y-56254912D01*
X162709020Y-56444435D01*
X162707100Y-56454088D01*
X162705180Y-56444435D01*
X162626677Y-56254912D01*
X162512708Y-56084346D01*
X162367654Y-55939292D01*
X162197088Y-55825323D01*
X162059400Y-55768291D01*
X162059400Y-49057255D01*
X162061119Y-49039800D01*
X162059400Y-49022345D01*
X162059400Y-49022337D01*
X162054254Y-48970090D01*
X162033921Y-48903060D01*
X162000901Y-48841284D01*
X161956463Y-48787137D01*
X161942900Y-48776006D01*
X160686344Y-47519451D01*
X160686344Y-47518447D01*
X160688752Y-47494000D01*
X160688752Y-46994000D01*
X160686344Y-46969553D01*
X160686344Y-46944991D01*
X160680949Y-46890219D01*
X160661827Y-46794086D01*
X160645852Y-46741420D01*
X160608343Y-46650864D01*
X160582398Y-46602324D01*
X160527942Y-46520825D01*
X160493027Y-46478281D01*
X160423719Y-46408973D01*
X160381175Y-46374058D01*
X160299676Y-46319602D01*
X160251136Y-46293657D01*
X160160580Y-46256148D01*
X160107914Y-46240173D01*
X160011781Y-46221051D01*
X159957009Y-46215656D01*
X159932447Y-46215656D01*
X159908000Y-46213248D01*
X159408000Y-46213248D01*
X159353228Y-46218643D01*
X159300561Y-46234619D01*
X159258000Y-46257368D01*
X159215439Y-46234619D01*
X159162772Y-46218643D01*
X159108000Y-46213248D01*
X158608000Y-46213248D01*
X158583553Y-46215656D01*
X158558991Y-46215656D01*
X158504219Y-46221051D01*
X158408086Y-46240173D01*
X158355420Y-46256148D01*
X158264864Y-46293657D01*
X158216324Y-46319602D01*
X158134825Y-46374058D01*
X158092281Y-46408973D01*
X158022973Y-46478281D01*
X157988058Y-46520825D01*
X157933602Y-46602324D01*
X157907657Y-46650864D01*
X157870148Y-46741420D01*
X157854173Y-46794086D01*
X157835051Y-46890219D01*
X157829656Y-46944991D01*
X157829656Y-46969553D01*
X157827248Y-46994000D01*
X157827248Y-47494000D01*
X157829656Y-47518447D01*
X157829656Y-47543009D01*
X157835051Y-47597781D01*
X157854173Y-47693914D01*
X157870148Y-47746580D01*
X157907657Y-47837136D01*
X157933602Y-47885676D01*
X157988058Y-47967175D01*
X158022973Y-48009719D01*
X158092281Y-48079027D01*
X158134825Y-48113942D01*
X158216324Y-48168398D01*
X158252401Y-48187681D01*
X158252401Y-48966035D01*
X158250681Y-48983500D01*
X158257546Y-49053210D01*
X158277880Y-49120241D01*
X158294390Y-49151128D01*
X158310900Y-49182016D01*
X158355338Y-49236163D01*
X158368901Y-49247294D01*
X158695471Y-49573864D01*
X158608002Y-49565249D01*
X158082998Y-49565249D01*
X157979454Y-49575447D01*
X157879889Y-49605650D01*
X157788130Y-49654696D01*
X157707702Y-49720702D01*
X157641696Y-49801130D01*
X157592650Y-49892889D01*
X157562447Y-49992454D01*
X157552249Y-50095998D01*
X157552249Y-50190400D01*
X154613751Y-50190400D01*
X154613751Y-50089750D01*
X154603673Y-49987425D01*
X154573826Y-49889032D01*
X154525357Y-49798353D01*
X154460128Y-49718872D01*
X154380647Y-49653643D01*
X154289968Y-49605174D01*
X154191575Y-49575327D01*
X154089250Y-49565249D01*
X153601750Y-49565249D01*
X153499425Y-49575327D01*
X153401032Y-49605174D01*
X153310353Y-49653643D01*
X153230872Y-49718872D01*
X153165643Y-49798353D01*
X153117174Y-49889032D01*
X153087327Y-49987425D01*
X153077249Y-50089750D01*
X153077249Y-51002250D01*
X153087327Y-51104575D01*
X153117174Y-51202968D01*
X153165643Y-51293647D01*
X153230872Y-51373128D01*
X153310353Y-51438357D01*
X153401032Y-51486826D01*
X153499425Y-51516673D01*
X153601750Y-51526751D01*
X154089250Y-51526751D01*
X154191575Y-51516673D01*
X154289968Y-51486826D01*
X154380647Y-51438357D01*
X154460128Y-51373128D01*
X154525357Y-51293647D01*
X154573826Y-51202968D01*
X154603673Y-51104575D01*
X154613751Y-51002250D01*
X154613751Y-50901600D01*
X157552249Y-50901600D01*
X157552249Y-50996002D01*
X157562447Y-51099546D01*
X157592650Y-51199111D01*
X157641696Y-51290870D01*
X157707702Y-51371298D01*
X157788130Y-51437304D01*
X157879889Y-51486350D01*
X157979454Y-51516553D01*
X158082998Y-51526751D01*
X158608002Y-51526751D01*
X158711546Y-51516553D01*
X158811111Y-51486350D01*
X158902870Y-51437304D01*
X158983298Y-51371298D01*
X159049304Y-51290870D01*
X159098350Y-51199111D01*
X159128553Y-51099546D01*
X159138751Y-50996002D01*
X159138751Y-50095998D01*
X159130136Y-50008530D01*
X159377249Y-50255643D01*
X159377249Y-50996002D01*
X159387447Y-51099546D01*
X159417650Y-51199111D01*
X159466696Y-51290870D01*
X159532702Y-51371298D01*
X159613130Y-51437304D01*
X159704889Y-51486350D01*
X159804454Y-51516553D01*
X159907998Y-51526751D01*
X160433002Y-51526751D01*
X160536546Y-51516553D01*
X160636111Y-51486350D01*
X160727870Y-51437304D01*
X160808298Y-51371298D01*
X160874304Y-51290870D01*
X160923350Y-51199111D01*
X160953553Y-51099546D01*
X160963751Y-50996002D01*
X160963751Y-50095998D01*
X160953553Y-49992454D01*
X160923350Y-49892889D01*
X160874304Y-49801130D01*
X160808298Y-49720702D01*
X160727870Y-49654696D01*
X160636111Y-49605650D01*
X160536546Y-49575447D01*
X160433002Y-49565249D01*
X159907998Y-49565249D01*
X159804454Y-49575447D01*
X159726491Y-49599097D01*
X158963600Y-48836207D01*
X158963600Y-48274752D01*
X159108000Y-48274752D01*
X159162772Y-48269357D01*
X159215439Y-48253381D01*
X159258000Y-48230632D01*
X159300561Y-48253381D01*
X159353228Y-48269357D01*
X159408000Y-48274752D01*
X159908000Y-48274752D01*
X159932447Y-48272344D01*
X159957009Y-48272344D01*
X160011781Y-48266949D01*
X160107914Y-48247827D01*
X160160580Y-48231852D01*
X160251136Y-48194343D01*
X160299676Y-48168398D01*
X160317557Y-48156450D01*
X161348201Y-49187095D01*
X161348200Y-55768291D01*
X161210512Y-55825323D01*
X161039946Y-55939292D01*
X160894892Y-56084346D01*
X160780923Y-56254912D01*
X160702420Y-56444435D01*
X160700500Y-56454088D01*
X160698580Y-56444435D01*
X160620077Y-56254912D01*
X160506108Y-56084346D01*
X160361054Y-55939292D01*
X160190488Y-55825323D01*
X160000965Y-55746820D01*
X159799769Y-55706800D01*
X159594631Y-55706800D01*
X159393435Y-55746820D01*
X159203912Y-55825323D01*
X159033346Y-55939292D01*
X158888292Y-56084346D01*
X158774323Y-56254912D01*
X158695820Y-56444435D01*
X158693900Y-56454088D01*
X158691980Y-56444435D01*
X158613477Y-56254912D01*
X158499508Y-56084346D01*
X158354454Y-55939292D01*
X158183888Y-55825323D01*
X157994365Y-55746820D01*
X157793169Y-55706800D01*
X157588031Y-55706800D01*
X157386835Y-55746820D01*
X157197312Y-55825323D01*
X157026746Y-55939292D01*
X156881692Y-56084346D01*
X156767723Y-56254912D01*
X156689220Y-56444435D01*
X156649200Y-56645631D01*
X156649200Y-56850769D01*
X156689220Y-57051965D01*
X156767723Y-57241488D01*
X156881692Y-57412054D01*
X157026746Y-57557108D01*
X157197312Y-57671077D01*
X157386835Y-57749580D01*
X157588031Y-57789600D01*
X157793169Y-57789600D01*
X157994365Y-57749580D01*
X158183888Y-57671077D01*
X158354454Y-57557108D01*
X158499508Y-57412054D01*
X158613477Y-57241488D01*
X158691980Y-57051965D01*
X158693900Y-57042312D01*
X158695820Y-57051965D01*
X158774323Y-57241488D01*
X158888292Y-57412054D01*
X159033346Y-57557108D01*
X159203912Y-57671077D01*
X159393435Y-57749580D01*
X159594631Y-57789600D01*
X159799769Y-57789600D01*
X160000965Y-57749580D01*
X160190488Y-57671077D01*
X160361054Y-57557108D01*
X160506108Y-57412054D01*
X160620077Y-57241488D01*
X160698580Y-57051965D01*
X160700500Y-57042312D01*
X160702420Y-57051965D01*
X160780923Y-57241488D01*
X160894892Y-57412054D01*
X161039946Y-57557108D01*
X161210512Y-57671077D01*
X161400035Y-57749580D01*
X161601231Y-57789600D01*
X161806369Y-57789600D01*
X162007565Y-57749580D01*
X162197088Y-57671077D01*
X162367654Y-57557108D01*
X162512708Y-57412054D01*
X162626677Y-57241488D01*
X162705180Y-57051965D01*
X162707100Y-57042312D01*
X162709020Y-57051965D01*
X162787523Y-57241488D01*
X162901492Y-57412054D01*
X163046546Y-57557108D01*
X163217112Y-57671077D01*
X163406635Y-57749580D01*
X163607831Y-57789600D01*
X163812969Y-57789600D01*
X164014165Y-57749580D01*
X164203688Y-57671077D01*
X164374254Y-57557108D01*
X164519308Y-57412054D01*
X164633277Y-57241488D01*
X164711780Y-57051965D01*
X164713700Y-57042312D01*
X164715620Y-57051965D01*
X164794123Y-57241488D01*
X164908092Y-57412054D01*
X165053146Y-57557108D01*
X165223712Y-57671077D01*
X165413235Y-57749580D01*
X165614431Y-57789600D01*
X165638796Y-57789600D01*
X163782300Y-59646097D01*
X163768737Y-59657228D01*
X163724299Y-59711375D01*
X163715261Y-59728284D01*
X163691279Y-59773150D01*
X163670945Y-59840181D01*
X163664080Y-59909891D01*
X163665800Y-59927356D01*
X163665800Y-60984116D01*
X163645998Y-60884566D01*
X163560862Y-60679028D01*
X163437263Y-60494049D01*
X163279951Y-60336737D01*
X163094972Y-60213138D01*
X162889434Y-60128002D01*
X162671236Y-60084600D01*
X162448764Y-60084600D01*
X162230566Y-60128002D01*
X162025028Y-60213138D01*
X161840049Y-60336737D01*
X161682737Y-60494049D01*
X161559138Y-60679028D01*
X161474002Y-60884566D01*
X161430600Y-61102764D01*
X161430600Y-61325236D01*
X161474002Y-61543434D01*
X161559138Y-61748972D01*
X161682737Y-61933951D01*
X161840049Y-62091263D01*
X162025028Y-62214862D01*
X162230566Y-62299998D01*
X162448764Y-62343400D01*
X162671236Y-62343400D01*
X162889434Y-62299998D01*
X163094972Y-62214862D01*
X163279951Y-62091263D01*
X163437263Y-61933951D01*
X163560862Y-61748972D01*
X163645998Y-61543434D01*
X163665799Y-61443885D01*
X163665799Y-62145306D01*
X163068806Y-62742300D01*
X162889434Y-62668002D01*
X162671236Y-62624600D01*
X162448764Y-62624600D01*
X162230566Y-62668002D01*
X162025028Y-62753138D01*
X161840049Y-62876737D01*
X161682737Y-63034049D01*
X161559138Y-63219028D01*
X161474002Y-63424566D01*
X161430600Y-63642764D01*
X161430600Y-63865236D01*
X161474002Y-64083434D01*
X161559138Y-64288972D01*
X161682737Y-64473951D01*
X161840049Y-64631263D01*
X162025028Y-64754862D01*
X162230566Y-64839998D01*
X162448764Y-64883400D01*
X162671236Y-64883400D01*
X162889434Y-64839998D01*
X163094972Y-64754862D01*
X163279951Y-64631263D01*
X163437263Y-64473951D01*
X163560862Y-64288972D01*
X163645998Y-64083434D01*
X163653246Y-64046994D01*
X164061950Y-64046994D01*
X164139056Y-64243878D01*
X164253091Y-64421936D01*
X164399672Y-64574326D01*
X164573166Y-64695191D01*
X164766906Y-64779886D01*
X164807007Y-64792043D01*
X164973000Y-64767524D01*
X164973000Y-63881000D01*
X165227000Y-63881000D01*
X165227000Y-64767524D01*
X165392993Y-64792043D01*
X165433094Y-64779886D01*
X165626834Y-64695191D01*
X165800328Y-64574326D01*
X165946909Y-64421936D01*
X166060944Y-64243878D01*
X166138050Y-64046994D01*
X166113954Y-63881000D01*
X165227000Y-63881000D01*
X164973000Y-63881000D01*
X164086046Y-63881000D01*
X164061950Y-64046994D01*
X163653246Y-64046994D01*
X163689400Y-63865236D01*
X163689400Y-63642764D01*
X166510600Y-63642764D01*
X166510600Y-63865236D01*
X166554002Y-64083434D01*
X166639138Y-64288972D01*
X166762737Y-64473951D01*
X166920049Y-64631263D01*
X167105028Y-64754862D01*
X167310566Y-64839998D01*
X167528764Y-64883400D01*
X167751236Y-64883400D01*
X167969434Y-64839998D01*
X168174972Y-64754862D01*
X168359951Y-64631263D01*
X168517263Y-64473951D01*
X168640862Y-64288972D01*
X168715160Y-64109600D01*
X169104840Y-64109600D01*
X169179138Y-64288972D01*
X169302737Y-64473951D01*
X169460049Y-64631263D01*
X169645028Y-64754862D01*
X169850566Y-64839998D01*
X170068764Y-64883400D01*
X170291236Y-64883400D01*
X170509434Y-64839998D01*
X170714972Y-64754862D01*
X170899951Y-64631263D01*
X171057263Y-64473951D01*
X171180862Y-64288972D01*
X171265998Y-64083434D01*
X171309400Y-63865236D01*
X171309400Y-63642764D01*
X171265998Y-63424566D01*
X171180862Y-63219028D01*
X171057263Y-63034049D01*
X170899951Y-62876737D01*
X170714972Y-62753138D01*
X170509434Y-62668002D01*
X170291236Y-62624600D01*
X170068764Y-62624600D01*
X169850566Y-62668002D01*
X169645028Y-62753138D01*
X169460049Y-62876737D01*
X169302737Y-63034049D01*
X169179138Y-63219028D01*
X169104840Y-63398400D01*
X168715160Y-63398400D01*
X168640862Y-63219028D01*
X168517263Y-63034049D01*
X168359951Y-62876737D01*
X168174972Y-62753138D01*
X167969434Y-62668002D01*
X167751236Y-62624600D01*
X167528764Y-62624600D01*
X167310566Y-62668002D01*
X167105028Y-62753138D01*
X166920049Y-62876737D01*
X166762737Y-63034049D01*
X166639138Y-63219028D01*
X166554002Y-63424566D01*
X166510600Y-63642764D01*
X163689400Y-63642764D01*
X163653247Y-63461006D01*
X164061950Y-63461006D01*
X164086046Y-63627000D01*
X164973000Y-63627000D01*
X164973000Y-62740476D01*
X165227000Y-62740476D01*
X165227000Y-63627000D01*
X166113954Y-63627000D01*
X166138050Y-63461006D01*
X166060944Y-63264122D01*
X165946909Y-63086064D01*
X165800328Y-62933674D01*
X165626834Y-62812809D01*
X165433094Y-62728114D01*
X165392993Y-62715957D01*
X165227000Y-62740476D01*
X164973000Y-62740476D01*
X164807007Y-62715957D01*
X164766906Y-62728114D01*
X164573166Y-62812809D01*
X164399672Y-62933674D01*
X164253091Y-63086064D01*
X164139056Y-63264122D01*
X164061950Y-63461006D01*
X163653247Y-63461006D01*
X163645998Y-63424566D01*
X163571700Y-63245194D01*
X164260509Y-62556386D01*
X164274061Y-62545264D01*
X164285184Y-62531711D01*
X164285194Y-62531701D01*
X164318499Y-62491118D01*
X164318501Y-62491116D01*
X164351520Y-62429341D01*
X164371853Y-62362311D01*
X164376999Y-62310064D01*
X164376999Y-62310055D01*
X164378718Y-62292602D01*
X164376999Y-62275149D01*
X164376999Y-62088213D01*
X164380049Y-62091263D01*
X164565028Y-62214862D01*
X164770566Y-62299998D01*
X164988764Y-62343400D01*
X165211236Y-62343400D01*
X165429434Y-62299998D01*
X165634972Y-62214862D01*
X165819951Y-62091263D01*
X165977263Y-61933951D01*
X166100862Y-61748972D01*
X166185998Y-61543434D01*
X166229400Y-61325236D01*
X166229400Y-61102764D01*
X166510600Y-61102764D01*
X166510600Y-61325236D01*
X166554002Y-61543434D01*
X166639138Y-61748972D01*
X166762737Y-61933951D01*
X166920049Y-62091263D01*
X167105028Y-62214862D01*
X167310566Y-62299998D01*
X167528764Y-62343400D01*
X167751236Y-62343400D01*
X167969434Y-62299998D01*
X168174972Y-62214862D01*
X168359951Y-62091263D01*
X168517263Y-61933951D01*
X168640862Y-61748972D01*
X168725998Y-61543434D01*
X168769400Y-61325236D01*
X168769400Y-61102764D01*
X168725998Y-60884566D01*
X168640862Y-60679028D01*
X168517263Y-60494049D01*
X168387214Y-60364000D01*
X169049249Y-60364000D01*
X169049249Y-62064000D01*
X169054644Y-62118772D01*
X169070620Y-62171439D01*
X169096564Y-62219977D01*
X169131479Y-62262521D01*
X169174023Y-62297436D01*
X169222561Y-62323380D01*
X169275228Y-62339356D01*
X169330000Y-62344751D01*
X171030000Y-62344751D01*
X171084772Y-62339356D01*
X171137439Y-62323380D01*
X171185977Y-62297436D01*
X171228521Y-62262521D01*
X171263436Y-62219977D01*
X171289380Y-62171439D01*
X171305356Y-62118772D01*
X171310751Y-62064000D01*
X171310751Y-60364000D01*
X171305356Y-60309228D01*
X171289380Y-60256561D01*
X171263436Y-60208023D01*
X171228521Y-60165479D01*
X171185977Y-60130564D01*
X171137439Y-60104620D01*
X171084772Y-60088644D01*
X171030000Y-60083249D01*
X169330000Y-60083249D01*
X169275228Y-60088644D01*
X169222561Y-60104620D01*
X169174023Y-60130564D01*
X169131479Y-60165479D01*
X169096564Y-60208023D01*
X169070620Y-60256561D01*
X169054644Y-60309228D01*
X169049249Y-60364000D01*
X168387214Y-60364000D01*
X168359951Y-60336737D01*
X168174972Y-60213138D01*
X167969434Y-60128002D01*
X167751236Y-60084600D01*
X167528764Y-60084600D01*
X167310566Y-60128002D01*
X167105028Y-60213138D01*
X166920049Y-60336737D01*
X166762737Y-60494049D01*
X166639138Y-60679028D01*
X166554002Y-60884566D01*
X166510600Y-61102764D01*
X166229400Y-61102764D01*
X166185998Y-60884566D01*
X166100862Y-60679028D01*
X165977263Y-60494049D01*
X165819951Y-60336737D01*
X165634972Y-60213138D01*
X165429434Y-60128002D01*
X165211236Y-60084600D01*
X164988764Y-60084600D01*
X164770566Y-60128002D01*
X164565028Y-60213138D01*
X164380049Y-60336737D01*
X164376999Y-60339787D01*
X164376999Y-60057184D01*
X166968411Y-57465773D01*
X167059746Y-57557108D01*
X167230312Y-57671077D01*
X167419835Y-57749580D01*
X167621031Y-57789600D01*
X167826169Y-57789600D01*
X168027365Y-57749580D01*
X168216888Y-57671077D01*
X168387454Y-57557108D01*
X168532508Y-57412054D01*
X168646477Y-57241488D01*
X168724980Y-57051965D01*
X168726900Y-57042312D01*
X168728820Y-57051965D01*
X168807323Y-57241488D01*
X168921292Y-57412054D01*
X169066346Y-57557108D01*
X169236912Y-57671077D01*
X169426435Y-57749580D01*
X169627631Y-57789600D01*
X169832769Y-57789600D01*
X170033965Y-57749580D01*
X170223488Y-57671077D01*
X170394054Y-57557108D01*
X170539108Y-57412054D01*
X170653077Y-57241488D01*
X170731580Y-57051965D01*
X170733500Y-57042312D01*
X170735420Y-57051965D01*
X170813923Y-57241488D01*
X170927892Y-57412054D01*
X171072946Y-57557108D01*
X171243512Y-57671077D01*
X171433035Y-57749580D01*
X171634231Y-57789600D01*
X171839369Y-57789600D01*
X172040565Y-57749580D01*
X172230088Y-57671077D01*
X172400654Y-57557108D01*
X172545708Y-57412054D01*
X172659677Y-57241488D01*
X172738180Y-57051965D01*
X172740100Y-57042312D01*
X172742020Y-57051965D01*
X172820523Y-57241488D01*
X172934492Y-57412054D01*
X173079546Y-57557108D01*
X173250112Y-57671077D01*
X173439635Y-57749580D01*
X173640831Y-57789600D01*
X173845969Y-57789600D01*
X174047165Y-57749580D01*
X174236688Y-57671077D01*
X174407254Y-57557108D01*
X174552308Y-57412054D01*
X174666277Y-57241488D01*
X174744780Y-57051965D01*
X174746700Y-57042312D01*
X174748620Y-57051965D01*
X174827123Y-57241488D01*
X174941092Y-57412054D01*
X175086146Y-57557108D01*
X175256712Y-57671077D01*
X175446235Y-57749580D01*
X175647431Y-57789600D01*
X175852569Y-57789600D01*
X176053765Y-57749580D01*
X176243288Y-57671077D01*
X176413854Y-57557108D01*
X176558908Y-57412054D01*
X176672877Y-57241488D01*
X176751380Y-57051965D01*
X176791400Y-56850769D01*
X176791400Y-56645631D01*
X176751380Y-56444435D01*
X176672877Y-56254912D01*
X176558908Y-56084346D01*
X176413854Y-55939292D01*
X176243288Y-55825323D01*
X176053765Y-55746820D01*
X175852569Y-55706800D01*
X175647431Y-55706800D01*
X175446235Y-55746820D01*
X175256712Y-55825323D01*
X175086146Y-55939292D01*
X174941092Y-56084346D01*
X174827123Y-56254912D01*
X174748620Y-56444435D01*
X174746700Y-56454088D01*
X174744780Y-56444435D01*
X174666277Y-56254912D01*
X174552308Y-56084346D01*
X174407254Y-55939292D01*
X174236688Y-55825323D01*
X174047165Y-55746820D01*
X173845969Y-55706800D01*
X173640831Y-55706800D01*
X173439635Y-55746820D01*
X173250112Y-55825323D01*
X173079546Y-55939292D01*
X172934492Y-56084346D01*
X172820523Y-56254912D01*
X172742020Y-56444435D01*
X172740100Y-56454088D01*
X172738180Y-56444435D01*
X172659677Y-56254912D01*
X172545708Y-56084346D01*
X172400654Y-55939292D01*
X172230088Y-55825323D01*
X172040565Y-55746820D01*
X171839369Y-55706800D01*
X171634231Y-55706800D01*
X171433035Y-55746820D01*
X171243512Y-55825323D01*
X171072946Y-55939292D01*
X170927892Y-56084346D01*
X170813923Y-56254912D01*
X170735420Y-56444435D01*
X170733500Y-56454088D01*
X170731580Y-56444435D01*
X170653077Y-56254912D01*
X170539108Y-56084346D01*
X170394054Y-55939292D01*
X170223488Y-55825323D01*
X170033965Y-55746820D01*
X169832769Y-55706800D01*
X169627631Y-55706800D01*
X169426435Y-55746820D01*
X169236912Y-55825323D01*
X169066346Y-55939292D01*
X168921292Y-56084346D01*
X168807323Y-56254912D01*
X168728820Y-56444435D01*
X168726900Y-56454088D01*
X168724980Y-56444435D01*
X168646477Y-56254912D01*
X168532508Y-56084346D01*
X168387454Y-55939292D01*
X168216888Y-55825323D01*
X168027365Y-55746820D01*
X167826169Y-55706800D01*
X167621031Y-55706800D01*
X167419835Y-55746820D01*
X167230312Y-55825323D01*
X167088599Y-55920013D01*
X167088599Y-45870054D01*
X171975910Y-40982745D01*
X171989462Y-40971623D01*
X172000585Y-40958070D01*
X172000595Y-40958060D01*
X172033900Y-40917477D01*
X172033902Y-40917475D01*
X172066921Y-40855700D01*
X172087254Y-40788670D01*
X172092400Y-40736423D01*
X172092400Y-40736414D01*
X172094119Y-40718961D01*
X172092400Y-40701508D01*
X172092400Y-35731709D01*
X172230088Y-35674677D01*
X172400654Y-35560708D01*
X172545708Y-35415654D01*
X172659677Y-35245088D01*
X172738180Y-35055565D01*
X172740100Y-35045912D01*
X172742020Y-35055565D01*
X172820523Y-35245088D01*
X172934492Y-35415654D01*
X173079546Y-35560708D01*
X173250112Y-35674677D01*
X173439635Y-35753180D01*
X173640831Y-35793200D01*
X173845969Y-35793200D01*
X174047165Y-35753180D01*
X174236688Y-35674677D01*
X174407254Y-35560708D01*
X174552308Y-35415654D01*
X174666277Y-35245088D01*
X174744780Y-35055565D01*
X174746700Y-35045912D01*
X174748620Y-35055565D01*
X174827123Y-35245088D01*
X174941092Y-35415654D01*
X175086146Y-35560708D01*
X175256712Y-35674677D01*
X175446235Y-35753180D01*
X175647431Y-35793200D01*
X175852569Y-35793200D01*
X176053765Y-35753180D01*
X176243288Y-35674677D01*
X176413854Y-35560708D01*
X176558908Y-35415654D01*
X176672877Y-35245088D01*
X176751380Y-35055565D01*
X176791400Y-34854369D01*
X176791400Y-34649231D01*
X176751380Y-34448035D01*
X176672877Y-34258512D01*
X176558908Y-34087946D01*
X176413854Y-33942892D01*
X176243288Y-33828923D01*
X176133800Y-33783572D01*
X176133800Y-33229814D01*
X176155110Y-33223350D01*
X176246869Y-33174303D01*
X176327298Y-33108298D01*
X176393303Y-33027869D01*
X176442350Y-32936110D01*
X176472553Y-32836544D01*
X176482751Y-32733000D01*
X176482751Y-31783000D01*
X176472553Y-31679456D01*
X176442350Y-31579890D01*
X176393303Y-31488131D01*
X176327298Y-31407702D01*
X176246869Y-31341697D01*
X176155110Y-31292650D01*
X176055544Y-31262447D01*
X175952000Y-31252249D01*
X175452000Y-31252249D01*
X175348456Y-31262447D01*
X175248890Y-31292650D01*
X175157131Y-31341697D01*
X175076702Y-31407702D01*
X175010697Y-31488131D01*
X174961650Y-31579890D01*
X174931447Y-31679456D01*
X174921249Y-31783000D01*
X174921249Y-32733000D01*
X174931447Y-32836544D01*
X174961650Y-32936110D01*
X175010697Y-33027869D01*
X175076702Y-33108298D01*
X175157131Y-33174303D01*
X175248890Y-33223350D01*
X175270200Y-33229814D01*
X175270201Y-33823336D01*
X175256712Y-33828923D01*
X175086146Y-33942892D01*
X174941092Y-34087946D01*
X174827123Y-34258512D01*
X174748620Y-34448035D01*
X174746700Y-34457688D01*
X174744780Y-34448035D01*
X174666277Y-34258512D01*
X174552308Y-34087946D01*
X174407254Y-33942892D01*
X174236688Y-33828923D01*
X174047165Y-33750420D01*
X173845969Y-33710400D01*
X173640831Y-33710400D01*
X173439635Y-33750420D01*
X173250112Y-33828923D01*
X173079546Y-33942892D01*
X172934492Y-34087946D01*
X172820523Y-34258512D01*
X172742020Y-34448035D01*
X172740100Y-34457688D01*
X172738180Y-34448035D01*
X172659677Y-34258512D01*
X172545708Y-34087946D01*
X172400654Y-33942892D01*
X172230088Y-33828923D01*
X172040565Y-33750420D01*
X171839369Y-33710400D01*
X171634231Y-33710400D01*
X171433035Y-33750420D01*
X171243512Y-33828923D01*
X171072946Y-33942892D01*
X170927892Y-34087946D01*
X170813923Y-34258512D01*
X170735420Y-34448035D01*
X170733500Y-34457688D01*
X170731580Y-34448035D01*
X170653077Y-34258512D01*
X170539108Y-34087946D01*
X170394054Y-33942892D01*
X170223488Y-33828923D01*
X170033965Y-33750420D01*
X169832769Y-33710400D01*
X169627631Y-33710400D01*
X169426435Y-33750420D01*
X169236912Y-33828923D01*
X169066346Y-33942892D01*
X168921292Y-34087946D01*
X168807323Y-34258512D01*
X168728820Y-34448035D01*
X168726900Y-34457688D01*
X168724980Y-34448035D01*
X168646477Y-34258512D01*
X168532508Y-34087946D01*
X168387454Y-33942892D01*
X168216888Y-33828923D01*
X168027365Y-33750420D01*
X167826169Y-33710400D01*
X167621031Y-33710400D01*
X167419835Y-33750420D01*
X167230312Y-33828923D01*
X167059746Y-33942892D01*
X166914692Y-34087946D01*
X166800723Y-34258512D01*
X166722220Y-34448035D01*
X166720300Y-34457688D01*
X166718380Y-34448035D01*
X166639877Y-34258512D01*
X166525908Y-34087946D01*
X166380854Y-33942892D01*
X166210288Y-33828923D01*
X166020765Y-33750420D01*
X165819569Y-33710400D01*
X165614431Y-33710400D01*
X165413235Y-33750420D01*
X165223712Y-33828923D01*
X165053146Y-33942892D01*
X164908092Y-34087946D01*
X164794123Y-34258512D01*
X164715620Y-34448035D01*
X164713700Y-34457688D01*
X164711780Y-34448035D01*
X164633277Y-34258512D01*
X164519308Y-34087946D01*
X164374254Y-33942892D01*
X164203688Y-33828923D01*
X164014165Y-33750420D01*
X163812969Y-33710400D01*
X163607831Y-33710400D01*
X163406635Y-33750420D01*
X163217112Y-33828923D01*
X163046546Y-33942892D01*
X162901492Y-34087946D01*
X162787523Y-34258512D01*
X162709020Y-34448035D01*
X162707100Y-34457688D01*
X162705180Y-34448035D01*
X162626677Y-34258512D01*
X162512708Y-34087946D01*
X162367654Y-33942892D01*
X162197088Y-33828923D01*
X162007565Y-33750420D01*
X161806369Y-33710400D01*
X161601231Y-33710400D01*
X161400035Y-33750420D01*
X161210512Y-33828923D01*
X161039946Y-33942892D01*
X160894892Y-34087946D01*
X160780923Y-34258512D01*
X160702420Y-34448035D01*
X160700500Y-34457688D01*
X160698580Y-34448035D01*
X160620077Y-34258512D01*
X160506108Y-34087946D01*
X160361054Y-33942892D01*
X160190488Y-33828923D01*
X160000965Y-33750420D01*
X159799769Y-33710400D01*
X159594631Y-33710400D01*
X159393435Y-33750420D01*
X159203912Y-33828923D01*
X159033346Y-33942892D01*
X158888292Y-34087946D01*
X158774323Y-34258512D01*
X158695820Y-34448035D01*
X158667877Y-34588513D01*
X158645836Y-34471921D01*
X158572879Y-34290941D01*
X158563957Y-34274250D01*
X158437735Y-34184270D01*
X157870205Y-34751800D01*
X158437735Y-35319330D01*
X158563957Y-35229350D01*
X158640342Y-35049790D01*
X158668167Y-34916540D01*
X158695820Y-35055565D01*
X158774323Y-35245088D01*
X158888292Y-35415654D01*
X159033346Y-35560708D01*
X159203912Y-35674677D01*
X159393435Y-35753180D01*
X159594631Y-35793200D01*
X159799769Y-35793200D01*
X160000965Y-35753180D01*
X160190488Y-35674677D01*
X160361054Y-35560708D01*
X160506108Y-35415654D01*
X160620077Y-35245088D01*
X160698580Y-35055565D01*
X160700500Y-35045912D01*
X160702420Y-35055565D01*
X160780923Y-35245088D01*
X160894892Y-35415654D01*
X161039946Y-35560708D01*
X161210512Y-35674677D01*
X161400035Y-35753180D01*
X161601231Y-35793200D01*
X161806369Y-35793200D01*
X162007565Y-35753180D01*
X162197088Y-35674677D01*
X162367654Y-35560708D01*
X162512708Y-35415654D01*
X162626677Y-35245088D01*
X162705180Y-35055565D01*
X162707100Y-35045912D01*
X162709020Y-35055565D01*
X162787523Y-35245088D01*
X162901492Y-35415654D01*
X163046546Y-35560708D01*
X163217112Y-35674677D01*
X163406635Y-35753180D01*
X163607831Y-35793200D01*
X163812969Y-35793200D01*
X164014165Y-35753180D01*
X164203688Y-35674677D01*
X164374254Y-35560708D01*
X164519308Y-35415654D01*
X164633277Y-35245088D01*
X164711780Y-35055565D01*
X164713700Y-35045912D01*
X164715620Y-35055565D01*
X164794123Y-35245088D01*
X164908092Y-35415654D01*
X165053146Y-35560708D01*
X165223712Y-35674677D01*
X165413235Y-35753180D01*
X165614431Y-35793200D01*
X165819569Y-35793200D01*
X166020765Y-35753180D01*
X166210288Y-35674677D01*
X166380854Y-35560708D01*
X166525908Y-35415654D01*
X166639877Y-35245088D01*
X166718380Y-35055565D01*
X166720300Y-35045912D01*
X166722220Y-35055565D01*
X166779253Y-35193254D01*
X165691441Y-36281066D01*
X165677878Y-36292197D01*
X165633440Y-36346344D01*
X165616930Y-36377232D01*
X165600420Y-36408119D01*
X165580086Y-36475150D01*
X165573221Y-36544860D01*
X165574941Y-36562325D01*
X165574940Y-37529719D01*
X165548101Y-37537860D01*
X165499563Y-37563804D01*
X165457019Y-37598719D01*
X165422104Y-37641263D01*
X165396160Y-37689801D01*
X165380184Y-37742468D01*
X165374789Y-37797240D01*
X165374789Y-37863780D01*
X164931231Y-37863780D01*
X164931231Y-37769378D01*
X164921033Y-37665834D01*
X164890830Y-37566269D01*
X164841784Y-37474510D01*
X164775778Y-37394082D01*
X164695350Y-37328076D01*
X164603591Y-37279030D01*
X164504026Y-37248827D01*
X164400482Y-37238629D01*
X163875478Y-37238629D01*
X163771934Y-37248827D01*
X163672369Y-37279030D01*
X163580610Y-37328076D01*
X163500182Y-37394082D01*
X163434176Y-37474510D01*
X163385130Y-37566269D01*
X163354927Y-37665834D01*
X163344729Y-37769378D01*
X163344729Y-38669382D01*
X163354927Y-38772926D01*
X163385130Y-38872491D01*
X163434176Y-38964250D01*
X163500182Y-39044678D01*
X163580610Y-39110684D01*
X163672369Y-39159730D01*
X163771934Y-39189933D01*
X163875478Y-39200131D01*
X164400482Y-39200131D01*
X164504026Y-39189933D01*
X164603591Y-39159730D01*
X164695350Y-39110684D01*
X164775778Y-39044678D01*
X164841784Y-38964250D01*
X164890830Y-38872491D01*
X164921033Y-38772926D01*
X164931231Y-38669382D01*
X164931231Y-38574980D01*
X165374789Y-38574980D01*
X165374789Y-38797240D01*
X165380184Y-38852012D01*
X165396160Y-38904679D01*
X165422104Y-38953217D01*
X165457019Y-38995761D01*
X165499563Y-39030676D01*
X165548101Y-39056620D01*
X165600768Y-39072596D01*
X165655540Y-39077991D01*
X166205540Y-39077991D01*
X166260312Y-39072596D01*
X166312979Y-39056620D01*
X166361517Y-39030676D01*
X166404061Y-38995761D01*
X166438976Y-38953217D01*
X166464920Y-38904679D01*
X166480896Y-38852012D01*
X166486291Y-38797240D01*
X166925834Y-38797240D01*
X166930248Y-38842053D01*
X166943319Y-38885145D01*
X166964546Y-38924858D01*
X166993113Y-38959667D01*
X167027922Y-38988234D01*
X167067635Y-39009461D01*
X167110727Y-39022532D01*
X167155540Y-39026946D01*
X167446390Y-39025840D01*
X167503540Y-38968690D01*
X167503540Y-38424240D01*
X167757540Y-38424240D01*
X167757540Y-38968690D01*
X167814690Y-39025840D01*
X168105540Y-39026946D01*
X168150353Y-39022532D01*
X168193445Y-39009461D01*
X168233158Y-38988234D01*
X168267967Y-38959667D01*
X168296534Y-38924858D01*
X168317761Y-38885145D01*
X168330832Y-38842053D01*
X168335246Y-38797240D01*
X168334140Y-38481390D01*
X168276990Y-38424240D01*
X167757540Y-38424240D01*
X167503540Y-38424240D01*
X166984090Y-38424240D01*
X166926940Y-38481390D01*
X166925834Y-38797240D01*
X166486291Y-38797240D01*
X166486291Y-37797240D01*
X166925834Y-37797240D01*
X166926940Y-38113090D01*
X166984090Y-38170240D01*
X167503540Y-38170240D01*
X167503540Y-37625790D01*
X167757540Y-37625790D01*
X167757540Y-38170240D01*
X168276990Y-38170240D01*
X168334140Y-38113090D01*
X168335246Y-37797240D01*
X168330832Y-37752427D01*
X168317761Y-37709335D01*
X168296534Y-37669622D01*
X168267967Y-37634813D01*
X168233158Y-37606246D01*
X168193445Y-37585019D01*
X168150353Y-37571948D01*
X168105540Y-37567534D01*
X167814690Y-37568640D01*
X167757540Y-37625790D01*
X167503540Y-37625790D01*
X167446390Y-37568640D01*
X167155540Y-37567534D01*
X167110727Y-37571948D01*
X167067635Y-37585019D01*
X167027922Y-37606246D01*
X166993113Y-37634813D01*
X166964546Y-37669622D01*
X166943319Y-37709335D01*
X166930248Y-37752427D01*
X166925834Y-37797240D01*
X166486291Y-37797240D01*
X166480896Y-37742468D01*
X166464920Y-37689801D01*
X166438976Y-37641263D01*
X166404061Y-37598719D01*
X166361517Y-37563804D01*
X166312979Y-37537860D01*
X166286140Y-37529719D01*
X166286140Y-36692153D01*
X167282146Y-35696147D01*
X167419835Y-35753180D01*
X167621031Y-35793200D01*
X167826169Y-35793200D01*
X168027365Y-35753180D01*
X168216888Y-35674677D01*
X168387454Y-35560708D01*
X168532508Y-35415654D01*
X168646477Y-35245088D01*
X168724980Y-35055565D01*
X168726900Y-35045912D01*
X168728820Y-35055565D01*
X168807323Y-35245088D01*
X168921292Y-35415654D01*
X169066346Y-35560708D01*
X169236912Y-35674677D01*
X169426435Y-35753180D01*
X169627631Y-35793200D01*
X169832769Y-35793200D01*
X170033965Y-35753180D01*
X170223488Y-35674677D01*
X170394054Y-35560708D01*
X170539108Y-35415654D01*
X170653077Y-35245088D01*
X170731580Y-35055565D01*
X170733500Y-35045912D01*
X170735420Y-35055565D01*
X170813923Y-35245088D01*
X170927892Y-35415654D01*
X171072946Y-35560708D01*
X171243512Y-35674677D01*
X171381201Y-35731710D01*
X171381200Y-40571665D01*
X166493900Y-45458967D01*
X166480337Y-45470098D01*
X166435899Y-45524245D01*
X166419389Y-45555133D01*
X166402879Y-45586020D01*
X166382545Y-45653051D01*
X166375680Y-45722761D01*
X166377400Y-45740227D01*
X166377399Y-55936984D01*
X166210288Y-55825323D01*
X166072600Y-55768291D01*
X166072600Y-47228455D01*
X166074319Y-47211000D01*
X166072600Y-47193545D01*
X166072600Y-47193537D01*
X166067454Y-47141290D01*
X166047121Y-47074260D01*
X166014101Y-47012484D01*
X165969663Y-46958337D01*
X165956100Y-46947206D01*
X160686344Y-41677451D01*
X160686344Y-41676447D01*
X160688752Y-41652000D01*
X160688752Y-41152000D01*
X160686344Y-41127553D01*
X160686344Y-41102991D01*
X160680949Y-41048219D01*
X160661827Y-40952086D01*
X160645852Y-40899420D01*
X160608343Y-40808864D01*
X160582398Y-40760324D01*
X160527942Y-40678825D01*
X160493027Y-40636281D01*
X160423719Y-40566973D01*
X160381175Y-40532058D01*
X160299676Y-40477602D01*
X160251136Y-40451657D01*
X160160580Y-40414148D01*
X160107914Y-40398173D01*
X160011781Y-40379051D01*
X159957009Y-40373656D01*
X159932447Y-40373656D01*
X159908000Y-40371248D01*
X159408000Y-40371248D01*
X159353228Y-40376643D01*
X159300561Y-40392619D01*
X159258000Y-40415368D01*
X159215439Y-40392619D01*
X159162772Y-40376643D01*
X159108000Y-40371248D01*
X158608000Y-40371248D01*
X158583553Y-40373656D01*
X158558991Y-40373656D01*
X158504219Y-40379051D01*
X158408086Y-40398173D01*
X158355420Y-40414148D01*
X158264864Y-40451657D01*
X158216324Y-40477602D01*
X158134825Y-40532058D01*
X158092281Y-40566973D01*
X158022973Y-40636281D01*
X157988058Y-40678825D01*
X157933602Y-40760324D01*
X157907657Y-40808864D01*
X157870148Y-40899420D01*
X157854173Y-40952086D01*
X157835051Y-41048219D01*
X157829656Y-41102991D01*
X157829656Y-41127553D01*
X157827248Y-41152000D01*
X157827248Y-41652000D01*
X157829656Y-41676447D01*
X157829656Y-41701009D01*
X157835051Y-41755781D01*
X157854173Y-41851914D01*
X157870148Y-41904580D01*
X157907657Y-41995136D01*
X157933602Y-42043676D01*
X157988058Y-42125175D01*
X158022973Y-42167719D01*
X158092281Y-42237027D01*
X158134825Y-42271942D01*
X158216324Y-42326398D01*
X158252401Y-42345681D01*
X158252401Y-42870035D01*
X158250681Y-42887500D01*
X158257546Y-42957210D01*
X158277880Y-43024241D01*
X158294390Y-43055128D01*
X158310900Y-43086016D01*
X158355338Y-43140163D01*
X158368901Y-43151294D01*
X158695471Y-43477864D01*
X158608002Y-43469249D01*
X158082998Y-43469249D01*
X157979454Y-43479447D01*
X157879889Y-43509650D01*
X157788130Y-43558696D01*
X157707702Y-43624702D01*
X157641696Y-43705130D01*
X157592650Y-43796889D01*
X157562447Y-43896454D01*
X157552249Y-43999998D01*
X157552249Y-44094400D01*
X154613751Y-44094400D01*
X154613751Y-43993750D01*
X154603673Y-43891425D01*
X154573826Y-43793032D01*
X154525357Y-43702353D01*
X154460128Y-43622872D01*
X154380647Y-43557643D01*
X154289968Y-43509174D01*
X154191575Y-43479327D01*
X154089250Y-43469249D01*
X153601750Y-43469249D01*
X153499425Y-43479327D01*
X153401032Y-43509174D01*
X153310353Y-43557643D01*
X153230872Y-43622872D01*
X153165643Y-43702353D01*
X153117174Y-43793032D01*
X153087327Y-43891425D01*
X153077249Y-43993750D01*
X152687183Y-43993750D01*
X152687706Y-43750000D01*
X152683292Y-43705187D01*
X152670221Y-43662095D01*
X152648994Y-43622382D01*
X152620427Y-43587573D01*
X152585618Y-43559006D01*
X152545905Y-43537779D01*
X152502813Y-43524708D01*
X152458000Y-43520294D01*
X152154650Y-43521400D01*
X152097500Y-43578550D01*
X151843500Y-43578550D01*
X151786350Y-43521400D01*
X151483000Y-43520294D01*
X151438187Y-43524708D01*
X151395095Y-43537779D01*
X151355382Y-43559006D01*
X151320573Y-43587573D01*
X151292006Y-43622382D01*
X151270779Y-43662095D01*
X151257708Y-43705187D01*
X151253294Y-43750000D01*
X145553600Y-43750000D01*
X145553600Y-37988764D01*
X150762600Y-37988764D01*
X150762600Y-38211236D01*
X150806002Y-38429434D01*
X150891138Y-38634972D01*
X151014737Y-38819951D01*
X151172049Y-38977263D01*
X151357028Y-39100862D01*
X151562566Y-39185998D01*
X151780764Y-39229400D01*
X152003236Y-39229400D01*
X152221434Y-39185998D01*
X152400807Y-39111700D01*
X153129344Y-39840238D01*
X153140477Y-39853803D01*
X153194624Y-39898241D01*
X153256400Y-39931261D01*
X153323430Y-39951594D01*
X153375677Y-39956740D01*
X153375685Y-39956740D01*
X153393140Y-39958459D01*
X153410595Y-39956740D01*
X164887147Y-39956740D01*
X165374789Y-40444383D01*
X165374789Y-40997240D01*
X165380184Y-41052012D01*
X165396160Y-41104679D01*
X165422104Y-41153217D01*
X165457019Y-41195761D01*
X165499563Y-41230676D01*
X165548101Y-41256620D01*
X165600768Y-41272596D01*
X165655540Y-41277991D01*
X166205540Y-41277991D01*
X166260312Y-41272596D01*
X166312979Y-41256620D01*
X166361517Y-41230676D01*
X166404061Y-41195761D01*
X166438976Y-41153217D01*
X166464920Y-41104679D01*
X166480896Y-41052012D01*
X166486291Y-40997240D01*
X166486291Y-39997240D01*
X167274789Y-39997240D01*
X167274789Y-40997240D01*
X167280184Y-41052012D01*
X167296160Y-41104679D01*
X167322104Y-41153217D01*
X167357019Y-41195761D01*
X167399563Y-41230676D01*
X167448101Y-41256620D01*
X167500768Y-41272596D01*
X167555540Y-41277991D01*
X168105540Y-41277991D01*
X168160312Y-41272596D01*
X168212979Y-41256620D01*
X168261517Y-41230676D01*
X168304061Y-41195761D01*
X168338976Y-41153217D01*
X168364920Y-41104679D01*
X168380896Y-41052012D01*
X168386291Y-40997240D01*
X168386291Y-40967660D01*
X169015455Y-40967660D01*
X169067027Y-41019232D01*
X169168950Y-41087335D01*
X169282202Y-41134245D01*
X169402429Y-41158160D01*
X169525011Y-41158160D01*
X169645238Y-41134245D01*
X169758490Y-41087335D01*
X169860413Y-41019232D01*
X169947092Y-40932553D01*
X170015195Y-40830630D01*
X170062105Y-40717378D01*
X170086020Y-40597151D01*
X170086020Y-40474569D01*
X170062105Y-40354342D01*
X170015195Y-40241090D01*
X169947092Y-40139167D01*
X169860413Y-40052488D01*
X169758490Y-39984385D01*
X169645238Y-39937475D01*
X169525011Y-39913560D01*
X169402429Y-39913560D01*
X169282202Y-39937475D01*
X169168950Y-39984385D01*
X169067027Y-40052488D01*
X169015455Y-40104060D01*
X168386291Y-40104060D01*
X168386291Y-39997240D01*
X168380896Y-39942468D01*
X168364920Y-39889801D01*
X168338976Y-39841263D01*
X168304061Y-39798719D01*
X168261517Y-39763804D01*
X168212979Y-39737860D01*
X168160312Y-39721884D01*
X168105540Y-39716489D01*
X167555540Y-39716489D01*
X167500768Y-39721884D01*
X167448101Y-39737860D01*
X167399563Y-39763804D01*
X167357019Y-39798719D01*
X167322104Y-39841263D01*
X167296160Y-39889801D01*
X167280184Y-39942468D01*
X167274789Y-39997240D01*
X166486291Y-39997240D01*
X166480896Y-39942468D01*
X166464920Y-39889801D01*
X166438976Y-39841263D01*
X166404061Y-39798719D01*
X166361517Y-39763804D01*
X166312979Y-39737860D01*
X166260312Y-39721884D01*
X166205540Y-39716489D01*
X165655540Y-39716489D01*
X165652939Y-39716745D01*
X165298239Y-39362046D01*
X165287103Y-39348477D01*
X165232956Y-39304039D01*
X165171180Y-39271019D01*
X165104150Y-39250686D01*
X165051903Y-39245540D01*
X165051895Y-39245540D01*
X165034440Y-39243821D01*
X165016985Y-39245540D01*
X153540434Y-39245540D01*
X153214274Y-38919380D01*
X161570774Y-38919380D01*
X161575188Y-38964193D01*
X161588259Y-39007285D01*
X161609486Y-39046998D01*
X161638053Y-39081807D01*
X161672862Y-39110374D01*
X161712575Y-39131601D01*
X161755667Y-39144672D01*
X161800480Y-39149086D01*
X162128830Y-39147980D01*
X162185980Y-39090830D01*
X162185980Y-38346380D01*
X162439980Y-38346380D01*
X162439980Y-39090830D01*
X162497130Y-39147980D01*
X162825480Y-39149086D01*
X162870293Y-39144672D01*
X162913385Y-39131601D01*
X162953098Y-39110374D01*
X162987907Y-39081807D01*
X163016474Y-39046998D01*
X163037701Y-39007285D01*
X163050772Y-38964193D01*
X163055186Y-38919380D01*
X163054080Y-38403530D01*
X162996930Y-38346380D01*
X162439980Y-38346380D01*
X162185980Y-38346380D01*
X161629030Y-38346380D01*
X161571880Y-38403530D01*
X161570774Y-38919380D01*
X153214274Y-38919380D01*
X152903700Y-38608807D01*
X152977998Y-38429434D01*
X153021400Y-38211236D01*
X153021400Y-37988764D01*
X152977998Y-37770566D01*
X152892862Y-37565028D01*
X152769263Y-37380049D01*
X152611951Y-37222737D01*
X152426972Y-37099138D01*
X152221434Y-37014002D01*
X152003236Y-36970600D01*
X151780764Y-36970600D01*
X151562566Y-37014002D01*
X151357028Y-37099138D01*
X151172049Y-37222737D01*
X151014737Y-37380049D01*
X150891138Y-37565028D01*
X150806002Y-37770566D01*
X150762600Y-37988764D01*
X145553600Y-37988764D01*
X145553600Y-34710000D01*
X150761249Y-34710000D01*
X150761249Y-36410000D01*
X150766644Y-36464772D01*
X150782620Y-36517439D01*
X150808564Y-36565977D01*
X150843479Y-36608521D01*
X150886023Y-36643436D01*
X150934561Y-36669380D01*
X150987228Y-36685356D01*
X151042000Y-36690751D01*
X152742000Y-36690751D01*
X152796772Y-36685356D01*
X152849439Y-36669380D01*
X152897977Y-36643436D01*
X152940521Y-36608521D01*
X152975436Y-36565977D01*
X153001380Y-36517439D01*
X153017356Y-36464772D01*
X153022751Y-36410000D01*
X153022751Y-35915600D01*
X155340707Y-35915600D01*
X156269549Y-36844443D01*
X156269549Y-37584802D01*
X156279747Y-37688346D01*
X156309950Y-37787911D01*
X156358996Y-37879670D01*
X156425002Y-37960098D01*
X156505430Y-38026104D01*
X156597189Y-38075150D01*
X156696754Y-38105353D01*
X156800298Y-38115551D01*
X157325302Y-38115551D01*
X157428846Y-38105353D01*
X157528411Y-38075150D01*
X157620170Y-38026104D01*
X157700598Y-37960098D01*
X157766604Y-37879670D01*
X157790587Y-37834800D01*
X158145594Y-37834800D01*
X158150008Y-37879613D01*
X158163079Y-37922705D01*
X158184306Y-37962418D01*
X158212873Y-37997227D01*
X158247682Y-38025794D01*
X158287395Y-38047021D01*
X158330487Y-38060092D01*
X158375300Y-38064506D01*
X158703650Y-38063400D01*
X158760800Y-38006250D01*
X158760800Y-37261800D01*
X159014800Y-37261800D01*
X159014800Y-38006250D01*
X159071950Y-38063400D01*
X159400300Y-38064506D01*
X159445113Y-38060092D01*
X159488205Y-38047021D01*
X159527918Y-38025794D01*
X159562727Y-37997227D01*
X159591294Y-37962418D01*
X159612521Y-37922705D01*
X159625592Y-37879613D01*
X159630006Y-37834800D01*
X159629330Y-37519380D01*
X161570774Y-37519380D01*
X161571880Y-38035230D01*
X161629030Y-38092380D01*
X162185980Y-38092380D01*
X162185980Y-37347930D01*
X162439980Y-37347930D01*
X162439980Y-38092380D01*
X162996930Y-38092380D01*
X163054080Y-38035230D01*
X163055186Y-37519380D01*
X163050772Y-37474567D01*
X163037701Y-37431475D01*
X163016474Y-37391762D01*
X162987907Y-37356953D01*
X162953098Y-37328386D01*
X162913385Y-37307159D01*
X162870293Y-37294088D01*
X162825480Y-37289674D01*
X162497130Y-37290780D01*
X162439980Y-37347930D01*
X162185980Y-37347930D01*
X162128830Y-37290780D01*
X161800480Y-37289674D01*
X161755667Y-37294088D01*
X161712575Y-37307159D01*
X161672862Y-37328386D01*
X161638053Y-37356953D01*
X161609486Y-37391762D01*
X161588259Y-37431475D01*
X161575188Y-37474567D01*
X161570774Y-37519380D01*
X159629330Y-37519380D01*
X159628900Y-37318950D01*
X159571750Y-37261800D01*
X159014800Y-37261800D01*
X158760800Y-37261800D01*
X158203850Y-37261800D01*
X158146700Y-37318950D01*
X158145594Y-37834800D01*
X157790587Y-37834800D01*
X157815650Y-37787911D01*
X157845853Y-37688346D01*
X157856051Y-37584802D01*
X157856051Y-36684798D01*
X157845853Y-36581254D01*
X157815650Y-36481689D01*
X157790588Y-36434800D01*
X158145594Y-36434800D01*
X158146700Y-36950650D01*
X158203850Y-37007800D01*
X158760800Y-37007800D01*
X158760800Y-36263350D01*
X159014800Y-36263350D01*
X159014800Y-37007800D01*
X159571750Y-37007800D01*
X159628900Y-36950650D01*
X159630006Y-36434800D01*
X159625592Y-36389987D01*
X159612521Y-36346895D01*
X159591294Y-36307182D01*
X159562727Y-36272373D01*
X159527918Y-36243806D01*
X159488205Y-36222579D01*
X159445113Y-36209508D01*
X159400300Y-36205094D01*
X159071950Y-36206200D01*
X159014800Y-36263350D01*
X158760800Y-36263350D01*
X158703650Y-36206200D01*
X158375300Y-36205094D01*
X158330487Y-36209508D01*
X158287395Y-36222579D01*
X158247682Y-36243806D01*
X158212873Y-36272373D01*
X158184306Y-36307182D01*
X158163079Y-36346895D01*
X158150008Y-36389987D01*
X158145594Y-36434800D01*
X157790588Y-36434800D01*
X157766604Y-36389930D01*
X157700598Y-36309502D01*
X157620170Y-36243496D01*
X157528411Y-36194450D01*
X157428846Y-36164247D01*
X157325302Y-36154049D01*
X156800298Y-36154049D01*
X156696754Y-36164247D01*
X156618791Y-36187897D01*
X155929829Y-35498935D01*
X157123070Y-35498935D01*
X157213050Y-35625157D01*
X157392610Y-35701542D01*
X157583621Y-35741428D01*
X157778744Y-35743283D01*
X157970479Y-35707036D01*
X158151459Y-35634079D01*
X158168150Y-35625157D01*
X158258130Y-35498935D01*
X157690600Y-34931405D01*
X157123070Y-35498935D01*
X155929829Y-35498935D01*
X155751799Y-35320906D01*
X155740663Y-35307337D01*
X155686516Y-35262899D01*
X155624740Y-35229879D01*
X155557710Y-35209546D01*
X155505463Y-35204400D01*
X155505455Y-35204400D01*
X155488000Y-35202681D01*
X155470545Y-35204400D01*
X153022751Y-35204400D01*
X153022751Y-34839944D01*
X156699117Y-34839944D01*
X156735364Y-35031679D01*
X156808321Y-35212659D01*
X156817243Y-35229350D01*
X156943465Y-35319330D01*
X157510995Y-34751800D01*
X156943465Y-34184270D01*
X156817243Y-34274250D01*
X156740858Y-34453810D01*
X156700972Y-34644821D01*
X156699117Y-34839944D01*
X153022751Y-34839944D01*
X153022751Y-34710000D01*
X153017356Y-34655228D01*
X153001380Y-34602561D01*
X152975436Y-34554023D01*
X152940521Y-34511479D01*
X152897977Y-34476564D01*
X152849439Y-34450620D01*
X152796772Y-34434644D01*
X152742000Y-34429249D01*
X151042000Y-34429249D01*
X150987228Y-34434644D01*
X150934561Y-34450620D01*
X150886023Y-34476564D01*
X150843479Y-34511479D01*
X150808564Y-34554023D01*
X150782620Y-34602561D01*
X150766644Y-34655228D01*
X150761249Y-34710000D01*
X145553600Y-34710000D01*
X145553600Y-34004665D01*
X157123070Y-34004665D01*
X157690600Y-34572195D01*
X158258130Y-34004665D01*
X158168150Y-33878443D01*
X157988590Y-33802058D01*
X157797579Y-33762172D01*
X157602456Y-33760317D01*
X157410721Y-33796564D01*
X157229741Y-33869521D01*
X157213050Y-33878443D01*
X157123070Y-34004665D01*
X145553600Y-34004665D01*
X145553600Y-32983000D01*
X173072294Y-32983000D01*
X173076708Y-33027813D01*
X173089779Y-33070905D01*
X173111006Y-33110618D01*
X173139573Y-33145427D01*
X173174382Y-33173994D01*
X173214095Y-33195221D01*
X173257187Y-33208292D01*
X173302000Y-33212706D01*
X173617850Y-33211600D01*
X173675000Y-33154450D01*
X173675000Y-32385000D01*
X173929000Y-32385000D01*
X173929000Y-33154450D01*
X173986150Y-33211600D01*
X174302000Y-33212706D01*
X174346813Y-33208292D01*
X174389905Y-33195221D01*
X174429618Y-33173994D01*
X174464427Y-33145427D01*
X174492994Y-33110618D01*
X174514221Y-33070905D01*
X174527292Y-33027813D01*
X174531706Y-32983000D01*
X174530600Y-32442150D01*
X174473450Y-32385000D01*
X173929000Y-32385000D01*
X173675000Y-32385000D01*
X173130550Y-32385000D01*
X173073400Y-32442150D01*
X173072294Y-32983000D01*
X145553600Y-32983000D01*
X145553600Y-31533000D01*
X173072294Y-31533000D01*
X173073400Y-32073850D01*
X173130550Y-32131000D01*
X173675000Y-32131000D01*
X173675000Y-31361550D01*
X173929000Y-31361550D01*
X173929000Y-32131000D01*
X174473450Y-32131000D01*
X174530600Y-32073850D01*
X174531706Y-31533000D01*
X174527292Y-31488187D01*
X174514221Y-31445095D01*
X174492994Y-31405382D01*
X174464427Y-31370573D01*
X174429618Y-31342006D01*
X174389905Y-31320779D01*
X174346813Y-31307708D01*
X174302000Y-31303294D01*
X173986150Y-31304400D01*
X173929000Y-31361550D01*
X173675000Y-31361550D01*
X173617850Y-31304400D01*
X173302000Y-31303294D01*
X173257187Y-31307708D01*
X173214095Y-31320779D01*
X173174382Y-31342006D01*
X173139573Y-31370573D01*
X173111006Y-31405382D01*
X173089779Y-31445095D01*
X173076708Y-31488187D01*
X173072294Y-31533000D01*
X145553600Y-31533000D01*
X145553600Y-30783600D01*
X180036401Y-30783600D01*
X180036400Y-65736400D01*
%TA.AperFunction,Conductor*%
D21*
G36*
X180036400Y-65736400D02*
G01*
X156513600Y-65736400D01*
X156513600Y-64340548D01*
X156602737Y-64473951D01*
X156760049Y-64631263D01*
X156945028Y-64754862D01*
X157150566Y-64839998D01*
X157368764Y-64883400D01*
X157591236Y-64883400D01*
X157809434Y-64839998D01*
X158014972Y-64754862D01*
X158199951Y-64631263D01*
X158357263Y-64473951D01*
X158480862Y-64288972D01*
X158565998Y-64083434D01*
X158609400Y-63865236D01*
X158609400Y-63642764D01*
X158890600Y-63642764D01*
X158890600Y-63865236D01*
X158934002Y-64083434D01*
X159019138Y-64288972D01*
X159142737Y-64473951D01*
X159300049Y-64631263D01*
X159485028Y-64754862D01*
X159690566Y-64839998D01*
X159908764Y-64883400D01*
X160131236Y-64883400D01*
X160349434Y-64839998D01*
X160554972Y-64754862D01*
X160739951Y-64631263D01*
X160897263Y-64473951D01*
X161020862Y-64288972D01*
X161105998Y-64083434D01*
X161149400Y-63865236D01*
X161149400Y-63642764D01*
X161105998Y-63424566D01*
X161020862Y-63219028D01*
X160897263Y-63034049D01*
X160739951Y-62876737D01*
X160554972Y-62753138D01*
X160349434Y-62668002D01*
X160131236Y-62624600D01*
X159908764Y-62624600D01*
X159690566Y-62668002D01*
X159485028Y-62753138D01*
X159300049Y-62876737D01*
X159142737Y-63034049D01*
X159019138Y-63219028D01*
X158934002Y-63424566D01*
X158890600Y-63642764D01*
X158609400Y-63642764D01*
X158565998Y-63424566D01*
X158480862Y-63219028D01*
X158357263Y-63034049D01*
X158199951Y-62876737D01*
X158014972Y-62753138D01*
X157809434Y-62668002D01*
X157591236Y-62624600D01*
X157368764Y-62624600D01*
X157150566Y-62668002D01*
X156945028Y-62753138D01*
X156760049Y-62876737D01*
X156602737Y-63034049D01*
X156513600Y-63167452D01*
X156513600Y-61800548D01*
X156602737Y-61933951D01*
X156760049Y-62091263D01*
X156945028Y-62214862D01*
X157150566Y-62299998D01*
X157368764Y-62343400D01*
X157591236Y-62343400D01*
X157809434Y-62299998D01*
X158014972Y-62214862D01*
X158199951Y-62091263D01*
X158357263Y-61933951D01*
X158480862Y-61748972D01*
X158565998Y-61543434D01*
X158573246Y-61506994D01*
X158981950Y-61506994D01*
X159059056Y-61703878D01*
X159173091Y-61881936D01*
X159319672Y-62034326D01*
X159493166Y-62155191D01*
X159686906Y-62239886D01*
X159727007Y-62252043D01*
X159893000Y-62227524D01*
X159893000Y-61341000D01*
X160147000Y-61341000D01*
X160147000Y-62227524D01*
X160312993Y-62252043D01*
X160353094Y-62239886D01*
X160546834Y-62155191D01*
X160720328Y-62034326D01*
X160866909Y-61881936D01*
X160980944Y-61703878D01*
X161058050Y-61506994D01*
X161033954Y-61341000D01*
X160147000Y-61341000D01*
X159893000Y-61341000D01*
X159006046Y-61341000D01*
X158981950Y-61506994D01*
X158573246Y-61506994D01*
X158609400Y-61325236D01*
X158609400Y-61102764D01*
X158573247Y-60921006D01*
X158981950Y-60921006D01*
X159006046Y-61087000D01*
X159893000Y-61087000D01*
X159893000Y-60200476D01*
X160147000Y-60200476D01*
X160147000Y-61087000D01*
X161033954Y-61087000D01*
X161058050Y-60921006D01*
X160980944Y-60724122D01*
X160866909Y-60546064D01*
X160720328Y-60393674D01*
X160546834Y-60272809D01*
X160353094Y-60188114D01*
X160312993Y-60175957D01*
X160147000Y-60200476D01*
X159893000Y-60200476D01*
X159727007Y-60175957D01*
X159686906Y-60188114D01*
X159493166Y-60272809D01*
X159319672Y-60393674D01*
X159173091Y-60546064D01*
X159059056Y-60724122D01*
X158981950Y-60921006D01*
X158573247Y-60921006D01*
X158565998Y-60884566D01*
X158480862Y-60679028D01*
X158357263Y-60494049D01*
X158199951Y-60336737D01*
X158014972Y-60213138D01*
X157809434Y-60128002D01*
X157591236Y-60084600D01*
X157368764Y-60084600D01*
X157150566Y-60128002D01*
X156945028Y-60213138D01*
X156760049Y-60336737D01*
X156602737Y-60494049D01*
X156513600Y-60627452D01*
X156513600Y-59958904D01*
X156515068Y-59944000D01*
X156509206Y-59884484D01*
X156491846Y-59827256D01*
X156463655Y-59774513D01*
X156425716Y-59728284D01*
X156379487Y-59690345D01*
X156326744Y-59662154D01*
X156269516Y-59644794D01*
X156224904Y-59640400D01*
X156210000Y-59638932D01*
X156195096Y-59640400D01*
X145553600Y-59640400D01*
X145553600Y-51246000D01*
X151253294Y-51246000D01*
X151257708Y-51290813D01*
X151270779Y-51333905D01*
X151292006Y-51373618D01*
X151320573Y-51408427D01*
X151355382Y-51436994D01*
X151395095Y-51458221D01*
X151438187Y-51471292D01*
X151483000Y-51475706D01*
X151786350Y-51474600D01*
X151843500Y-51417450D01*
X151843500Y-50673000D01*
X152097500Y-50673000D01*
X152097500Y-51417450D01*
X152154650Y-51474600D01*
X152458000Y-51475706D01*
X152502813Y-51471292D01*
X152545905Y-51458221D01*
X152585618Y-51436994D01*
X152620427Y-51408427D01*
X152648994Y-51373618D01*
X152670221Y-51333905D01*
X152683292Y-51290813D01*
X152687706Y-51246000D01*
X152686600Y-50730150D01*
X152629450Y-50673000D01*
X152097500Y-50673000D01*
X151843500Y-50673000D01*
X151311550Y-50673000D01*
X151254400Y-50730150D01*
X151253294Y-51246000D01*
X145553600Y-51246000D01*
X145553600Y-49846000D01*
X151253294Y-49846000D01*
X151254400Y-50361850D01*
X151311550Y-50419000D01*
X151843500Y-50419000D01*
X151843500Y-49674550D01*
X152097500Y-49674550D01*
X152097500Y-50419000D01*
X152629450Y-50419000D01*
X152686600Y-50361850D01*
X152687706Y-49846000D01*
X152683292Y-49801187D01*
X152670221Y-49758095D01*
X152648994Y-49718382D01*
X152620427Y-49683573D01*
X152585618Y-49655006D01*
X152545905Y-49633779D01*
X152502813Y-49620708D01*
X152458000Y-49616294D01*
X152154650Y-49617400D01*
X152097500Y-49674550D01*
X151843500Y-49674550D01*
X151786350Y-49617400D01*
X151483000Y-49616294D01*
X151438187Y-49620708D01*
X151395095Y-49633779D01*
X151355382Y-49655006D01*
X151320573Y-49683573D01*
X151292006Y-49718382D01*
X151270779Y-49758095D01*
X151257708Y-49801187D01*
X151253294Y-49846000D01*
X145553600Y-49846000D01*
X145553600Y-45150000D01*
X151253294Y-45150000D01*
X151257708Y-45194813D01*
X151270779Y-45237905D01*
X151292006Y-45277618D01*
X151320573Y-45312427D01*
X151355382Y-45340994D01*
X151395095Y-45362221D01*
X151438187Y-45375292D01*
X151483000Y-45379706D01*
X151786350Y-45378600D01*
X151843500Y-45321450D01*
X151843500Y-44577000D01*
X152097500Y-44577000D01*
X152097500Y-45321450D01*
X152154650Y-45378600D01*
X152458000Y-45379706D01*
X152502813Y-45375292D01*
X152545905Y-45362221D01*
X152585618Y-45340994D01*
X152620427Y-45312427D01*
X152648994Y-45277618D01*
X152670221Y-45237905D01*
X152683292Y-45194813D01*
X152687706Y-45150000D01*
X152686600Y-44634150D01*
X152629450Y-44577000D01*
X152097500Y-44577000D01*
X151843500Y-44577000D01*
X151311550Y-44577000D01*
X151254400Y-44634150D01*
X151253294Y-45150000D01*
X145553600Y-45150000D01*
X145553600Y-43750000D01*
X151253294Y-43750000D01*
X151254400Y-44265850D01*
X151311550Y-44323000D01*
X151843500Y-44323000D01*
X151843500Y-43578550D01*
X152097500Y-43578550D01*
X152097500Y-44323000D01*
X152629450Y-44323000D01*
X152686600Y-44265850D01*
X152687183Y-43993750D01*
X153077249Y-43993750D01*
X153077249Y-44906250D01*
X153087327Y-45008575D01*
X153117174Y-45106968D01*
X153165643Y-45197647D01*
X153230872Y-45277128D01*
X153310353Y-45342357D01*
X153401032Y-45390826D01*
X153499425Y-45420673D01*
X153601750Y-45430751D01*
X154089250Y-45430751D01*
X154191575Y-45420673D01*
X154289968Y-45390826D01*
X154380647Y-45342357D01*
X154460128Y-45277128D01*
X154525357Y-45197647D01*
X154573826Y-45106968D01*
X154603673Y-45008575D01*
X154613751Y-44906250D01*
X154613751Y-44805600D01*
X157552249Y-44805600D01*
X157552249Y-44900002D01*
X157562447Y-45003546D01*
X157592650Y-45103111D01*
X157641696Y-45194870D01*
X157707702Y-45275298D01*
X157788130Y-45341304D01*
X157879889Y-45390350D01*
X157979454Y-45420553D01*
X158082998Y-45430751D01*
X158608002Y-45430751D01*
X158711546Y-45420553D01*
X158811111Y-45390350D01*
X158902870Y-45341304D01*
X158983298Y-45275298D01*
X159049304Y-45194870D01*
X159098350Y-45103111D01*
X159128553Y-45003546D01*
X159138751Y-44900002D01*
X159138751Y-43999998D01*
X159130136Y-43912530D01*
X159377249Y-44159643D01*
X159377249Y-44900002D01*
X159387447Y-45003546D01*
X159417650Y-45103111D01*
X159466696Y-45194870D01*
X159532702Y-45275298D01*
X159613130Y-45341304D01*
X159704889Y-45390350D01*
X159804454Y-45420553D01*
X159907998Y-45430751D01*
X160433002Y-45430751D01*
X160536546Y-45420553D01*
X160636111Y-45390350D01*
X160727870Y-45341304D01*
X160808298Y-45275298D01*
X160874304Y-45194870D01*
X160923350Y-45103111D01*
X160953553Y-45003546D01*
X160963751Y-44900002D01*
X160963751Y-43999998D01*
X160953553Y-43896454D01*
X160923350Y-43796889D01*
X160874304Y-43705130D01*
X160808298Y-43624702D01*
X160727870Y-43558696D01*
X160636111Y-43509650D01*
X160536546Y-43479447D01*
X160433002Y-43469249D01*
X159907998Y-43469249D01*
X159804454Y-43479447D01*
X159726491Y-43503097D01*
X158963600Y-42740207D01*
X158963600Y-42432752D01*
X159108000Y-42432752D01*
X159162772Y-42427357D01*
X159215439Y-42411381D01*
X159258000Y-42388632D01*
X159300561Y-42411381D01*
X159353228Y-42427357D01*
X159408000Y-42432752D01*
X159908000Y-42432752D01*
X159932447Y-42430344D01*
X159957009Y-42430344D01*
X160011781Y-42424949D01*
X160107914Y-42405827D01*
X160160580Y-42389852D01*
X160251136Y-42352343D01*
X160299676Y-42326398D01*
X160317557Y-42314450D01*
X165361401Y-47358295D01*
X165361400Y-55768291D01*
X165223712Y-55825323D01*
X165053146Y-55939292D01*
X164908092Y-56084346D01*
X164794123Y-56254912D01*
X164715620Y-56444435D01*
X164713700Y-56454088D01*
X164711780Y-56444435D01*
X164633277Y-56254912D01*
X164519308Y-56084346D01*
X164374254Y-55939292D01*
X164203688Y-55825323D01*
X164014165Y-55746820D01*
X163812969Y-55706800D01*
X163607831Y-55706800D01*
X163406635Y-55746820D01*
X163217112Y-55825323D01*
X163046546Y-55939292D01*
X162901492Y-56084346D01*
X162787523Y-56254912D01*
X162709020Y-56444435D01*
X162707100Y-56454088D01*
X162705180Y-56444435D01*
X162626677Y-56254912D01*
X162512708Y-56084346D01*
X162367654Y-55939292D01*
X162197088Y-55825323D01*
X162059400Y-55768291D01*
X162059400Y-49057255D01*
X162061119Y-49039800D01*
X162059400Y-49022345D01*
X162059400Y-49022337D01*
X162054254Y-48970090D01*
X162033921Y-48903060D01*
X162000901Y-48841284D01*
X161956463Y-48787137D01*
X161942900Y-48776006D01*
X160686344Y-47519451D01*
X160686344Y-47518447D01*
X160688752Y-47494000D01*
X160688752Y-46994000D01*
X160686344Y-46969553D01*
X160686344Y-46944991D01*
X160680949Y-46890219D01*
X160661827Y-46794086D01*
X160645852Y-46741420D01*
X160608343Y-46650864D01*
X160582398Y-46602324D01*
X160527942Y-46520825D01*
X160493027Y-46478281D01*
X160423719Y-46408973D01*
X160381175Y-46374058D01*
X160299676Y-46319602D01*
X160251136Y-46293657D01*
X160160580Y-46256148D01*
X160107914Y-46240173D01*
X160011781Y-46221051D01*
X159957009Y-46215656D01*
X159932447Y-46215656D01*
X159908000Y-46213248D01*
X159408000Y-46213248D01*
X159353228Y-46218643D01*
X159300561Y-46234619D01*
X159258000Y-46257368D01*
X159215439Y-46234619D01*
X159162772Y-46218643D01*
X159108000Y-46213248D01*
X158608000Y-46213248D01*
X158583553Y-46215656D01*
X158558991Y-46215656D01*
X158504219Y-46221051D01*
X158408086Y-46240173D01*
X158355420Y-46256148D01*
X158264864Y-46293657D01*
X158216324Y-46319602D01*
X158134825Y-46374058D01*
X158092281Y-46408973D01*
X158022973Y-46478281D01*
X157988058Y-46520825D01*
X157933602Y-46602324D01*
X157907657Y-46650864D01*
X157870148Y-46741420D01*
X157854173Y-46794086D01*
X157835051Y-46890219D01*
X157829656Y-46944991D01*
X157829656Y-46969553D01*
X157827248Y-46994000D01*
X157827248Y-47494000D01*
X157829656Y-47518447D01*
X157829656Y-47543009D01*
X157835051Y-47597781D01*
X157854173Y-47693914D01*
X157870148Y-47746580D01*
X157907657Y-47837136D01*
X157933602Y-47885676D01*
X157988058Y-47967175D01*
X158022973Y-48009719D01*
X158092281Y-48079027D01*
X158134825Y-48113942D01*
X158216324Y-48168398D01*
X158252401Y-48187681D01*
X158252401Y-48966035D01*
X158250681Y-48983500D01*
X158257546Y-49053210D01*
X158277880Y-49120241D01*
X158294390Y-49151128D01*
X158310900Y-49182016D01*
X158355338Y-49236163D01*
X158368901Y-49247294D01*
X158695471Y-49573864D01*
X158608002Y-49565249D01*
X158082998Y-49565249D01*
X157979454Y-49575447D01*
X157879889Y-49605650D01*
X157788130Y-49654696D01*
X157707702Y-49720702D01*
X157641696Y-49801130D01*
X157592650Y-49892889D01*
X157562447Y-49992454D01*
X157552249Y-50095998D01*
X157552249Y-50190400D01*
X154613751Y-50190400D01*
X154613751Y-50089750D01*
X154603673Y-49987425D01*
X154573826Y-49889032D01*
X154525357Y-49798353D01*
X154460128Y-49718872D01*
X154380647Y-49653643D01*
X154289968Y-49605174D01*
X154191575Y-49575327D01*
X154089250Y-49565249D01*
X153601750Y-49565249D01*
X153499425Y-49575327D01*
X153401032Y-49605174D01*
X153310353Y-49653643D01*
X153230872Y-49718872D01*
X153165643Y-49798353D01*
X153117174Y-49889032D01*
X153087327Y-49987425D01*
X153077249Y-50089750D01*
X153077249Y-51002250D01*
X153087327Y-51104575D01*
X153117174Y-51202968D01*
X153165643Y-51293647D01*
X153230872Y-51373128D01*
X153310353Y-51438357D01*
X153401032Y-51486826D01*
X153499425Y-51516673D01*
X153601750Y-51526751D01*
X154089250Y-51526751D01*
X154191575Y-51516673D01*
X154289968Y-51486826D01*
X154380647Y-51438357D01*
X154460128Y-51373128D01*
X154525357Y-51293647D01*
X154573826Y-51202968D01*
X154603673Y-51104575D01*
X154613751Y-51002250D01*
X154613751Y-50901600D01*
X157552249Y-50901600D01*
X157552249Y-50996002D01*
X157562447Y-51099546D01*
X157592650Y-51199111D01*
X157641696Y-51290870D01*
X157707702Y-51371298D01*
X157788130Y-51437304D01*
X157879889Y-51486350D01*
X157979454Y-51516553D01*
X158082998Y-51526751D01*
X158608002Y-51526751D01*
X158711546Y-51516553D01*
X158811111Y-51486350D01*
X158902870Y-51437304D01*
X158983298Y-51371298D01*
X159049304Y-51290870D01*
X159098350Y-51199111D01*
X159128553Y-51099546D01*
X159138751Y-50996002D01*
X159138751Y-50095998D01*
X159130136Y-50008530D01*
X159377249Y-50255643D01*
X159377249Y-50996002D01*
X159387447Y-51099546D01*
X159417650Y-51199111D01*
X159466696Y-51290870D01*
X159532702Y-51371298D01*
X159613130Y-51437304D01*
X159704889Y-51486350D01*
X159804454Y-51516553D01*
X159907998Y-51526751D01*
X160433002Y-51526751D01*
X160536546Y-51516553D01*
X160636111Y-51486350D01*
X160727870Y-51437304D01*
X160808298Y-51371298D01*
X160874304Y-51290870D01*
X160923350Y-51199111D01*
X160953553Y-51099546D01*
X160963751Y-50996002D01*
X160963751Y-50095998D01*
X160953553Y-49992454D01*
X160923350Y-49892889D01*
X160874304Y-49801130D01*
X160808298Y-49720702D01*
X160727870Y-49654696D01*
X160636111Y-49605650D01*
X160536546Y-49575447D01*
X160433002Y-49565249D01*
X159907998Y-49565249D01*
X159804454Y-49575447D01*
X159726491Y-49599097D01*
X158963600Y-48836207D01*
X158963600Y-48274752D01*
X159108000Y-48274752D01*
X159162772Y-48269357D01*
X159215439Y-48253381D01*
X159258000Y-48230632D01*
X159300561Y-48253381D01*
X159353228Y-48269357D01*
X159408000Y-48274752D01*
X159908000Y-48274752D01*
X159932447Y-48272344D01*
X159957009Y-48272344D01*
X160011781Y-48266949D01*
X160107914Y-48247827D01*
X160160580Y-48231852D01*
X160251136Y-48194343D01*
X160299676Y-48168398D01*
X160317557Y-48156450D01*
X161348201Y-49187095D01*
X161348200Y-55768291D01*
X161210512Y-55825323D01*
X161039946Y-55939292D01*
X160894892Y-56084346D01*
X160780923Y-56254912D01*
X160702420Y-56444435D01*
X160700500Y-56454088D01*
X160698580Y-56444435D01*
X160620077Y-56254912D01*
X160506108Y-56084346D01*
X160361054Y-55939292D01*
X160190488Y-55825323D01*
X160000965Y-55746820D01*
X159799769Y-55706800D01*
X159594631Y-55706800D01*
X159393435Y-55746820D01*
X159203912Y-55825323D01*
X159033346Y-55939292D01*
X158888292Y-56084346D01*
X158774323Y-56254912D01*
X158695820Y-56444435D01*
X158693900Y-56454088D01*
X158691980Y-56444435D01*
X158613477Y-56254912D01*
X158499508Y-56084346D01*
X158354454Y-55939292D01*
X158183888Y-55825323D01*
X157994365Y-55746820D01*
X157793169Y-55706800D01*
X157588031Y-55706800D01*
X157386835Y-55746820D01*
X157197312Y-55825323D01*
X157026746Y-55939292D01*
X156881692Y-56084346D01*
X156767723Y-56254912D01*
X156689220Y-56444435D01*
X156649200Y-56645631D01*
X156649200Y-56850769D01*
X156689220Y-57051965D01*
X156767723Y-57241488D01*
X156881692Y-57412054D01*
X157026746Y-57557108D01*
X157197312Y-57671077D01*
X157386835Y-57749580D01*
X157588031Y-57789600D01*
X157793169Y-57789600D01*
X157994365Y-57749580D01*
X158183888Y-57671077D01*
X158354454Y-57557108D01*
X158499508Y-57412054D01*
X158613477Y-57241488D01*
X158691980Y-57051965D01*
X158693900Y-57042312D01*
X158695820Y-57051965D01*
X158774323Y-57241488D01*
X158888292Y-57412054D01*
X159033346Y-57557108D01*
X159203912Y-57671077D01*
X159393435Y-57749580D01*
X159594631Y-57789600D01*
X159799769Y-57789600D01*
X160000965Y-57749580D01*
X160190488Y-57671077D01*
X160361054Y-57557108D01*
X160506108Y-57412054D01*
X160620077Y-57241488D01*
X160698580Y-57051965D01*
X160700500Y-57042312D01*
X160702420Y-57051965D01*
X160780923Y-57241488D01*
X160894892Y-57412054D01*
X161039946Y-57557108D01*
X161210512Y-57671077D01*
X161400035Y-57749580D01*
X161601231Y-57789600D01*
X161806369Y-57789600D01*
X162007565Y-57749580D01*
X162197088Y-57671077D01*
X162367654Y-57557108D01*
X162512708Y-57412054D01*
X162626677Y-57241488D01*
X162705180Y-57051965D01*
X162707100Y-57042312D01*
X162709020Y-57051965D01*
X162787523Y-57241488D01*
X162901492Y-57412054D01*
X163046546Y-57557108D01*
X163217112Y-57671077D01*
X163406635Y-57749580D01*
X163607831Y-57789600D01*
X163812969Y-57789600D01*
X164014165Y-57749580D01*
X164203688Y-57671077D01*
X164374254Y-57557108D01*
X164519308Y-57412054D01*
X164633277Y-57241488D01*
X164711780Y-57051965D01*
X164713700Y-57042312D01*
X164715620Y-57051965D01*
X164794123Y-57241488D01*
X164908092Y-57412054D01*
X165053146Y-57557108D01*
X165223712Y-57671077D01*
X165413235Y-57749580D01*
X165614431Y-57789600D01*
X165638796Y-57789600D01*
X163782300Y-59646097D01*
X163768737Y-59657228D01*
X163724299Y-59711375D01*
X163715261Y-59728284D01*
X163691279Y-59773150D01*
X163670945Y-59840181D01*
X163664080Y-59909891D01*
X163665800Y-59927356D01*
X163665800Y-60984116D01*
X163645998Y-60884566D01*
X163560862Y-60679028D01*
X163437263Y-60494049D01*
X163279951Y-60336737D01*
X163094972Y-60213138D01*
X162889434Y-60128002D01*
X162671236Y-60084600D01*
X162448764Y-60084600D01*
X162230566Y-60128002D01*
X162025028Y-60213138D01*
X161840049Y-60336737D01*
X161682737Y-60494049D01*
X161559138Y-60679028D01*
X161474002Y-60884566D01*
X161430600Y-61102764D01*
X161430600Y-61325236D01*
X161474002Y-61543434D01*
X161559138Y-61748972D01*
X161682737Y-61933951D01*
X161840049Y-62091263D01*
X162025028Y-62214862D01*
X162230566Y-62299998D01*
X162448764Y-62343400D01*
X162671236Y-62343400D01*
X162889434Y-62299998D01*
X163094972Y-62214862D01*
X163279951Y-62091263D01*
X163437263Y-61933951D01*
X163560862Y-61748972D01*
X163645998Y-61543434D01*
X163665799Y-61443885D01*
X163665799Y-62145306D01*
X163068806Y-62742300D01*
X162889434Y-62668002D01*
X162671236Y-62624600D01*
X162448764Y-62624600D01*
X162230566Y-62668002D01*
X162025028Y-62753138D01*
X161840049Y-62876737D01*
X161682737Y-63034049D01*
X161559138Y-63219028D01*
X161474002Y-63424566D01*
X161430600Y-63642764D01*
X161430600Y-63865236D01*
X161474002Y-64083434D01*
X161559138Y-64288972D01*
X161682737Y-64473951D01*
X161840049Y-64631263D01*
X162025028Y-64754862D01*
X162230566Y-64839998D01*
X162448764Y-64883400D01*
X162671236Y-64883400D01*
X162889434Y-64839998D01*
X163094972Y-64754862D01*
X163279951Y-64631263D01*
X163437263Y-64473951D01*
X163560862Y-64288972D01*
X163645998Y-64083434D01*
X163653246Y-64046994D01*
X164061950Y-64046994D01*
X164139056Y-64243878D01*
X164253091Y-64421936D01*
X164399672Y-64574326D01*
X164573166Y-64695191D01*
X164766906Y-64779886D01*
X164807007Y-64792043D01*
X164973000Y-64767524D01*
X164973000Y-63881000D01*
X165227000Y-63881000D01*
X165227000Y-64767524D01*
X165392993Y-64792043D01*
X165433094Y-64779886D01*
X165626834Y-64695191D01*
X165800328Y-64574326D01*
X165946909Y-64421936D01*
X166060944Y-64243878D01*
X166138050Y-64046994D01*
X166113954Y-63881000D01*
X165227000Y-63881000D01*
X164973000Y-63881000D01*
X164086046Y-63881000D01*
X164061950Y-64046994D01*
X163653246Y-64046994D01*
X163689400Y-63865236D01*
X163689400Y-63642764D01*
X166510600Y-63642764D01*
X166510600Y-63865236D01*
X166554002Y-64083434D01*
X166639138Y-64288972D01*
X166762737Y-64473951D01*
X166920049Y-64631263D01*
X167105028Y-64754862D01*
X167310566Y-64839998D01*
X167528764Y-64883400D01*
X167751236Y-64883400D01*
X167969434Y-64839998D01*
X168174972Y-64754862D01*
X168359951Y-64631263D01*
X168517263Y-64473951D01*
X168640862Y-64288972D01*
X168715160Y-64109600D01*
X169104840Y-64109600D01*
X169179138Y-64288972D01*
X169302737Y-64473951D01*
X169460049Y-64631263D01*
X169645028Y-64754862D01*
X169850566Y-64839998D01*
X170068764Y-64883400D01*
X170291236Y-64883400D01*
X170509434Y-64839998D01*
X170714972Y-64754862D01*
X170899951Y-64631263D01*
X171057263Y-64473951D01*
X171180862Y-64288972D01*
X171265998Y-64083434D01*
X171309400Y-63865236D01*
X171309400Y-63642764D01*
X171265998Y-63424566D01*
X171180862Y-63219028D01*
X171057263Y-63034049D01*
X170899951Y-62876737D01*
X170714972Y-62753138D01*
X170509434Y-62668002D01*
X170291236Y-62624600D01*
X170068764Y-62624600D01*
X169850566Y-62668002D01*
X169645028Y-62753138D01*
X169460049Y-62876737D01*
X169302737Y-63034049D01*
X169179138Y-63219028D01*
X169104840Y-63398400D01*
X168715160Y-63398400D01*
X168640862Y-63219028D01*
X168517263Y-63034049D01*
X168359951Y-62876737D01*
X168174972Y-62753138D01*
X167969434Y-62668002D01*
X167751236Y-62624600D01*
X167528764Y-62624600D01*
X167310566Y-62668002D01*
X167105028Y-62753138D01*
X166920049Y-62876737D01*
X166762737Y-63034049D01*
X166639138Y-63219028D01*
X166554002Y-63424566D01*
X166510600Y-63642764D01*
X163689400Y-63642764D01*
X163653247Y-63461006D01*
X164061950Y-63461006D01*
X164086046Y-63627000D01*
X164973000Y-63627000D01*
X164973000Y-62740476D01*
X165227000Y-62740476D01*
X165227000Y-63627000D01*
X166113954Y-63627000D01*
X166138050Y-63461006D01*
X166060944Y-63264122D01*
X165946909Y-63086064D01*
X165800328Y-62933674D01*
X165626834Y-62812809D01*
X165433094Y-62728114D01*
X165392993Y-62715957D01*
X165227000Y-62740476D01*
X164973000Y-62740476D01*
X164807007Y-62715957D01*
X164766906Y-62728114D01*
X164573166Y-62812809D01*
X164399672Y-62933674D01*
X164253091Y-63086064D01*
X164139056Y-63264122D01*
X164061950Y-63461006D01*
X163653247Y-63461006D01*
X163645998Y-63424566D01*
X163571700Y-63245194D01*
X164260509Y-62556386D01*
X164274061Y-62545264D01*
X164285184Y-62531711D01*
X164285194Y-62531701D01*
X164318499Y-62491118D01*
X164318501Y-62491116D01*
X164351520Y-62429341D01*
X164371853Y-62362311D01*
X164376999Y-62310064D01*
X164376999Y-62310055D01*
X164378718Y-62292602D01*
X164376999Y-62275149D01*
X164376999Y-62088213D01*
X164380049Y-62091263D01*
X164565028Y-62214862D01*
X164770566Y-62299998D01*
X164988764Y-62343400D01*
X165211236Y-62343400D01*
X165429434Y-62299998D01*
X165634972Y-62214862D01*
X165819951Y-62091263D01*
X165977263Y-61933951D01*
X166100862Y-61748972D01*
X166185998Y-61543434D01*
X166229400Y-61325236D01*
X166229400Y-61102764D01*
X166510600Y-61102764D01*
X166510600Y-61325236D01*
X166554002Y-61543434D01*
X166639138Y-61748972D01*
X166762737Y-61933951D01*
X166920049Y-62091263D01*
X167105028Y-62214862D01*
X167310566Y-62299998D01*
X167528764Y-62343400D01*
X167751236Y-62343400D01*
X167969434Y-62299998D01*
X168174972Y-62214862D01*
X168359951Y-62091263D01*
X168517263Y-61933951D01*
X168640862Y-61748972D01*
X168725998Y-61543434D01*
X168769400Y-61325236D01*
X168769400Y-61102764D01*
X168725998Y-60884566D01*
X168640862Y-60679028D01*
X168517263Y-60494049D01*
X168387214Y-60364000D01*
X169049249Y-60364000D01*
X169049249Y-62064000D01*
X169054644Y-62118772D01*
X169070620Y-62171439D01*
X169096564Y-62219977D01*
X169131479Y-62262521D01*
X169174023Y-62297436D01*
X169222561Y-62323380D01*
X169275228Y-62339356D01*
X169330000Y-62344751D01*
X171030000Y-62344751D01*
X171084772Y-62339356D01*
X171137439Y-62323380D01*
X171185977Y-62297436D01*
X171228521Y-62262521D01*
X171263436Y-62219977D01*
X171289380Y-62171439D01*
X171305356Y-62118772D01*
X171310751Y-62064000D01*
X171310751Y-60364000D01*
X171305356Y-60309228D01*
X171289380Y-60256561D01*
X171263436Y-60208023D01*
X171228521Y-60165479D01*
X171185977Y-60130564D01*
X171137439Y-60104620D01*
X171084772Y-60088644D01*
X171030000Y-60083249D01*
X169330000Y-60083249D01*
X169275228Y-60088644D01*
X169222561Y-60104620D01*
X169174023Y-60130564D01*
X169131479Y-60165479D01*
X169096564Y-60208023D01*
X169070620Y-60256561D01*
X169054644Y-60309228D01*
X169049249Y-60364000D01*
X168387214Y-60364000D01*
X168359951Y-60336737D01*
X168174972Y-60213138D01*
X167969434Y-60128002D01*
X167751236Y-60084600D01*
X167528764Y-60084600D01*
X167310566Y-60128002D01*
X167105028Y-60213138D01*
X166920049Y-60336737D01*
X166762737Y-60494049D01*
X166639138Y-60679028D01*
X166554002Y-60884566D01*
X166510600Y-61102764D01*
X166229400Y-61102764D01*
X166185998Y-60884566D01*
X166100862Y-60679028D01*
X165977263Y-60494049D01*
X165819951Y-60336737D01*
X165634972Y-60213138D01*
X165429434Y-60128002D01*
X165211236Y-60084600D01*
X164988764Y-60084600D01*
X164770566Y-60128002D01*
X164565028Y-60213138D01*
X164380049Y-60336737D01*
X164376999Y-60339787D01*
X164376999Y-60057184D01*
X166968411Y-57465773D01*
X167059746Y-57557108D01*
X167230312Y-57671077D01*
X167419835Y-57749580D01*
X167621031Y-57789600D01*
X167826169Y-57789600D01*
X168027365Y-57749580D01*
X168216888Y-57671077D01*
X168387454Y-57557108D01*
X168532508Y-57412054D01*
X168646477Y-57241488D01*
X168724980Y-57051965D01*
X168726900Y-57042312D01*
X168728820Y-57051965D01*
X168807323Y-57241488D01*
X168921292Y-57412054D01*
X169066346Y-57557108D01*
X169236912Y-57671077D01*
X169426435Y-57749580D01*
X169627631Y-57789600D01*
X169832769Y-57789600D01*
X170033965Y-57749580D01*
X170223488Y-57671077D01*
X170394054Y-57557108D01*
X170539108Y-57412054D01*
X170653077Y-57241488D01*
X170731580Y-57051965D01*
X170733500Y-57042312D01*
X170735420Y-57051965D01*
X170813923Y-57241488D01*
X170927892Y-57412054D01*
X171072946Y-57557108D01*
X171243512Y-57671077D01*
X171433035Y-57749580D01*
X171634231Y-57789600D01*
X171839369Y-57789600D01*
X172040565Y-57749580D01*
X172230088Y-57671077D01*
X172400654Y-57557108D01*
X172545708Y-57412054D01*
X172659677Y-57241488D01*
X172738180Y-57051965D01*
X172740100Y-57042312D01*
X172742020Y-57051965D01*
X172820523Y-57241488D01*
X172934492Y-57412054D01*
X173079546Y-57557108D01*
X173250112Y-57671077D01*
X173439635Y-57749580D01*
X173640831Y-57789600D01*
X173845969Y-57789600D01*
X174047165Y-57749580D01*
X174236688Y-57671077D01*
X174407254Y-57557108D01*
X174552308Y-57412054D01*
X174666277Y-57241488D01*
X174744780Y-57051965D01*
X174746700Y-57042312D01*
X174748620Y-57051965D01*
X174827123Y-57241488D01*
X174941092Y-57412054D01*
X175086146Y-57557108D01*
X175256712Y-57671077D01*
X175446235Y-57749580D01*
X175647431Y-57789600D01*
X175852569Y-57789600D01*
X176053765Y-57749580D01*
X176243288Y-57671077D01*
X176413854Y-57557108D01*
X176558908Y-57412054D01*
X176672877Y-57241488D01*
X176751380Y-57051965D01*
X176791400Y-56850769D01*
X176791400Y-56645631D01*
X176751380Y-56444435D01*
X176672877Y-56254912D01*
X176558908Y-56084346D01*
X176413854Y-55939292D01*
X176243288Y-55825323D01*
X176053765Y-55746820D01*
X175852569Y-55706800D01*
X175647431Y-55706800D01*
X175446235Y-55746820D01*
X175256712Y-55825323D01*
X175086146Y-55939292D01*
X174941092Y-56084346D01*
X174827123Y-56254912D01*
X174748620Y-56444435D01*
X174746700Y-56454088D01*
X174744780Y-56444435D01*
X174666277Y-56254912D01*
X174552308Y-56084346D01*
X174407254Y-55939292D01*
X174236688Y-55825323D01*
X174047165Y-55746820D01*
X173845969Y-55706800D01*
X173640831Y-55706800D01*
X173439635Y-55746820D01*
X173250112Y-55825323D01*
X173079546Y-55939292D01*
X172934492Y-56084346D01*
X172820523Y-56254912D01*
X172742020Y-56444435D01*
X172740100Y-56454088D01*
X172738180Y-56444435D01*
X172659677Y-56254912D01*
X172545708Y-56084346D01*
X172400654Y-55939292D01*
X172230088Y-55825323D01*
X172040565Y-55746820D01*
X171839369Y-55706800D01*
X171634231Y-55706800D01*
X171433035Y-55746820D01*
X171243512Y-55825323D01*
X171072946Y-55939292D01*
X170927892Y-56084346D01*
X170813923Y-56254912D01*
X170735420Y-56444435D01*
X170733500Y-56454088D01*
X170731580Y-56444435D01*
X170653077Y-56254912D01*
X170539108Y-56084346D01*
X170394054Y-55939292D01*
X170223488Y-55825323D01*
X170033965Y-55746820D01*
X169832769Y-55706800D01*
X169627631Y-55706800D01*
X169426435Y-55746820D01*
X169236912Y-55825323D01*
X169066346Y-55939292D01*
X168921292Y-56084346D01*
X168807323Y-56254912D01*
X168728820Y-56444435D01*
X168726900Y-56454088D01*
X168724980Y-56444435D01*
X168646477Y-56254912D01*
X168532508Y-56084346D01*
X168387454Y-55939292D01*
X168216888Y-55825323D01*
X168027365Y-55746820D01*
X167826169Y-55706800D01*
X167621031Y-55706800D01*
X167419835Y-55746820D01*
X167230312Y-55825323D01*
X167088599Y-55920013D01*
X167088599Y-45870054D01*
X171975910Y-40982745D01*
X171989462Y-40971623D01*
X172000585Y-40958070D01*
X172000595Y-40958060D01*
X172033900Y-40917477D01*
X172033902Y-40917475D01*
X172066921Y-40855700D01*
X172087254Y-40788670D01*
X172092400Y-40736423D01*
X172092400Y-40736414D01*
X172094119Y-40718961D01*
X172092400Y-40701508D01*
X172092400Y-35731709D01*
X172230088Y-35674677D01*
X172400654Y-35560708D01*
X172545708Y-35415654D01*
X172659677Y-35245088D01*
X172738180Y-35055565D01*
X172740100Y-35045912D01*
X172742020Y-35055565D01*
X172820523Y-35245088D01*
X172934492Y-35415654D01*
X173079546Y-35560708D01*
X173250112Y-35674677D01*
X173439635Y-35753180D01*
X173640831Y-35793200D01*
X173845969Y-35793200D01*
X174047165Y-35753180D01*
X174236688Y-35674677D01*
X174407254Y-35560708D01*
X174552308Y-35415654D01*
X174666277Y-35245088D01*
X174744780Y-35055565D01*
X174746700Y-35045912D01*
X174748620Y-35055565D01*
X174827123Y-35245088D01*
X174941092Y-35415654D01*
X175086146Y-35560708D01*
X175256712Y-35674677D01*
X175446235Y-35753180D01*
X175647431Y-35793200D01*
X175852569Y-35793200D01*
X176053765Y-35753180D01*
X176243288Y-35674677D01*
X176413854Y-35560708D01*
X176558908Y-35415654D01*
X176672877Y-35245088D01*
X176751380Y-35055565D01*
X176791400Y-34854369D01*
X176791400Y-34649231D01*
X176751380Y-34448035D01*
X176672877Y-34258512D01*
X176558908Y-34087946D01*
X176413854Y-33942892D01*
X176243288Y-33828923D01*
X176133800Y-33783572D01*
X176133800Y-33229814D01*
X176155110Y-33223350D01*
X176246869Y-33174303D01*
X176327298Y-33108298D01*
X176393303Y-33027869D01*
X176442350Y-32936110D01*
X176472553Y-32836544D01*
X176482751Y-32733000D01*
X176482751Y-31783000D01*
X176472553Y-31679456D01*
X176442350Y-31579890D01*
X176393303Y-31488131D01*
X176327298Y-31407702D01*
X176246869Y-31341697D01*
X176155110Y-31292650D01*
X176055544Y-31262447D01*
X175952000Y-31252249D01*
X175452000Y-31252249D01*
X175348456Y-31262447D01*
X175248890Y-31292650D01*
X175157131Y-31341697D01*
X175076702Y-31407702D01*
X175010697Y-31488131D01*
X174961650Y-31579890D01*
X174931447Y-31679456D01*
X174921249Y-31783000D01*
X174921249Y-32733000D01*
X174931447Y-32836544D01*
X174961650Y-32936110D01*
X175010697Y-33027869D01*
X175076702Y-33108298D01*
X175157131Y-33174303D01*
X175248890Y-33223350D01*
X175270200Y-33229814D01*
X175270201Y-33823336D01*
X175256712Y-33828923D01*
X175086146Y-33942892D01*
X174941092Y-34087946D01*
X174827123Y-34258512D01*
X174748620Y-34448035D01*
X174746700Y-34457688D01*
X174744780Y-34448035D01*
X174666277Y-34258512D01*
X174552308Y-34087946D01*
X174407254Y-33942892D01*
X174236688Y-33828923D01*
X174047165Y-33750420D01*
X173845969Y-33710400D01*
X173640831Y-33710400D01*
X173439635Y-33750420D01*
X173250112Y-33828923D01*
X173079546Y-33942892D01*
X172934492Y-34087946D01*
X172820523Y-34258512D01*
X172742020Y-34448035D01*
X172740100Y-34457688D01*
X172738180Y-34448035D01*
X172659677Y-34258512D01*
X172545708Y-34087946D01*
X172400654Y-33942892D01*
X172230088Y-33828923D01*
X172040565Y-33750420D01*
X171839369Y-33710400D01*
X171634231Y-33710400D01*
X171433035Y-33750420D01*
X171243512Y-33828923D01*
X171072946Y-33942892D01*
X170927892Y-34087946D01*
X170813923Y-34258512D01*
X170735420Y-34448035D01*
X170733500Y-34457688D01*
X170731580Y-34448035D01*
X170653077Y-34258512D01*
X170539108Y-34087946D01*
X170394054Y-33942892D01*
X170223488Y-33828923D01*
X170033965Y-33750420D01*
X169832769Y-33710400D01*
X169627631Y-33710400D01*
X169426435Y-33750420D01*
X169236912Y-33828923D01*
X169066346Y-33942892D01*
X168921292Y-34087946D01*
X168807323Y-34258512D01*
X168728820Y-34448035D01*
X168726900Y-34457688D01*
X168724980Y-34448035D01*
X168646477Y-34258512D01*
X168532508Y-34087946D01*
X168387454Y-33942892D01*
X168216888Y-33828923D01*
X168027365Y-33750420D01*
X167826169Y-33710400D01*
X167621031Y-33710400D01*
X167419835Y-33750420D01*
X167230312Y-33828923D01*
X167059746Y-33942892D01*
X166914692Y-34087946D01*
X166800723Y-34258512D01*
X166722220Y-34448035D01*
X166720300Y-34457688D01*
X166718380Y-34448035D01*
X166639877Y-34258512D01*
X166525908Y-34087946D01*
X166380854Y-33942892D01*
X166210288Y-33828923D01*
X166020765Y-33750420D01*
X165819569Y-33710400D01*
X165614431Y-33710400D01*
X165413235Y-33750420D01*
X165223712Y-33828923D01*
X165053146Y-33942892D01*
X164908092Y-34087946D01*
X164794123Y-34258512D01*
X164715620Y-34448035D01*
X164713700Y-34457688D01*
X164711780Y-34448035D01*
X164633277Y-34258512D01*
X164519308Y-34087946D01*
X164374254Y-33942892D01*
X164203688Y-33828923D01*
X164014165Y-33750420D01*
X163812969Y-33710400D01*
X163607831Y-33710400D01*
X163406635Y-33750420D01*
X163217112Y-33828923D01*
X163046546Y-33942892D01*
X162901492Y-34087946D01*
X162787523Y-34258512D01*
X162709020Y-34448035D01*
X162707100Y-34457688D01*
X162705180Y-34448035D01*
X162626677Y-34258512D01*
X162512708Y-34087946D01*
X162367654Y-33942892D01*
X162197088Y-33828923D01*
X162007565Y-33750420D01*
X161806369Y-33710400D01*
X161601231Y-33710400D01*
X161400035Y-33750420D01*
X161210512Y-33828923D01*
X161039946Y-33942892D01*
X160894892Y-34087946D01*
X160780923Y-34258512D01*
X160702420Y-34448035D01*
X160700500Y-34457688D01*
X160698580Y-34448035D01*
X160620077Y-34258512D01*
X160506108Y-34087946D01*
X160361054Y-33942892D01*
X160190488Y-33828923D01*
X160000965Y-33750420D01*
X159799769Y-33710400D01*
X159594631Y-33710400D01*
X159393435Y-33750420D01*
X159203912Y-33828923D01*
X159033346Y-33942892D01*
X158888292Y-34087946D01*
X158774323Y-34258512D01*
X158695820Y-34448035D01*
X158667877Y-34588513D01*
X158645836Y-34471921D01*
X158572879Y-34290941D01*
X158563957Y-34274250D01*
X158437735Y-34184270D01*
X157870205Y-34751800D01*
X158437735Y-35319330D01*
X158563957Y-35229350D01*
X158640342Y-35049790D01*
X158668167Y-34916540D01*
X158695820Y-35055565D01*
X158774323Y-35245088D01*
X158888292Y-35415654D01*
X159033346Y-35560708D01*
X159203912Y-35674677D01*
X159393435Y-35753180D01*
X159594631Y-35793200D01*
X159799769Y-35793200D01*
X160000965Y-35753180D01*
X160190488Y-35674677D01*
X160361054Y-35560708D01*
X160506108Y-35415654D01*
X160620077Y-35245088D01*
X160698580Y-35055565D01*
X160700500Y-35045912D01*
X160702420Y-35055565D01*
X160780923Y-35245088D01*
X160894892Y-35415654D01*
X161039946Y-35560708D01*
X161210512Y-35674677D01*
X161400035Y-35753180D01*
X161601231Y-35793200D01*
X161806369Y-35793200D01*
X162007565Y-35753180D01*
X162197088Y-35674677D01*
X162367654Y-35560708D01*
X162512708Y-35415654D01*
X162626677Y-35245088D01*
X162705180Y-35055565D01*
X162707100Y-35045912D01*
X162709020Y-35055565D01*
X162787523Y-35245088D01*
X162901492Y-35415654D01*
X163046546Y-35560708D01*
X163217112Y-35674677D01*
X163406635Y-35753180D01*
X163607831Y-35793200D01*
X163812969Y-35793200D01*
X164014165Y-35753180D01*
X164203688Y-35674677D01*
X164374254Y-35560708D01*
X164519308Y-35415654D01*
X164633277Y-35245088D01*
X164711780Y-35055565D01*
X164713700Y-35045912D01*
X164715620Y-35055565D01*
X164794123Y-35245088D01*
X164908092Y-35415654D01*
X165053146Y-35560708D01*
X165223712Y-35674677D01*
X165413235Y-35753180D01*
X165614431Y-35793200D01*
X165819569Y-35793200D01*
X166020765Y-35753180D01*
X166210288Y-35674677D01*
X166380854Y-35560708D01*
X166525908Y-35415654D01*
X166639877Y-35245088D01*
X166718380Y-35055565D01*
X166720300Y-35045912D01*
X166722220Y-35055565D01*
X166779253Y-35193254D01*
X165691441Y-36281066D01*
X165677878Y-36292197D01*
X165633440Y-36346344D01*
X165616930Y-36377232D01*
X165600420Y-36408119D01*
X165580086Y-36475150D01*
X165573221Y-36544860D01*
X165574941Y-36562325D01*
X165574940Y-37529719D01*
X165548101Y-37537860D01*
X165499563Y-37563804D01*
X165457019Y-37598719D01*
X165422104Y-37641263D01*
X165396160Y-37689801D01*
X165380184Y-37742468D01*
X165374789Y-37797240D01*
X165374789Y-37863780D01*
X164931231Y-37863780D01*
X164931231Y-37769378D01*
X164921033Y-37665834D01*
X164890830Y-37566269D01*
X164841784Y-37474510D01*
X164775778Y-37394082D01*
X164695350Y-37328076D01*
X164603591Y-37279030D01*
X164504026Y-37248827D01*
X164400482Y-37238629D01*
X163875478Y-37238629D01*
X163771934Y-37248827D01*
X163672369Y-37279030D01*
X163580610Y-37328076D01*
X163500182Y-37394082D01*
X163434176Y-37474510D01*
X163385130Y-37566269D01*
X163354927Y-37665834D01*
X163344729Y-37769378D01*
X163344729Y-38669382D01*
X163354927Y-38772926D01*
X163385130Y-38872491D01*
X163434176Y-38964250D01*
X163500182Y-39044678D01*
X163580610Y-39110684D01*
X163672369Y-39159730D01*
X163771934Y-39189933D01*
X163875478Y-39200131D01*
X164400482Y-39200131D01*
X164504026Y-39189933D01*
X164603591Y-39159730D01*
X164695350Y-39110684D01*
X164775778Y-39044678D01*
X164841784Y-38964250D01*
X164890830Y-38872491D01*
X164921033Y-38772926D01*
X164931231Y-38669382D01*
X164931231Y-38574980D01*
X165374789Y-38574980D01*
X165374789Y-38797240D01*
X165380184Y-38852012D01*
X165396160Y-38904679D01*
X165422104Y-38953217D01*
X165457019Y-38995761D01*
X165499563Y-39030676D01*
X165548101Y-39056620D01*
X165600768Y-39072596D01*
X165655540Y-39077991D01*
X166205540Y-39077991D01*
X166260312Y-39072596D01*
X166312979Y-39056620D01*
X166361517Y-39030676D01*
X166404061Y-38995761D01*
X166438976Y-38953217D01*
X166464920Y-38904679D01*
X166480896Y-38852012D01*
X166486291Y-38797240D01*
X166925834Y-38797240D01*
X166930248Y-38842053D01*
X166943319Y-38885145D01*
X166964546Y-38924858D01*
X166993113Y-38959667D01*
X167027922Y-38988234D01*
X167067635Y-39009461D01*
X167110727Y-39022532D01*
X167155540Y-39026946D01*
X167446390Y-39025840D01*
X167503540Y-38968690D01*
X167503540Y-38424240D01*
X167757540Y-38424240D01*
X167757540Y-38968690D01*
X167814690Y-39025840D01*
X168105540Y-39026946D01*
X168150353Y-39022532D01*
X168193445Y-39009461D01*
X168233158Y-38988234D01*
X168267967Y-38959667D01*
X168296534Y-38924858D01*
X168317761Y-38885145D01*
X168330832Y-38842053D01*
X168335246Y-38797240D01*
X168334140Y-38481390D01*
X168276990Y-38424240D01*
X167757540Y-38424240D01*
X167503540Y-38424240D01*
X166984090Y-38424240D01*
X166926940Y-38481390D01*
X166925834Y-38797240D01*
X166486291Y-38797240D01*
X166486291Y-37797240D01*
X166925834Y-37797240D01*
X166926940Y-38113090D01*
X166984090Y-38170240D01*
X167503540Y-38170240D01*
X167503540Y-37625790D01*
X167757540Y-37625790D01*
X167757540Y-38170240D01*
X168276990Y-38170240D01*
X168334140Y-38113090D01*
X168335246Y-37797240D01*
X168330832Y-37752427D01*
X168317761Y-37709335D01*
X168296534Y-37669622D01*
X168267967Y-37634813D01*
X168233158Y-37606246D01*
X168193445Y-37585019D01*
X168150353Y-37571948D01*
X168105540Y-37567534D01*
X167814690Y-37568640D01*
X167757540Y-37625790D01*
X167503540Y-37625790D01*
X167446390Y-37568640D01*
X167155540Y-37567534D01*
X167110727Y-37571948D01*
X167067635Y-37585019D01*
X167027922Y-37606246D01*
X166993113Y-37634813D01*
X166964546Y-37669622D01*
X166943319Y-37709335D01*
X166930248Y-37752427D01*
X166925834Y-37797240D01*
X166486291Y-37797240D01*
X166480896Y-37742468D01*
X166464920Y-37689801D01*
X166438976Y-37641263D01*
X166404061Y-37598719D01*
X166361517Y-37563804D01*
X166312979Y-37537860D01*
X166286140Y-37529719D01*
X166286140Y-36692153D01*
X167282146Y-35696147D01*
X167419835Y-35753180D01*
X167621031Y-35793200D01*
X167826169Y-35793200D01*
X168027365Y-35753180D01*
X168216888Y-35674677D01*
X168387454Y-35560708D01*
X168532508Y-35415654D01*
X168646477Y-35245088D01*
X168724980Y-35055565D01*
X168726900Y-35045912D01*
X168728820Y-35055565D01*
X168807323Y-35245088D01*
X168921292Y-35415654D01*
X169066346Y-35560708D01*
X169236912Y-35674677D01*
X169426435Y-35753180D01*
X169627631Y-35793200D01*
X169832769Y-35793200D01*
X170033965Y-35753180D01*
X170223488Y-35674677D01*
X170394054Y-35560708D01*
X170539108Y-35415654D01*
X170653077Y-35245088D01*
X170731580Y-35055565D01*
X170733500Y-35045912D01*
X170735420Y-35055565D01*
X170813923Y-35245088D01*
X170927892Y-35415654D01*
X171072946Y-35560708D01*
X171243512Y-35674677D01*
X171381201Y-35731710D01*
X171381200Y-40571665D01*
X166493900Y-45458967D01*
X166480337Y-45470098D01*
X166435899Y-45524245D01*
X166419389Y-45555133D01*
X166402879Y-45586020D01*
X166382545Y-45653051D01*
X166375680Y-45722761D01*
X166377400Y-45740227D01*
X166377399Y-55936984D01*
X166210288Y-55825323D01*
X166072600Y-55768291D01*
X166072600Y-47228455D01*
X166074319Y-47211000D01*
X166072600Y-47193545D01*
X166072600Y-47193537D01*
X166067454Y-47141290D01*
X166047121Y-47074260D01*
X166014101Y-47012484D01*
X165969663Y-46958337D01*
X165956100Y-46947206D01*
X160686344Y-41677451D01*
X160686344Y-41676447D01*
X160688752Y-41652000D01*
X160688752Y-41152000D01*
X160686344Y-41127553D01*
X160686344Y-41102991D01*
X160680949Y-41048219D01*
X160661827Y-40952086D01*
X160645852Y-40899420D01*
X160608343Y-40808864D01*
X160582398Y-40760324D01*
X160527942Y-40678825D01*
X160493027Y-40636281D01*
X160423719Y-40566973D01*
X160381175Y-40532058D01*
X160299676Y-40477602D01*
X160251136Y-40451657D01*
X160160580Y-40414148D01*
X160107914Y-40398173D01*
X160011781Y-40379051D01*
X159957009Y-40373656D01*
X159932447Y-40373656D01*
X159908000Y-40371248D01*
X159408000Y-40371248D01*
X159353228Y-40376643D01*
X159300561Y-40392619D01*
X159258000Y-40415368D01*
X159215439Y-40392619D01*
X159162772Y-40376643D01*
X159108000Y-40371248D01*
X158608000Y-40371248D01*
X158583553Y-40373656D01*
X158558991Y-40373656D01*
X158504219Y-40379051D01*
X158408086Y-40398173D01*
X158355420Y-40414148D01*
X158264864Y-40451657D01*
X158216324Y-40477602D01*
X158134825Y-40532058D01*
X158092281Y-40566973D01*
X158022973Y-40636281D01*
X157988058Y-40678825D01*
X157933602Y-40760324D01*
X157907657Y-40808864D01*
X157870148Y-40899420D01*
X157854173Y-40952086D01*
X157835051Y-41048219D01*
X157829656Y-41102991D01*
X157829656Y-41127553D01*
X157827248Y-41152000D01*
X157827248Y-41652000D01*
X157829656Y-41676447D01*
X157829656Y-41701009D01*
X157835051Y-41755781D01*
X157854173Y-41851914D01*
X157870148Y-41904580D01*
X157907657Y-41995136D01*
X157933602Y-42043676D01*
X157988058Y-42125175D01*
X158022973Y-42167719D01*
X158092281Y-42237027D01*
X158134825Y-42271942D01*
X158216324Y-42326398D01*
X158252401Y-42345681D01*
X158252401Y-42870035D01*
X158250681Y-42887500D01*
X158257546Y-42957210D01*
X158277880Y-43024241D01*
X158294390Y-43055128D01*
X158310900Y-43086016D01*
X158355338Y-43140163D01*
X158368901Y-43151294D01*
X158695471Y-43477864D01*
X158608002Y-43469249D01*
X158082998Y-43469249D01*
X157979454Y-43479447D01*
X157879889Y-43509650D01*
X157788130Y-43558696D01*
X157707702Y-43624702D01*
X157641696Y-43705130D01*
X157592650Y-43796889D01*
X157562447Y-43896454D01*
X157552249Y-43999998D01*
X157552249Y-44094400D01*
X154613751Y-44094400D01*
X154613751Y-43993750D01*
X154603673Y-43891425D01*
X154573826Y-43793032D01*
X154525357Y-43702353D01*
X154460128Y-43622872D01*
X154380647Y-43557643D01*
X154289968Y-43509174D01*
X154191575Y-43479327D01*
X154089250Y-43469249D01*
X153601750Y-43469249D01*
X153499425Y-43479327D01*
X153401032Y-43509174D01*
X153310353Y-43557643D01*
X153230872Y-43622872D01*
X153165643Y-43702353D01*
X153117174Y-43793032D01*
X153087327Y-43891425D01*
X153077249Y-43993750D01*
X152687183Y-43993750D01*
X152687706Y-43750000D01*
X152683292Y-43705187D01*
X152670221Y-43662095D01*
X152648994Y-43622382D01*
X152620427Y-43587573D01*
X152585618Y-43559006D01*
X152545905Y-43537779D01*
X152502813Y-43524708D01*
X152458000Y-43520294D01*
X152154650Y-43521400D01*
X152097500Y-43578550D01*
X151843500Y-43578550D01*
X151786350Y-43521400D01*
X151483000Y-43520294D01*
X151438187Y-43524708D01*
X151395095Y-43537779D01*
X151355382Y-43559006D01*
X151320573Y-43587573D01*
X151292006Y-43622382D01*
X151270779Y-43662095D01*
X151257708Y-43705187D01*
X151253294Y-43750000D01*
X145553600Y-43750000D01*
X145553600Y-37988764D01*
X150762600Y-37988764D01*
X150762600Y-38211236D01*
X150806002Y-38429434D01*
X150891138Y-38634972D01*
X151014737Y-38819951D01*
X151172049Y-38977263D01*
X151357028Y-39100862D01*
X151562566Y-39185998D01*
X151780764Y-39229400D01*
X152003236Y-39229400D01*
X152221434Y-39185998D01*
X152400807Y-39111700D01*
X153129344Y-39840238D01*
X153140477Y-39853803D01*
X153194624Y-39898241D01*
X153256400Y-39931261D01*
X153323430Y-39951594D01*
X153375677Y-39956740D01*
X153375685Y-39956740D01*
X153393140Y-39958459D01*
X153410595Y-39956740D01*
X164887147Y-39956740D01*
X165374789Y-40444383D01*
X165374789Y-40997240D01*
X165380184Y-41052012D01*
X165396160Y-41104679D01*
X165422104Y-41153217D01*
X165457019Y-41195761D01*
X165499563Y-41230676D01*
X165548101Y-41256620D01*
X165600768Y-41272596D01*
X165655540Y-41277991D01*
X166205540Y-41277991D01*
X166260312Y-41272596D01*
X166312979Y-41256620D01*
X166361517Y-41230676D01*
X166404061Y-41195761D01*
X166438976Y-41153217D01*
X166464920Y-41104679D01*
X166480896Y-41052012D01*
X166486291Y-40997240D01*
X166486291Y-39997240D01*
X167274789Y-39997240D01*
X167274789Y-40997240D01*
X167280184Y-41052012D01*
X167296160Y-41104679D01*
X167322104Y-41153217D01*
X167357019Y-41195761D01*
X167399563Y-41230676D01*
X167448101Y-41256620D01*
X167500768Y-41272596D01*
X167555540Y-41277991D01*
X168105540Y-41277991D01*
X168160312Y-41272596D01*
X168212979Y-41256620D01*
X168261517Y-41230676D01*
X168304061Y-41195761D01*
X168338976Y-41153217D01*
X168364920Y-41104679D01*
X168380896Y-41052012D01*
X168386291Y-40997240D01*
X168386291Y-40967660D01*
X169015455Y-40967660D01*
X169067027Y-41019232D01*
X169168950Y-41087335D01*
X169282202Y-41134245D01*
X169402429Y-41158160D01*
X169525011Y-41158160D01*
X169645238Y-41134245D01*
X169758490Y-41087335D01*
X169860413Y-41019232D01*
X169947092Y-40932553D01*
X170015195Y-40830630D01*
X170062105Y-40717378D01*
X170086020Y-40597151D01*
X170086020Y-40474569D01*
X170062105Y-40354342D01*
X170015195Y-40241090D01*
X169947092Y-40139167D01*
X169860413Y-40052488D01*
X169758490Y-39984385D01*
X169645238Y-39937475D01*
X169525011Y-39913560D01*
X169402429Y-39913560D01*
X169282202Y-39937475D01*
X169168950Y-39984385D01*
X169067027Y-40052488D01*
X169015455Y-40104060D01*
X168386291Y-40104060D01*
X168386291Y-39997240D01*
X168380896Y-39942468D01*
X168364920Y-39889801D01*
X168338976Y-39841263D01*
X168304061Y-39798719D01*
X168261517Y-39763804D01*
X168212979Y-39737860D01*
X168160312Y-39721884D01*
X168105540Y-39716489D01*
X167555540Y-39716489D01*
X167500768Y-39721884D01*
X167448101Y-39737860D01*
X167399563Y-39763804D01*
X167357019Y-39798719D01*
X167322104Y-39841263D01*
X167296160Y-39889801D01*
X167280184Y-39942468D01*
X167274789Y-39997240D01*
X166486291Y-39997240D01*
X166480896Y-39942468D01*
X166464920Y-39889801D01*
X166438976Y-39841263D01*
X166404061Y-39798719D01*
X166361517Y-39763804D01*
X166312979Y-39737860D01*
X166260312Y-39721884D01*
X166205540Y-39716489D01*
X165655540Y-39716489D01*
X165652939Y-39716745D01*
X165298239Y-39362046D01*
X165287103Y-39348477D01*
X165232956Y-39304039D01*
X165171180Y-39271019D01*
X165104150Y-39250686D01*
X165051903Y-39245540D01*
X165051895Y-39245540D01*
X165034440Y-39243821D01*
X165016985Y-39245540D01*
X153540434Y-39245540D01*
X153214274Y-38919380D01*
X161570774Y-38919380D01*
X161575188Y-38964193D01*
X161588259Y-39007285D01*
X161609486Y-39046998D01*
X161638053Y-39081807D01*
X161672862Y-39110374D01*
X161712575Y-39131601D01*
X161755667Y-39144672D01*
X161800480Y-39149086D01*
X162128830Y-39147980D01*
X162185980Y-39090830D01*
X162185980Y-38346380D01*
X162439980Y-38346380D01*
X162439980Y-39090830D01*
X162497130Y-39147980D01*
X162825480Y-39149086D01*
X162870293Y-39144672D01*
X162913385Y-39131601D01*
X162953098Y-39110374D01*
X162987907Y-39081807D01*
X163016474Y-39046998D01*
X163037701Y-39007285D01*
X163050772Y-38964193D01*
X163055186Y-38919380D01*
X163054080Y-38403530D01*
X162996930Y-38346380D01*
X162439980Y-38346380D01*
X162185980Y-38346380D01*
X161629030Y-38346380D01*
X161571880Y-38403530D01*
X161570774Y-38919380D01*
X153214274Y-38919380D01*
X152903700Y-38608807D01*
X152977998Y-38429434D01*
X153021400Y-38211236D01*
X153021400Y-37988764D01*
X152977998Y-37770566D01*
X152892862Y-37565028D01*
X152769263Y-37380049D01*
X152611951Y-37222737D01*
X152426972Y-37099138D01*
X152221434Y-37014002D01*
X152003236Y-36970600D01*
X151780764Y-36970600D01*
X151562566Y-37014002D01*
X151357028Y-37099138D01*
X151172049Y-37222737D01*
X151014737Y-37380049D01*
X150891138Y-37565028D01*
X150806002Y-37770566D01*
X150762600Y-37988764D01*
X145553600Y-37988764D01*
X145553600Y-34710000D01*
X150761249Y-34710000D01*
X150761249Y-36410000D01*
X150766644Y-36464772D01*
X150782620Y-36517439D01*
X150808564Y-36565977D01*
X150843479Y-36608521D01*
X150886023Y-36643436D01*
X150934561Y-36669380D01*
X150987228Y-36685356D01*
X151042000Y-36690751D01*
X152742000Y-36690751D01*
X152796772Y-36685356D01*
X152849439Y-36669380D01*
X152897977Y-36643436D01*
X152940521Y-36608521D01*
X152975436Y-36565977D01*
X153001380Y-36517439D01*
X153017356Y-36464772D01*
X153022751Y-36410000D01*
X153022751Y-35915600D01*
X155340707Y-35915600D01*
X156269549Y-36844443D01*
X156269549Y-37584802D01*
X156279747Y-37688346D01*
X156309950Y-37787911D01*
X156358996Y-37879670D01*
X156425002Y-37960098D01*
X156505430Y-38026104D01*
X156597189Y-38075150D01*
X156696754Y-38105353D01*
X156800298Y-38115551D01*
X157325302Y-38115551D01*
X157428846Y-38105353D01*
X157528411Y-38075150D01*
X157620170Y-38026104D01*
X157700598Y-37960098D01*
X157766604Y-37879670D01*
X157790587Y-37834800D01*
X158145594Y-37834800D01*
X158150008Y-37879613D01*
X158163079Y-37922705D01*
X158184306Y-37962418D01*
X158212873Y-37997227D01*
X158247682Y-38025794D01*
X158287395Y-38047021D01*
X158330487Y-38060092D01*
X158375300Y-38064506D01*
X158703650Y-38063400D01*
X158760800Y-38006250D01*
X158760800Y-37261800D01*
X159014800Y-37261800D01*
X159014800Y-38006250D01*
X159071950Y-38063400D01*
X159400300Y-38064506D01*
X159445113Y-38060092D01*
X159488205Y-38047021D01*
X159527918Y-38025794D01*
X159562727Y-37997227D01*
X159591294Y-37962418D01*
X159612521Y-37922705D01*
X159625592Y-37879613D01*
X159630006Y-37834800D01*
X159629330Y-37519380D01*
X161570774Y-37519380D01*
X161571880Y-38035230D01*
X161629030Y-38092380D01*
X162185980Y-38092380D01*
X162185980Y-37347930D01*
X162439980Y-37347930D01*
X162439980Y-38092380D01*
X162996930Y-38092380D01*
X163054080Y-38035230D01*
X163055186Y-37519380D01*
X163050772Y-37474567D01*
X163037701Y-37431475D01*
X163016474Y-37391762D01*
X162987907Y-37356953D01*
X162953098Y-37328386D01*
X162913385Y-37307159D01*
X162870293Y-37294088D01*
X162825480Y-37289674D01*
X162497130Y-37290780D01*
X162439980Y-37347930D01*
X162185980Y-37347930D01*
X162128830Y-37290780D01*
X161800480Y-37289674D01*
X161755667Y-37294088D01*
X161712575Y-37307159D01*
X161672862Y-37328386D01*
X161638053Y-37356953D01*
X161609486Y-37391762D01*
X161588259Y-37431475D01*
X161575188Y-37474567D01*
X161570774Y-37519380D01*
X159629330Y-37519380D01*
X159628900Y-37318950D01*
X159571750Y-37261800D01*
X159014800Y-37261800D01*
X158760800Y-37261800D01*
X158203850Y-37261800D01*
X158146700Y-37318950D01*
X158145594Y-37834800D01*
X157790587Y-37834800D01*
X157815650Y-37787911D01*
X157845853Y-37688346D01*
X157856051Y-37584802D01*
X157856051Y-36684798D01*
X157845853Y-36581254D01*
X157815650Y-36481689D01*
X157790588Y-36434800D01*
X158145594Y-36434800D01*
X158146700Y-36950650D01*
X158203850Y-37007800D01*
X158760800Y-37007800D01*
X158760800Y-36263350D01*
X159014800Y-36263350D01*
X159014800Y-37007800D01*
X159571750Y-37007800D01*
X159628900Y-36950650D01*
X159630006Y-36434800D01*
X159625592Y-36389987D01*
X159612521Y-36346895D01*
X159591294Y-36307182D01*
X159562727Y-36272373D01*
X159527918Y-36243806D01*
X159488205Y-36222579D01*
X159445113Y-36209508D01*
X159400300Y-36205094D01*
X159071950Y-36206200D01*
X159014800Y-36263350D01*
X158760800Y-36263350D01*
X158703650Y-36206200D01*
X158375300Y-36205094D01*
X158330487Y-36209508D01*
X158287395Y-36222579D01*
X158247682Y-36243806D01*
X158212873Y-36272373D01*
X158184306Y-36307182D01*
X158163079Y-36346895D01*
X158150008Y-36389987D01*
X158145594Y-36434800D01*
X157790588Y-36434800D01*
X157766604Y-36389930D01*
X157700598Y-36309502D01*
X157620170Y-36243496D01*
X157528411Y-36194450D01*
X157428846Y-36164247D01*
X157325302Y-36154049D01*
X156800298Y-36154049D01*
X156696754Y-36164247D01*
X156618791Y-36187897D01*
X155929829Y-35498935D01*
X157123070Y-35498935D01*
X157213050Y-35625157D01*
X157392610Y-35701542D01*
X157583621Y-35741428D01*
X157778744Y-35743283D01*
X157970479Y-35707036D01*
X158151459Y-35634079D01*
X158168150Y-35625157D01*
X158258130Y-35498935D01*
X157690600Y-34931405D01*
X157123070Y-35498935D01*
X155929829Y-35498935D01*
X155751799Y-35320906D01*
X155740663Y-35307337D01*
X155686516Y-35262899D01*
X155624740Y-35229879D01*
X155557710Y-35209546D01*
X155505463Y-35204400D01*
X155505455Y-35204400D01*
X155488000Y-35202681D01*
X155470545Y-35204400D01*
X153022751Y-35204400D01*
X153022751Y-34839944D01*
X156699117Y-34839944D01*
X156735364Y-35031679D01*
X156808321Y-35212659D01*
X156817243Y-35229350D01*
X156943465Y-35319330D01*
X157510995Y-34751800D01*
X156943465Y-34184270D01*
X156817243Y-34274250D01*
X156740858Y-34453810D01*
X156700972Y-34644821D01*
X156699117Y-34839944D01*
X153022751Y-34839944D01*
X153022751Y-34710000D01*
X153017356Y-34655228D01*
X153001380Y-34602561D01*
X152975436Y-34554023D01*
X152940521Y-34511479D01*
X152897977Y-34476564D01*
X152849439Y-34450620D01*
X152796772Y-34434644D01*
X152742000Y-34429249D01*
X151042000Y-34429249D01*
X150987228Y-34434644D01*
X150934561Y-34450620D01*
X150886023Y-34476564D01*
X150843479Y-34511479D01*
X150808564Y-34554023D01*
X150782620Y-34602561D01*
X150766644Y-34655228D01*
X150761249Y-34710000D01*
X145553600Y-34710000D01*
X145553600Y-34004665D01*
X157123070Y-34004665D01*
X157690600Y-34572195D01*
X158258130Y-34004665D01*
X158168150Y-33878443D01*
X157988590Y-33802058D01*
X157797579Y-33762172D01*
X157602456Y-33760317D01*
X157410721Y-33796564D01*
X157229741Y-33869521D01*
X157213050Y-33878443D01*
X157123070Y-34004665D01*
X145553600Y-34004665D01*
X145553600Y-32983000D01*
X173072294Y-32983000D01*
X173076708Y-33027813D01*
X173089779Y-33070905D01*
X173111006Y-33110618D01*
X173139573Y-33145427D01*
X173174382Y-33173994D01*
X173214095Y-33195221D01*
X173257187Y-33208292D01*
X173302000Y-33212706D01*
X173617850Y-33211600D01*
X173675000Y-33154450D01*
X173675000Y-32385000D01*
X173929000Y-32385000D01*
X173929000Y-33154450D01*
X173986150Y-33211600D01*
X174302000Y-33212706D01*
X174346813Y-33208292D01*
X174389905Y-33195221D01*
X174429618Y-33173994D01*
X174464427Y-33145427D01*
X174492994Y-33110618D01*
X174514221Y-33070905D01*
X174527292Y-33027813D01*
X174531706Y-32983000D01*
X174530600Y-32442150D01*
X174473450Y-32385000D01*
X173929000Y-32385000D01*
X173675000Y-32385000D01*
X173130550Y-32385000D01*
X173073400Y-32442150D01*
X173072294Y-32983000D01*
X145553600Y-32983000D01*
X145553600Y-31533000D01*
X173072294Y-31533000D01*
X173073400Y-32073850D01*
X173130550Y-32131000D01*
X173675000Y-32131000D01*
X173675000Y-31361550D01*
X173929000Y-31361550D01*
X173929000Y-32131000D01*
X174473450Y-32131000D01*
X174530600Y-32073850D01*
X174531706Y-31533000D01*
X174527292Y-31488187D01*
X174514221Y-31445095D01*
X174492994Y-31405382D01*
X174464427Y-31370573D01*
X174429618Y-31342006D01*
X174389905Y-31320779D01*
X174346813Y-31307708D01*
X174302000Y-31303294D01*
X173986150Y-31304400D01*
X173929000Y-31361550D01*
X173675000Y-31361550D01*
X173617850Y-31304400D01*
X173302000Y-31303294D01*
X173257187Y-31307708D01*
X173214095Y-31320779D01*
X173174382Y-31342006D01*
X173139573Y-31370573D01*
X173111006Y-31405382D01*
X173089779Y-31445095D01*
X173076708Y-31488187D01*
X173072294Y-31533000D01*
X145553600Y-31533000D01*
X145553600Y-30783600D01*
X180036401Y-30783600D01*
X180036400Y-65736400D01*
G37*
%TD.AperFunction*%
%TD*%
M02*
