G04 #@! TF.FileFunction,Copper,L1,Top,Signal*
%FSLAX46Y46*%
G04 Gerber Fmt 4.6, Leading zero omitted, Abs format (unit mm)*
G04 Created by KiCad (PCBNEW 4.0.0-rc1-stable) date 15/08/2017 21:27:56*
%MOMM*%
G01*
G04 APERTURE LIST*
%ADD10C,0.076200*%
%ADD11C,0.685800*%
%ADD12C,1.524000*%
%ADD13R,1.700000X1.700000*%
%ADD14O,1.700000X1.700000*%
%ADD15C,0.304800*%
%ADD16C,0.254000*%
G04 APERTURE END LIST*
D10*
D11*
X169600000Y-42400000D03*
X167600000Y-41500000D03*
X172200000Y-37600000D03*
X169500000Y-40600000D03*
X171200000Y-36600000D03*
X170600000Y-39100000D03*
X169500000Y-38200000D03*
X168100000Y-39800000D03*
D12*
X176000000Y-34751800D03*
X173993400Y-34751800D03*
X171986800Y-34751800D03*
X169980200Y-34751800D03*
X167973600Y-34751800D03*
X165967000Y-34751800D03*
X163960400Y-34751800D03*
X161953800Y-34751800D03*
X159947200Y-34751800D03*
X157940600Y-34751800D03*
X157940600Y-56748200D03*
X159947200Y-56748200D03*
X161953800Y-56748200D03*
X163960400Y-56748200D03*
X165967000Y-56748200D03*
X167973600Y-56748200D03*
X169980200Y-56748200D03*
X171986800Y-56748200D03*
X173993400Y-56748200D03*
X176000000Y-56748200D03*
D13*
X158750000Y-47244000D03*
D14*
X158750000Y-44704000D03*
X161290000Y-47244000D03*
X161290000Y-44704000D03*
X163830000Y-47244000D03*
X163830000Y-44704000D03*
X166370000Y-47244000D03*
X166370000Y-44704000D03*
X168910000Y-47244000D03*
X168910000Y-44704000D03*
X171450000Y-47244000D03*
X171450000Y-44704000D03*
D11*
X167700000Y-43300000D03*
D15*
X158750000Y-47244000D02*
X159994000Y-46000000D01*
X170250000Y-40501800D02*
X176000000Y-34751800D01*
X170250000Y-45500000D02*
X170250000Y-40501800D01*
X169750000Y-46000000D02*
X170250000Y-45500000D01*
X159994000Y-46000000D02*
X169750000Y-46000000D01*
X173993400Y-34751800D02*
X168910000Y-39835200D01*
X168910000Y-39835200D02*
X168910000Y-44704000D01*
X171986800Y-34751800D02*
X166370000Y-40368600D01*
X166370000Y-40368600D02*
X166370000Y-44704000D01*
D16*
G36*
X177196400Y-41696400D02*
X173250000Y-41696400D01*
X173133817Y-41719510D01*
X173035322Y-41785322D01*
X172969510Y-41883817D01*
X172946400Y-42000000D01*
X172946400Y-50000000D01*
X172969510Y-50116183D01*
X173035322Y-50214678D01*
X173133817Y-50280490D01*
X173250000Y-50303600D01*
X177196400Y-50303600D01*
X177196400Y-58446400D01*
X156303600Y-58446400D01*
X156303600Y-56954438D01*
X156899020Y-56954438D01*
X157057229Y-57337335D01*
X157349924Y-57630541D01*
X157732544Y-57789419D01*
X158146838Y-57789780D01*
X158529735Y-57631571D01*
X158822941Y-57338876D01*
X158944002Y-57047330D01*
X159063829Y-57337335D01*
X159356524Y-57630541D01*
X159739144Y-57789419D01*
X160153438Y-57789780D01*
X160536335Y-57631571D01*
X160829541Y-57338876D01*
X160950602Y-57047330D01*
X161070429Y-57337335D01*
X161363124Y-57630541D01*
X161745744Y-57789419D01*
X162160038Y-57789780D01*
X162542935Y-57631571D01*
X162836141Y-57338876D01*
X162957202Y-57047330D01*
X163077029Y-57337335D01*
X163369724Y-57630541D01*
X163752344Y-57789419D01*
X164166638Y-57789780D01*
X164549535Y-57631571D01*
X164842741Y-57338876D01*
X164963802Y-57047330D01*
X165083629Y-57337335D01*
X165376324Y-57630541D01*
X165758944Y-57789419D01*
X166173238Y-57789780D01*
X166556135Y-57631571D01*
X166849341Y-57338876D01*
X166970402Y-57047330D01*
X167090229Y-57337335D01*
X167382924Y-57630541D01*
X167765544Y-57789419D01*
X168179838Y-57789780D01*
X168562735Y-57631571D01*
X168855941Y-57338876D01*
X168977002Y-57047330D01*
X169096829Y-57337335D01*
X169389524Y-57630541D01*
X169772144Y-57789419D01*
X170186438Y-57789780D01*
X170569335Y-57631571D01*
X170862541Y-57338876D01*
X170983602Y-57047330D01*
X171103429Y-57337335D01*
X171396124Y-57630541D01*
X171778744Y-57789419D01*
X172193038Y-57789780D01*
X172575935Y-57631571D01*
X172869141Y-57338876D01*
X172990202Y-57047330D01*
X173110029Y-57337335D01*
X173402724Y-57630541D01*
X173785344Y-57789419D01*
X174199638Y-57789780D01*
X174582535Y-57631571D01*
X174875741Y-57338876D01*
X174996802Y-57047330D01*
X175116629Y-57337335D01*
X175409324Y-57630541D01*
X175791944Y-57789419D01*
X176206238Y-57789780D01*
X176589135Y-57631571D01*
X176882341Y-57338876D01*
X177041219Y-56956256D01*
X177041580Y-56541962D01*
X176883371Y-56159065D01*
X176590676Y-55865859D01*
X176208056Y-55706981D01*
X175793762Y-55706620D01*
X175410865Y-55864829D01*
X175117659Y-56157524D01*
X174996598Y-56449070D01*
X174876771Y-56159065D01*
X174584076Y-55865859D01*
X174201456Y-55706981D01*
X173787162Y-55706620D01*
X173404265Y-55864829D01*
X173111059Y-56157524D01*
X172989998Y-56449070D01*
X172870171Y-56159065D01*
X172577476Y-55865859D01*
X172194856Y-55706981D01*
X171780562Y-55706620D01*
X171397665Y-55864829D01*
X171104459Y-56157524D01*
X170983398Y-56449070D01*
X170863571Y-56159065D01*
X170570876Y-55865859D01*
X170188256Y-55706981D01*
X169773962Y-55706620D01*
X169391065Y-55864829D01*
X169097859Y-56157524D01*
X168976798Y-56449070D01*
X168856971Y-56159065D01*
X168564276Y-55865859D01*
X168181656Y-55706981D01*
X167767362Y-55706620D01*
X167384465Y-55864829D01*
X167091259Y-56157524D01*
X166970198Y-56449070D01*
X166850371Y-56159065D01*
X166557676Y-55865859D01*
X166175056Y-55706981D01*
X165760762Y-55706620D01*
X165377865Y-55864829D01*
X165084659Y-56157524D01*
X164963598Y-56449070D01*
X164843771Y-56159065D01*
X164551076Y-55865859D01*
X164168456Y-55706981D01*
X163754162Y-55706620D01*
X163371265Y-55864829D01*
X163078059Y-56157524D01*
X162956998Y-56449070D01*
X162837171Y-56159065D01*
X162544476Y-55865859D01*
X162161856Y-55706981D01*
X161747562Y-55706620D01*
X161364665Y-55864829D01*
X161071459Y-56157524D01*
X160950398Y-56449070D01*
X160830571Y-56159065D01*
X160537876Y-55865859D01*
X160155256Y-55706981D01*
X159740962Y-55706620D01*
X159358065Y-55864829D01*
X159064859Y-56157524D01*
X158943798Y-56449070D01*
X158823971Y-56159065D01*
X158531276Y-55865859D01*
X158148656Y-55706981D01*
X157734362Y-55706620D01*
X157351465Y-55864829D01*
X157058259Y-56157524D01*
X156899381Y-56540144D01*
X156899020Y-56954438D01*
X156303600Y-56954438D01*
X156303600Y-46394000D01*
X157615127Y-46394000D01*
X157615127Y-48094000D01*
X157634609Y-48197539D01*
X157695801Y-48292634D01*
X157789168Y-48356429D01*
X157900000Y-48378873D01*
X159600000Y-48378873D01*
X159703539Y-48359391D01*
X159798634Y-48298199D01*
X159862429Y-48204832D01*
X159884873Y-48094000D01*
X159884873Y-46719784D01*
X160172857Y-46431800D01*
X160485693Y-46431800D01*
X160246570Y-46789671D01*
X160160600Y-47221874D01*
X160160600Y-47266126D01*
X160246570Y-47698329D01*
X160491394Y-48064732D01*
X160857797Y-48309556D01*
X161290000Y-48395526D01*
X161722203Y-48309556D01*
X162088606Y-48064732D01*
X162333430Y-47698329D01*
X162419400Y-47266126D01*
X162419400Y-47221874D01*
X162333430Y-46789671D01*
X162094307Y-46431800D01*
X163025693Y-46431800D01*
X162786570Y-46789671D01*
X162700600Y-47221874D01*
X162700600Y-47266126D01*
X162786570Y-47698329D01*
X163031394Y-48064732D01*
X163397797Y-48309556D01*
X163830000Y-48395526D01*
X164262203Y-48309556D01*
X164628606Y-48064732D01*
X164873430Y-47698329D01*
X164959400Y-47266126D01*
X164959400Y-47221874D01*
X164873430Y-46789671D01*
X164634307Y-46431800D01*
X165565693Y-46431800D01*
X165326570Y-46789671D01*
X165240600Y-47221874D01*
X165240600Y-47266126D01*
X165326570Y-47698329D01*
X165571394Y-48064732D01*
X165937797Y-48309556D01*
X166370000Y-48395526D01*
X166802203Y-48309556D01*
X167168606Y-48064732D01*
X167413430Y-47698329D01*
X167445521Y-47536995D01*
X167871944Y-47536995D01*
X168063086Y-47911939D01*
X168383163Y-48185195D01*
X168617007Y-48282043D01*
X168783000Y-48257524D01*
X168783000Y-47371000D01*
X169037000Y-47371000D01*
X169037000Y-48257524D01*
X169202993Y-48282043D01*
X169436837Y-48185195D01*
X169756914Y-47911939D01*
X169948056Y-47536995D01*
X169923960Y-47371000D01*
X169037000Y-47371000D01*
X168783000Y-47371000D01*
X167896040Y-47371000D01*
X167871944Y-47536995D01*
X167445521Y-47536995D01*
X167499400Y-47266126D01*
X167499400Y-47221874D01*
X170320600Y-47221874D01*
X170320600Y-47266126D01*
X170406570Y-47698329D01*
X170651394Y-48064732D01*
X171017797Y-48309556D01*
X171450000Y-48395526D01*
X171882203Y-48309556D01*
X172248606Y-48064732D01*
X172493430Y-47698329D01*
X172579400Y-47266126D01*
X172579400Y-47221874D01*
X172493430Y-46789671D01*
X172248606Y-46423268D01*
X171882203Y-46178444D01*
X171450000Y-46092474D01*
X171017797Y-46178444D01*
X170651394Y-46423268D01*
X170406570Y-46789671D01*
X170320600Y-47221874D01*
X167499400Y-47221874D01*
X167413430Y-46789671D01*
X167174307Y-46431800D01*
X168232065Y-46431800D01*
X168063086Y-46576061D01*
X167871944Y-46951005D01*
X167896040Y-47117000D01*
X168783000Y-47117000D01*
X168783000Y-47097000D01*
X169037000Y-47097000D01*
X169037000Y-47117000D01*
X169923960Y-47117000D01*
X169948056Y-46951005D01*
X169756914Y-46576061D01*
X169587935Y-46431800D01*
X169750000Y-46431800D01*
X169915243Y-46398931D01*
X170055329Y-46305329D01*
X170555329Y-45805329D01*
X170648931Y-45665243D01*
X170661696Y-45601069D01*
X170673891Y-45539764D01*
X171017797Y-45769556D01*
X171450000Y-45855526D01*
X171882203Y-45769556D01*
X172248606Y-45524732D01*
X172493430Y-45158329D01*
X172579400Y-44726126D01*
X172579400Y-44681874D01*
X172493430Y-44249671D01*
X172248606Y-43883268D01*
X171882203Y-43638444D01*
X171450000Y-43552474D01*
X171017797Y-43638444D01*
X170681800Y-43862951D01*
X170681800Y-40680658D01*
X175634723Y-35727735D01*
X175791944Y-35793019D01*
X176206238Y-35793380D01*
X176589135Y-35635171D01*
X176882341Y-35342476D01*
X177041219Y-34959856D01*
X177041580Y-34545562D01*
X176883371Y-34162665D01*
X176590676Y-33869459D01*
X176208056Y-33710581D01*
X175793762Y-33710220D01*
X175410865Y-33868429D01*
X175117659Y-34161124D01*
X174996598Y-34452670D01*
X174876771Y-34162665D01*
X174584076Y-33869459D01*
X174201456Y-33710581D01*
X173787162Y-33710220D01*
X173404265Y-33868429D01*
X173111059Y-34161124D01*
X172989998Y-34452670D01*
X172870171Y-34162665D01*
X172577476Y-33869459D01*
X172194856Y-33710581D01*
X171780562Y-33710220D01*
X171397665Y-33868429D01*
X171104459Y-34161124D01*
X170983398Y-34452670D01*
X170863571Y-34162665D01*
X170570876Y-33869459D01*
X170188256Y-33710581D01*
X169773962Y-33710220D01*
X169391065Y-33868429D01*
X169097859Y-34161124D01*
X168976798Y-34452670D01*
X168856971Y-34162665D01*
X168564276Y-33869459D01*
X168181656Y-33710581D01*
X167767362Y-33710220D01*
X167384465Y-33868429D01*
X167091259Y-34161124D01*
X166970198Y-34452670D01*
X166850371Y-34162665D01*
X166557676Y-33869459D01*
X166175056Y-33710581D01*
X165760762Y-33710220D01*
X165377865Y-33868429D01*
X165084659Y-34161124D01*
X164963598Y-34452670D01*
X164843771Y-34162665D01*
X164551076Y-33869459D01*
X164168456Y-33710581D01*
X163754162Y-33710220D01*
X163371265Y-33868429D01*
X163078059Y-34161124D01*
X162956998Y-34452670D01*
X162837171Y-34162665D01*
X162544476Y-33869459D01*
X162161856Y-33710581D01*
X161747562Y-33710220D01*
X161364665Y-33868429D01*
X161071459Y-34161124D01*
X160950398Y-34452670D01*
X160830571Y-34162665D01*
X160537876Y-33869459D01*
X160155256Y-33710581D01*
X159740962Y-33710220D01*
X159358065Y-33868429D01*
X159064859Y-34161124D01*
X158914958Y-34522126D01*
X158910388Y-34469618D01*
X158825876Y-34265589D01*
X158698163Y-34173842D01*
X158120205Y-34751800D01*
X158698163Y-35329758D01*
X158825876Y-35238011D01*
X158910536Y-34969936D01*
X159063829Y-35340935D01*
X159356524Y-35634141D01*
X159739144Y-35793019D01*
X160153438Y-35793380D01*
X160536335Y-35635171D01*
X160829541Y-35342476D01*
X160950602Y-35050930D01*
X161070429Y-35340935D01*
X161363124Y-35634141D01*
X161745744Y-35793019D01*
X162160038Y-35793380D01*
X162542935Y-35635171D01*
X162836141Y-35342476D01*
X162957202Y-35050930D01*
X163077029Y-35340935D01*
X163369724Y-35634141D01*
X163752344Y-35793019D01*
X164166638Y-35793380D01*
X164549535Y-35635171D01*
X164842741Y-35342476D01*
X164963802Y-35050930D01*
X165083629Y-35340935D01*
X165376324Y-35634141D01*
X165758944Y-35793019D01*
X166173238Y-35793380D01*
X166556135Y-35635171D01*
X166849341Y-35342476D01*
X166970402Y-35050930D01*
X167090229Y-35340935D01*
X167382924Y-35634141D01*
X167765544Y-35793019D01*
X168179838Y-35793380D01*
X168562735Y-35635171D01*
X168855941Y-35342476D01*
X168977002Y-35050930D01*
X169096829Y-35340935D01*
X169389524Y-35634141D01*
X169772144Y-35793019D01*
X170186438Y-35793380D01*
X170438860Y-35689082D01*
X166064671Y-40063271D01*
X165971069Y-40203357D01*
X165938200Y-40368600D01*
X165938200Y-43638364D01*
X165937797Y-43638444D01*
X165571394Y-43883268D01*
X165326570Y-44249671D01*
X165240600Y-44681874D01*
X165240600Y-44726126D01*
X165326570Y-45158329D01*
X165571394Y-45524732D01*
X165636448Y-45568200D01*
X164447025Y-45568200D01*
X164676914Y-45371939D01*
X164868056Y-44996995D01*
X164843960Y-44831000D01*
X163957000Y-44831000D01*
X163957000Y-44851000D01*
X163703000Y-44851000D01*
X163703000Y-44831000D01*
X162816040Y-44831000D01*
X162791944Y-44996995D01*
X162983086Y-45371939D01*
X163212975Y-45568200D01*
X162023552Y-45568200D01*
X162088606Y-45524732D01*
X162333430Y-45158329D01*
X162419400Y-44726126D01*
X162419400Y-44681874D01*
X162365522Y-44411005D01*
X162791944Y-44411005D01*
X162816040Y-44577000D01*
X163703000Y-44577000D01*
X163703000Y-43690476D01*
X163957000Y-43690476D01*
X163957000Y-44577000D01*
X164843960Y-44577000D01*
X164868056Y-44411005D01*
X164676914Y-44036061D01*
X164356837Y-43762805D01*
X164122993Y-43665957D01*
X163957000Y-43690476D01*
X163703000Y-43690476D01*
X163537007Y-43665957D01*
X163303163Y-43762805D01*
X162983086Y-44036061D01*
X162791944Y-44411005D01*
X162365522Y-44411005D01*
X162333430Y-44249671D01*
X162088606Y-43883268D01*
X161722203Y-43638444D01*
X161290000Y-43552474D01*
X160857797Y-43638444D01*
X160491394Y-43883268D01*
X160246570Y-44249671D01*
X160160600Y-44681874D01*
X160160600Y-44726126D01*
X160246570Y-45158329D01*
X160491394Y-45524732D01*
X160556448Y-45568200D01*
X159994005Y-45568200D01*
X159994000Y-45568199D01*
X159856173Y-45595615D01*
X159828757Y-45601069D01*
X159688671Y-45694671D01*
X159688669Y-45694674D01*
X159274216Y-46109127D01*
X157900000Y-46109127D01*
X157796461Y-46128609D01*
X157701366Y-46189801D01*
X157637571Y-46283168D01*
X157615127Y-46394000D01*
X156303600Y-46394000D01*
X156303600Y-44681874D01*
X157620600Y-44681874D01*
X157620600Y-44726126D01*
X157706570Y-45158329D01*
X157951394Y-45524732D01*
X158317797Y-45769556D01*
X158750000Y-45855526D01*
X159182203Y-45769556D01*
X159548606Y-45524732D01*
X159793430Y-45158329D01*
X159879400Y-44726126D01*
X159879400Y-44681874D01*
X159793430Y-44249671D01*
X159548606Y-43883268D01*
X159182203Y-43638444D01*
X158750000Y-43552474D01*
X158317797Y-43638444D01*
X157951394Y-43883268D01*
X157706570Y-44249671D01*
X157620600Y-44681874D01*
X156303600Y-44681874D01*
X156303600Y-35509363D01*
X157362642Y-35509363D01*
X157454389Y-35637076D01*
X157830180Y-35755754D01*
X158222782Y-35721588D01*
X158426811Y-35637076D01*
X158518558Y-35509363D01*
X157940600Y-34931405D01*
X157362642Y-35509363D01*
X156303600Y-35509363D01*
X156303600Y-34641380D01*
X156936646Y-34641380D01*
X156970812Y-35033982D01*
X157055324Y-35238011D01*
X157183037Y-35329758D01*
X157760995Y-34751800D01*
X157183037Y-34173842D01*
X157055324Y-34265589D01*
X156936646Y-34641380D01*
X156303600Y-34641380D01*
X156303600Y-33994237D01*
X157362642Y-33994237D01*
X157940600Y-34572195D01*
X158518558Y-33994237D01*
X158426811Y-33866524D01*
X158051020Y-33747846D01*
X157658418Y-33782012D01*
X157454389Y-33866524D01*
X157362642Y-33994237D01*
X156303600Y-33994237D01*
X156303600Y-33553600D01*
X177196400Y-33553600D01*
X177196400Y-41696400D01*
X177196400Y-41696400D01*
G37*
X177196400Y-41696400D02*
X173250000Y-41696400D01*
X173133817Y-41719510D01*
X173035322Y-41785322D01*
X172969510Y-41883817D01*
X172946400Y-42000000D01*
X172946400Y-50000000D01*
X172969510Y-50116183D01*
X173035322Y-50214678D01*
X173133817Y-50280490D01*
X173250000Y-50303600D01*
X177196400Y-50303600D01*
X177196400Y-58446400D01*
X156303600Y-58446400D01*
X156303600Y-56954438D01*
X156899020Y-56954438D01*
X157057229Y-57337335D01*
X157349924Y-57630541D01*
X157732544Y-57789419D01*
X158146838Y-57789780D01*
X158529735Y-57631571D01*
X158822941Y-57338876D01*
X158944002Y-57047330D01*
X159063829Y-57337335D01*
X159356524Y-57630541D01*
X159739144Y-57789419D01*
X160153438Y-57789780D01*
X160536335Y-57631571D01*
X160829541Y-57338876D01*
X160950602Y-57047330D01*
X161070429Y-57337335D01*
X161363124Y-57630541D01*
X161745744Y-57789419D01*
X162160038Y-57789780D01*
X162542935Y-57631571D01*
X162836141Y-57338876D01*
X162957202Y-57047330D01*
X163077029Y-57337335D01*
X163369724Y-57630541D01*
X163752344Y-57789419D01*
X164166638Y-57789780D01*
X164549535Y-57631571D01*
X164842741Y-57338876D01*
X164963802Y-57047330D01*
X165083629Y-57337335D01*
X165376324Y-57630541D01*
X165758944Y-57789419D01*
X166173238Y-57789780D01*
X166556135Y-57631571D01*
X166849341Y-57338876D01*
X166970402Y-57047330D01*
X167090229Y-57337335D01*
X167382924Y-57630541D01*
X167765544Y-57789419D01*
X168179838Y-57789780D01*
X168562735Y-57631571D01*
X168855941Y-57338876D01*
X168977002Y-57047330D01*
X169096829Y-57337335D01*
X169389524Y-57630541D01*
X169772144Y-57789419D01*
X170186438Y-57789780D01*
X170569335Y-57631571D01*
X170862541Y-57338876D01*
X170983602Y-57047330D01*
X171103429Y-57337335D01*
X171396124Y-57630541D01*
X171778744Y-57789419D01*
X172193038Y-57789780D01*
X172575935Y-57631571D01*
X172869141Y-57338876D01*
X172990202Y-57047330D01*
X173110029Y-57337335D01*
X173402724Y-57630541D01*
X173785344Y-57789419D01*
X174199638Y-57789780D01*
X174582535Y-57631571D01*
X174875741Y-57338876D01*
X174996802Y-57047330D01*
X175116629Y-57337335D01*
X175409324Y-57630541D01*
X175791944Y-57789419D01*
X176206238Y-57789780D01*
X176589135Y-57631571D01*
X176882341Y-57338876D01*
X177041219Y-56956256D01*
X177041580Y-56541962D01*
X176883371Y-56159065D01*
X176590676Y-55865859D01*
X176208056Y-55706981D01*
X175793762Y-55706620D01*
X175410865Y-55864829D01*
X175117659Y-56157524D01*
X174996598Y-56449070D01*
X174876771Y-56159065D01*
X174584076Y-55865859D01*
X174201456Y-55706981D01*
X173787162Y-55706620D01*
X173404265Y-55864829D01*
X173111059Y-56157524D01*
X172989998Y-56449070D01*
X172870171Y-56159065D01*
X172577476Y-55865859D01*
X172194856Y-55706981D01*
X171780562Y-55706620D01*
X171397665Y-55864829D01*
X171104459Y-56157524D01*
X170983398Y-56449070D01*
X170863571Y-56159065D01*
X170570876Y-55865859D01*
X170188256Y-55706981D01*
X169773962Y-55706620D01*
X169391065Y-55864829D01*
X169097859Y-56157524D01*
X168976798Y-56449070D01*
X168856971Y-56159065D01*
X168564276Y-55865859D01*
X168181656Y-55706981D01*
X167767362Y-55706620D01*
X167384465Y-55864829D01*
X167091259Y-56157524D01*
X166970198Y-56449070D01*
X166850371Y-56159065D01*
X166557676Y-55865859D01*
X166175056Y-55706981D01*
X165760762Y-55706620D01*
X165377865Y-55864829D01*
X165084659Y-56157524D01*
X164963598Y-56449070D01*
X164843771Y-56159065D01*
X164551076Y-55865859D01*
X164168456Y-55706981D01*
X163754162Y-55706620D01*
X163371265Y-55864829D01*
X163078059Y-56157524D01*
X162956998Y-56449070D01*
X162837171Y-56159065D01*
X162544476Y-55865859D01*
X162161856Y-55706981D01*
X161747562Y-55706620D01*
X161364665Y-55864829D01*
X161071459Y-56157524D01*
X160950398Y-56449070D01*
X160830571Y-56159065D01*
X160537876Y-55865859D01*
X160155256Y-55706981D01*
X159740962Y-55706620D01*
X159358065Y-55864829D01*
X159064859Y-56157524D01*
X158943798Y-56449070D01*
X158823971Y-56159065D01*
X158531276Y-55865859D01*
X158148656Y-55706981D01*
X157734362Y-55706620D01*
X157351465Y-55864829D01*
X157058259Y-56157524D01*
X156899381Y-56540144D01*
X156899020Y-56954438D01*
X156303600Y-56954438D01*
X156303600Y-46394000D01*
X157615127Y-46394000D01*
X157615127Y-48094000D01*
X157634609Y-48197539D01*
X157695801Y-48292634D01*
X157789168Y-48356429D01*
X157900000Y-48378873D01*
X159600000Y-48378873D01*
X159703539Y-48359391D01*
X159798634Y-48298199D01*
X159862429Y-48204832D01*
X159884873Y-48094000D01*
X159884873Y-46719784D01*
X160172857Y-46431800D01*
X160485693Y-46431800D01*
X160246570Y-46789671D01*
X160160600Y-47221874D01*
X160160600Y-47266126D01*
X160246570Y-47698329D01*
X160491394Y-48064732D01*
X160857797Y-48309556D01*
X161290000Y-48395526D01*
X161722203Y-48309556D01*
X162088606Y-48064732D01*
X162333430Y-47698329D01*
X162419400Y-47266126D01*
X162419400Y-47221874D01*
X162333430Y-46789671D01*
X162094307Y-46431800D01*
X163025693Y-46431800D01*
X162786570Y-46789671D01*
X162700600Y-47221874D01*
X162700600Y-47266126D01*
X162786570Y-47698329D01*
X163031394Y-48064732D01*
X163397797Y-48309556D01*
X163830000Y-48395526D01*
X164262203Y-48309556D01*
X164628606Y-48064732D01*
X164873430Y-47698329D01*
X164959400Y-47266126D01*
X164959400Y-47221874D01*
X164873430Y-46789671D01*
X164634307Y-46431800D01*
X165565693Y-46431800D01*
X165326570Y-46789671D01*
X165240600Y-47221874D01*
X165240600Y-47266126D01*
X165326570Y-47698329D01*
X165571394Y-48064732D01*
X165937797Y-48309556D01*
X166370000Y-48395526D01*
X166802203Y-48309556D01*
X167168606Y-48064732D01*
X167413430Y-47698329D01*
X167445521Y-47536995D01*
X167871944Y-47536995D01*
X168063086Y-47911939D01*
X168383163Y-48185195D01*
X168617007Y-48282043D01*
X168783000Y-48257524D01*
X168783000Y-47371000D01*
X169037000Y-47371000D01*
X169037000Y-48257524D01*
X169202993Y-48282043D01*
X169436837Y-48185195D01*
X169756914Y-47911939D01*
X169948056Y-47536995D01*
X169923960Y-47371000D01*
X169037000Y-47371000D01*
X168783000Y-47371000D01*
X167896040Y-47371000D01*
X167871944Y-47536995D01*
X167445521Y-47536995D01*
X167499400Y-47266126D01*
X167499400Y-47221874D01*
X170320600Y-47221874D01*
X170320600Y-47266126D01*
X170406570Y-47698329D01*
X170651394Y-48064732D01*
X171017797Y-48309556D01*
X171450000Y-48395526D01*
X171882203Y-48309556D01*
X172248606Y-48064732D01*
X172493430Y-47698329D01*
X172579400Y-47266126D01*
X172579400Y-47221874D01*
X172493430Y-46789671D01*
X172248606Y-46423268D01*
X171882203Y-46178444D01*
X171450000Y-46092474D01*
X171017797Y-46178444D01*
X170651394Y-46423268D01*
X170406570Y-46789671D01*
X170320600Y-47221874D01*
X167499400Y-47221874D01*
X167413430Y-46789671D01*
X167174307Y-46431800D01*
X168232065Y-46431800D01*
X168063086Y-46576061D01*
X167871944Y-46951005D01*
X167896040Y-47117000D01*
X168783000Y-47117000D01*
X168783000Y-47097000D01*
X169037000Y-47097000D01*
X169037000Y-47117000D01*
X169923960Y-47117000D01*
X169948056Y-46951005D01*
X169756914Y-46576061D01*
X169587935Y-46431800D01*
X169750000Y-46431800D01*
X169915243Y-46398931D01*
X170055329Y-46305329D01*
X170555329Y-45805329D01*
X170648931Y-45665243D01*
X170661696Y-45601069D01*
X170673891Y-45539764D01*
X171017797Y-45769556D01*
X171450000Y-45855526D01*
X171882203Y-45769556D01*
X172248606Y-45524732D01*
X172493430Y-45158329D01*
X172579400Y-44726126D01*
X172579400Y-44681874D01*
X172493430Y-44249671D01*
X172248606Y-43883268D01*
X171882203Y-43638444D01*
X171450000Y-43552474D01*
X171017797Y-43638444D01*
X170681800Y-43862951D01*
X170681800Y-40680658D01*
X175634723Y-35727735D01*
X175791944Y-35793019D01*
X176206238Y-35793380D01*
X176589135Y-35635171D01*
X176882341Y-35342476D01*
X177041219Y-34959856D01*
X177041580Y-34545562D01*
X176883371Y-34162665D01*
X176590676Y-33869459D01*
X176208056Y-33710581D01*
X175793762Y-33710220D01*
X175410865Y-33868429D01*
X175117659Y-34161124D01*
X174996598Y-34452670D01*
X174876771Y-34162665D01*
X174584076Y-33869459D01*
X174201456Y-33710581D01*
X173787162Y-33710220D01*
X173404265Y-33868429D01*
X173111059Y-34161124D01*
X172989998Y-34452670D01*
X172870171Y-34162665D01*
X172577476Y-33869459D01*
X172194856Y-33710581D01*
X171780562Y-33710220D01*
X171397665Y-33868429D01*
X171104459Y-34161124D01*
X170983398Y-34452670D01*
X170863571Y-34162665D01*
X170570876Y-33869459D01*
X170188256Y-33710581D01*
X169773962Y-33710220D01*
X169391065Y-33868429D01*
X169097859Y-34161124D01*
X168976798Y-34452670D01*
X168856971Y-34162665D01*
X168564276Y-33869459D01*
X168181656Y-33710581D01*
X167767362Y-33710220D01*
X167384465Y-33868429D01*
X167091259Y-34161124D01*
X166970198Y-34452670D01*
X166850371Y-34162665D01*
X166557676Y-33869459D01*
X166175056Y-33710581D01*
X165760762Y-33710220D01*
X165377865Y-33868429D01*
X165084659Y-34161124D01*
X164963598Y-34452670D01*
X164843771Y-34162665D01*
X164551076Y-33869459D01*
X164168456Y-33710581D01*
X163754162Y-33710220D01*
X163371265Y-33868429D01*
X163078059Y-34161124D01*
X162956998Y-34452670D01*
X162837171Y-34162665D01*
X162544476Y-33869459D01*
X162161856Y-33710581D01*
X161747562Y-33710220D01*
X161364665Y-33868429D01*
X161071459Y-34161124D01*
X160950398Y-34452670D01*
X160830571Y-34162665D01*
X160537876Y-33869459D01*
X160155256Y-33710581D01*
X159740962Y-33710220D01*
X159358065Y-33868429D01*
X159064859Y-34161124D01*
X158914958Y-34522126D01*
X158910388Y-34469618D01*
X158825876Y-34265589D01*
X158698163Y-34173842D01*
X158120205Y-34751800D01*
X158698163Y-35329758D01*
X158825876Y-35238011D01*
X158910536Y-34969936D01*
X159063829Y-35340935D01*
X159356524Y-35634141D01*
X159739144Y-35793019D01*
X160153438Y-35793380D01*
X160536335Y-35635171D01*
X160829541Y-35342476D01*
X160950602Y-35050930D01*
X161070429Y-35340935D01*
X161363124Y-35634141D01*
X161745744Y-35793019D01*
X162160038Y-35793380D01*
X162542935Y-35635171D01*
X162836141Y-35342476D01*
X162957202Y-35050930D01*
X163077029Y-35340935D01*
X163369724Y-35634141D01*
X163752344Y-35793019D01*
X164166638Y-35793380D01*
X164549535Y-35635171D01*
X164842741Y-35342476D01*
X164963802Y-35050930D01*
X165083629Y-35340935D01*
X165376324Y-35634141D01*
X165758944Y-35793019D01*
X166173238Y-35793380D01*
X166556135Y-35635171D01*
X166849341Y-35342476D01*
X166970402Y-35050930D01*
X167090229Y-35340935D01*
X167382924Y-35634141D01*
X167765544Y-35793019D01*
X168179838Y-35793380D01*
X168562735Y-35635171D01*
X168855941Y-35342476D01*
X168977002Y-35050930D01*
X169096829Y-35340935D01*
X169389524Y-35634141D01*
X169772144Y-35793019D01*
X170186438Y-35793380D01*
X170438860Y-35689082D01*
X166064671Y-40063271D01*
X165971069Y-40203357D01*
X165938200Y-40368600D01*
X165938200Y-43638364D01*
X165937797Y-43638444D01*
X165571394Y-43883268D01*
X165326570Y-44249671D01*
X165240600Y-44681874D01*
X165240600Y-44726126D01*
X165326570Y-45158329D01*
X165571394Y-45524732D01*
X165636448Y-45568200D01*
X164447025Y-45568200D01*
X164676914Y-45371939D01*
X164868056Y-44996995D01*
X164843960Y-44831000D01*
X163957000Y-44831000D01*
X163957000Y-44851000D01*
X163703000Y-44851000D01*
X163703000Y-44831000D01*
X162816040Y-44831000D01*
X162791944Y-44996995D01*
X162983086Y-45371939D01*
X163212975Y-45568200D01*
X162023552Y-45568200D01*
X162088606Y-45524732D01*
X162333430Y-45158329D01*
X162419400Y-44726126D01*
X162419400Y-44681874D01*
X162365522Y-44411005D01*
X162791944Y-44411005D01*
X162816040Y-44577000D01*
X163703000Y-44577000D01*
X163703000Y-43690476D01*
X163957000Y-43690476D01*
X163957000Y-44577000D01*
X164843960Y-44577000D01*
X164868056Y-44411005D01*
X164676914Y-44036061D01*
X164356837Y-43762805D01*
X164122993Y-43665957D01*
X163957000Y-43690476D01*
X163703000Y-43690476D01*
X163537007Y-43665957D01*
X163303163Y-43762805D01*
X162983086Y-44036061D01*
X162791944Y-44411005D01*
X162365522Y-44411005D01*
X162333430Y-44249671D01*
X162088606Y-43883268D01*
X161722203Y-43638444D01*
X161290000Y-43552474D01*
X160857797Y-43638444D01*
X160491394Y-43883268D01*
X160246570Y-44249671D01*
X160160600Y-44681874D01*
X160160600Y-44726126D01*
X160246570Y-45158329D01*
X160491394Y-45524732D01*
X160556448Y-45568200D01*
X159994005Y-45568200D01*
X159994000Y-45568199D01*
X159856173Y-45595615D01*
X159828757Y-45601069D01*
X159688671Y-45694671D01*
X159688669Y-45694674D01*
X159274216Y-46109127D01*
X157900000Y-46109127D01*
X157796461Y-46128609D01*
X157701366Y-46189801D01*
X157637571Y-46283168D01*
X157615127Y-46394000D01*
X156303600Y-46394000D01*
X156303600Y-44681874D01*
X157620600Y-44681874D01*
X157620600Y-44726126D01*
X157706570Y-45158329D01*
X157951394Y-45524732D01*
X158317797Y-45769556D01*
X158750000Y-45855526D01*
X159182203Y-45769556D01*
X159548606Y-45524732D01*
X159793430Y-45158329D01*
X159879400Y-44726126D01*
X159879400Y-44681874D01*
X159793430Y-44249671D01*
X159548606Y-43883268D01*
X159182203Y-43638444D01*
X158750000Y-43552474D01*
X158317797Y-43638444D01*
X157951394Y-43883268D01*
X157706570Y-44249671D01*
X157620600Y-44681874D01*
X156303600Y-44681874D01*
X156303600Y-35509363D01*
X157362642Y-35509363D01*
X157454389Y-35637076D01*
X157830180Y-35755754D01*
X158222782Y-35721588D01*
X158426811Y-35637076D01*
X158518558Y-35509363D01*
X157940600Y-34931405D01*
X157362642Y-35509363D01*
X156303600Y-35509363D01*
X156303600Y-34641380D01*
X156936646Y-34641380D01*
X156970812Y-35033982D01*
X157055324Y-35238011D01*
X157183037Y-35329758D01*
X157760995Y-34751800D01*
X157183037Y-34173842D01*
X157055324Y-34265589D01*
X156936646Y-34641380D01*
X156303600Y-34641380D01*
X156303600Y-33994237D01*
X157362642Y-33994237D01*
X157940600Y-34572195D01*
X158518558Y-33994237D01*
X158426811Y-33866524D01*
X158051020Y-33747846D01*
X157658418Y-33782012D01*
X157454389Y-33866524D01*
X157362642Y-33994237D01*
X156303600Y-33994237D01*
X156303600Y-33553600D01*
X177196400Y-33553600D01*
X177196400Y-41696400D01*
G36*
X168604671Y-39529871D02*
X168511069Y-39669957D01*
X168478200Y-39835200D01*
X168478200Y-43638364D01*
X168477797Y-43638444D01*
X168111394Y-43883268D01*
X167866570Y-44249671D01*
X167780600Y-44681874D01*
X167780600Y-44726126D01*
X167866570Y-45158329D01*
X168111394Y-45524732D01*
X168176448Y-45568200D01*
X167103552Y-45568200D01*
X167168606Y-45524732D01*
X167413430Y-45158329D01*
X167499400Y-44726126D01*
X167499400Y-44681874D01*
X167413430Y-44249671D01*
X167168606Y-43883268D01*
X166802203Y-43638444D01*
X166801800Y-43638364D01*
X166801800Y-40547458D01*
X171621523Y-35727735D01*
X171778744Y-35793019D01*
X172193038Y-35793380D01*
X172445460Y-35689082D01*
X168604671Y-39529871D01*
X168604671Y-39529871D01*
G37*
X168604671Y-39529871D02*
X168511069Y-39669957D01*
X168478200Y-39835200D01*
X168478200Y-43638364D01*
X168477797Y-43638444D01*
X168111394Y-43883268D01*
X167866570Y-44249671D01*
X167780600Y-44681874D01*
X167780600Y-44726126D01*
X167866570Y-45158329D01*
X168111394Y-45524732D01*
X168176448Y-45568200D01*
X167103552Y-45568200D01*
X167168606Y-45524732D01*
X167413430Y-45158329D01*
X167499400Y-44726126D01*
X167499400Y-44681874D01*
X167413430Y-44249671D01*
X167168606Y-43883268D01*
X166802203Y-43638444D01*
X166801800Y-43638364D01*
X166801800Y-40547458D01*
X171621523Y-35727735D01*
X171778744Y-35793019D01*
X172193038Y-35793380D01*
X172445460Y-35689082D01*
X168604671Y-39529871D01*
G36*
X169944671Y-40196471D02*
X169851069Y-40336557D01*
X169818200Y-40501800D01*
X169818200Y-44047286D01*
X169708606Y-43883268D01*
X169342203Y-43638444D01*
X169341800Y-43638364D01*
X169341800Y-40014058D01*
X173628123Y-35727735D01*
X173785344Y-35793019D01*
X174199638Y-35793380D01*
X174452060Y-35689082D01*
X169944671Y-40196471D01*
X169944671Y-40196471D01*
G37*
X169944671Y-40196471D02*
X169851069Y-40336557D01*
X169818200Y-40501800D01*
X169818200Y-44047286D01*
X169708606Y-43883268D01*
X169342203Y-43638444D01*
X169341800Y-43638364D01*
X169341800Y-40014058D01*
X173628123Y-35727735D01*
X173785344Y-35793019D01*
X174199638Y-35793380D01*
X174452060Y-35689082D01*
X169944671Y-40196471D01*
M02*
