M48
; DRILL file {KiCad (5.1.10)-1} date 09/03/21 10:18:18
; FORMAT={2:4/ absolute / inch / suppress trailing zeros}
; #@! TF.CreationDate,2021-09-03T10:18:18+02:00
; #@! TF.GenerationSoftware,Kicad,Pcbnew,(5.1.10)-1
FMAT,2
INCH,LZ
T1C0.0130
T2C0.0300
T3C0.0394
%
G90
G05
T1
X066718Y-015959
T2
X062083Y-013682
X062083Y-022342
X062873Y-013682
X062873Y-022342
X063663Y-013682
X063663Y-022342
X064453Y-013682
X064453Y-022342
X065243Y-013682
X065243Y-022342
X066033Y-013682
X066033Y-022342
X066823Y-013682
X066823Y-022342
X067613Y-013682
X067613Y-022342
X068403Y-013682
X068403Y-022342
X069193Y-013682
X069193Y-022342
T3
X0598Y-014
X0598Y-015
X062Y-0241
X062Y-0251
X063Y-0241
X063Y-0251
X064Y-0241
X064Y-0251
X065Y-0241
X065Y-0251
X066Y-0241
X066Y-0251
X067Y-0241
X067Y-0251
T0
M30
